<?xml version="1.0" encoding="UTF-8"?>
<svg id="Layer_1" xmlns="http://www.w3.org/2000/svg" version="1.1" viewBox="0 0 123 93">
  <!-- Generator: Adobe Illustrator 29.6.1, SVG Export Plug-In . SVG Version: 2.1.1 Build 9)  -->
  <defs>
    <style>
      .st0 {
        fill: #e38dff;
      }

      .st1 {
        fill: #08145a;
      }

      .st2 {
        fill: #0f001c;
      }

      .st3 {
        fill: #3a0060;
      }

      .st4 {
        fill: #541989;
      }

      .st5 {
        fill: #fde3ff;
      }

      .st6 {
        opacity: .2;
      }

      .st7 {
        fill: #21003a;
      }

      .st8 {
        fill: #ae3fef;
      }

      .st9 {
        fill: #f0b3ff;
      }

      .st10 {
        fill: #7816b7;
      }
    </style>
  </defs>
  <path class="st1" d="M121.1,13.6c-.7-.3-1.9-.8-3.5-1.2,0,0,0,0,0,0C58.3-4,52.6,0,36.8,2.8,21,5.6,2.9,10.3,2.9,10.3h0s0,0,0,0c0,0,0,0,0,0-1.5.3-2.6.6-2.8.8-.3.2.5.6,1.6,1.2.4,2,1.3,4.8,3.1,8.6.2.5,1.2,2.3,1.4,2.8.4,1,.4,2.1.6,3.2.1,1.1.5,2.2,1,3.3,1,2.2,2.6,4.2,3.6,6.4,1,2.2,1.5,4.6,2.7,6.8,1.2,2.3,3,4.3,3.9,6.7.5,1.2.8,2.4,1.3,3.5.3.8.8,1.6,1.4,2.3.2.2.4.5.6.7.8.9,1.7,1.8,2.4,2.7.8,1,1.3,2,2.1,3,1.5,2,1.6,3.8,3,5.9,0,0,0,0,0,0,0,0,0,0,0,0,.2.3,4.4,3.4,4.5,3.7.3-1.1-1.7-4.7-1.6-5.6,0,0,0,0,0,0,5,6.2,6.1,2.8,6.6,3.8.4.9.9,2.3,1.6,3.6.2.4.3.8.5,1.2,1.1,2.9,2.1,5,3.2,3.7,0,0,0,0,0,0,3.6-4.1,5.1-3.8,6.2,0,0,.3.1.5.2.8.1.6.3,1.1.4,1.5,1,3.1,2,3,3.9,5.4,2.2,2.7,3.7,3.8,4.5,5.4.2.4.3.5.3.3,0-.3,0-1,.3-2,.3-1.5,1-3.6,2.7-6,1.6-2.3,3.4-4.6,5.1-7.1,0,1,0,2,.2,2.9,0,.3.5.3.7.2.9-.8,2-2.4,3-4.5.2-.4.4-.9.6-1.4,1.8-4.3,3.7-3.3,4.8-7.5.2-.9.4-1.6.7-2.2,0,0,0,0,0,0,0,0,0,0,0,0h0c1-.3,2.1-.6,3.6-1.4.7-.4,1.3-.8,1.9-1.1,0,0,0,0,0,0,0,0,0,0,0,0,2.2-1.5,3.5-3,6.5-6.1,0,0,0,0,0,0,0,0,0,0,0,0,.4-.4.9-.9,1.4-1.4.8-.9,1.4-1.5,1.8-2,0,0,0,0,0,0,0,0,0,0,0,0,.1.6.2,1.2.3,1.7.2,1.5.3,2.7.5,3.9,1.4-2.6,3.5-5.4,4.4-7,.1-.2.2-.4.3-.6.2-.4.2-.5.2-.4,0,0,0,0,0,0,0,0,0,0,0,0,0,0,0,0,0,0,.5-.8.9-1.3,1.5-1.7,0,0,0,0,0,0,1.6-1.3,3.4-2.1,6.1-8.6,4.5-10.7,4.6-6.9,7.7-13.8,2.1-4.7,4.8-7.2,6.5-8.9,2.6-.8,4.2-1.9,1.6-3.3Z"/>
  <g class="st6">
    <path class="st5" d="M2.9,10.3S21,5.6,36.8,2.8C52.6,0,58.3-4,117.6,12.3c10.1,2.8-103.2,0-103.2,0l-11.4-2.1Z"/>
    <path class="st3" d="M110.1,17.1v1.3c.1.1.1.3,0,.4-.2.2-.4.4-.7.5-3.4,2.3-9.6,3.4-12.4,3.8,0,.1,0,.3.2.4.5.4.8.7.3.8-1,.3-2.1.5-3.2.7-.8.1-1.5.3-2.1.4-2,.3-10.2.8-10.2.8l.8,1.8h-.4s-5.4.6-5.4.6l1.8,1.1c.8.4,1.5.7,1.3.8-.5.1-18.3-.4-17.8-1.3.3-.4,1.8-.8,3.2-1.1-2.2-.4-6.5-1.2-10.2-1.9,0,0,0,.1,0,.2,0,.4,0,.6,0,.9,0,.1,0,.3,0,.3-.2,0-.6.1-1.3.2-.1,0-.3,0-.4,0,0,0-.2,0-.2,0,0,0,0,0,0,0-1.7,0-4.1,0-5.5-.1.9,1,1.9,2.2,1.4,2.2-.2.4-9.2,1.1-15.5,1-4,0-7-.9-8.4-1.8-.3-.1-.5-.3-.8-.4-1.7-1.2,2.3-2.4,4.8-2.9-3.2-.4-11.1-1.6-11.1-2.1s.5-.4,1.1-.7c0,0,.2,0,.2,0-1.6-.4-3.7-.9-6.6-1.7-5.2-1.5-4.5-2.2-4.1-2.4-.7-.4-.9-.7-.3-1,1.3-.7,2.8-1.3,4.1-1.7C5.1,14,1.4,10.7,1.4,10.7c.3,2.1,1,5.3,3.4,10.2.2.5,1.2,2.3,1.4,2.8.4,1,.4,2.1.6,3.2.1,1.1.5,2.2,1,3.3,1,2.2,2.6,4.2,3.6,6.4,1,2.2,1.5,4.6,2.7,6.8,1.2,2.3,3,4.3,3.9,6.7.5,1.2.8,2.4,1.3,3.5.5,1.1,1.2,2.1,2,3,.8.9,1.7,1.8,2.4,2.7.8,1,1.3,2,2.1,3,1.5,2,1.6,3.8,3,5.9.2.3,4.4,3.4,4.5,3.7.3-1.1-1.7-4.8-1.6-5.6,5,6.2,6.1,2.8,6.6,3.8,1.2,2.9,4.1,9.8,5.2,8.5,3.8-4.4,5.3-3.8,6.4.9,1.1,4.7,2.2,4.2,4.3,6.9,2.2,2.7,3.7,3.8,4.5,5.4.8,1.7-.7-2.2,3.2-7.7,1.6-2.3,3.4-4.6,5.1-7.1,0,1,0,2,.2,3,0,.3.5.3.7.2.9-.8,2-2.4,3-4.5.2-.4.4-.9.6-1.4,1.8-4.3,3.7-3.3,4.8-7.5.2-.9.4-1.6.7-2.2,1-.3,2.1-.6,3.6-1.4.7-.4,1.3-.8,1.9-1.1,2.2-1.5,3.5-3,6.5-6.1.4-.4.9-.9,1.4-1.4.8-.9,1.4-1.5,1.8-2,.1.6.2,1.2.3,1.7.2,1.5.3,2.7.5,3.9,1.4-2.6,3.5-5.4,4.4-7,.1-.2.2-.4.3-.6.2-.5.2-.5.2-.3.5-.8,1-1.3,1.5-1.7,1.6-1.3,3.4-2.1,6.1-8.6,4.5-10.7,4.6-6.9,7.7-13.8,2.4-5.4,5.7-7.8,7.2-9.6-2.8.9-6.8,1.1-10.1,1h0Z"/>
    <path class="st7" d="M83.7,28.3c.5,1.2.6,3.5-1.6,9.3-.6,1.5-1.2,3.1-1.8,4.6-.4,1-.8,2-1.2,3-1,2.3-1.7,4.1-1.9,4.7,0-.1.1-.3.2-.6.9-2.8,3.8-12.2,4.7-15.3.7-2.8.4-4.6-.2-5.2-1.4.2-3.2.2-4.3.1l2.1,1.3c.8.3,1.4.6,1.6.9.4,1.3-3.4,7.7-4.2,12.1-.8,4.4-3.9,7.2-5.3,14.9-1.4,7.7-6.7,8.4-9.2,11.2-.9,1-1.7,2.5-2.4,4.1-1.2,2.7-2,5.7-2.4,7-.6,1.7-.9.9-.9-3.2,0-1,0-2.1,0-3.5,0-3.5,0-4.8,0-5.9,0,0,0-.1,0-.2,0-.8-.1-1.5-.2-3,0-.6,0-1.3-.1-2.2-.3-6.4,3.1-6.2,2.5-12.1-.6-5.9,2.1-7,2.3-12.9.2-5.9,1-6.2,1.3-7.6.2-.3,1.5-.8,2.4-1.3,0,0,.5-.2,1-.4-1.6-.3-4.8-.9-8-1.5-.9-.1-3.3-.6-4.1-.7,0,0,1.2,2.6,1,2.7,0,0-.7,4.2-1.3,7.4-.6,3.3-1.1,7.2-2.1,9.9-1,2.7-1.7,5-1.8,8.3-.1,3.3-1.5-3.1,0-9.5,0,0,2.5-13.7,2.2-14.9-.1-.5-.4-.9-.6-1.2-.5,0-1,0-1.4,0-.4,0-2-.2-2.5-.3.6.7,2.3,1.8,2.5,2,.4.3.7.6.9.9,0,1.5-1.3,1.8-2.3,7-1,5.2-.7,4.1-2,9.9-1.4,5.8-2.7,4.4-2.5,9.8.2,4.8,0,3.1-.6,6.5,0,.4-.1.8-.2,1.2-.7,4.3-1.8,2.5-3.1-1.2-.3-.7-.5-1.5-.8-2.3-1.7-5.2-3-8.8-5.4-11.6-2.4-2.9-6.1-4-7.1-9.5-1-5.5-2.7-11.8-2.1-12.3,0-1,2-1.7,4-2.3-1.4-.3-4.6-.6-6.2-.9-3,.3.5,9.4,1.6,12.1,1,2.7,1.5,8.3,4.3,11.1,2.3,2.3,1.8,3.2,3.2,5,1,1.3,1.8,2.8,2.3,4.3,1.1,3.3,2.5,7.9,0,5.9-.3-.5-.5-1.1-.8-1.8-1.8-4.8-.1-2.9-3.2-6.5-3.1-3.7-2.3-3.4-5.3-8.9-3-5.4-.7-5.3-3.8-10.5-3.1-5.2-2.5-10-2.4-11.3,0-.1.3-.3.6-.4,0,0,0,0,.1,0,.2,0,.3-.2.5-.2.4-.2.8-.4,1.1-.5.2-.1.6-.2,1-.4-1.5-.3-4.2-.9-8.4-2.1,2.1,1.7,3.8,5,5.7,14.2,2.4,11.9,3.4,10.2,5.7,16.8,0,0,1.5,3.9.7,4.3.6.9,1.3,1.9,2.1,3.2,1.7,2.6,3.3,4.7,4.7,6.5,5,6.2,6.1,2.8,6.6,3.8,1.2,2.9,4.1,9.8,5.2,8.5,3.8-4.4,5.3-3.8,6.4.9,1.1,4.7,2.2,4.2,4.3,6.9,2.2,2.7,3.7,3.8,4.5,5.4.8,1.7-.7-2.2,3.2-7.7,1.6-2.3,3.4-4.6,5.1-7.1,2-2.8,3.9-5.7,5.4-8.7.4-.7.7-1.4,1-2.2,2.9-6.5,4.3-4.8,7.8-14.2,2.4-6.4,3.3-11.3,5.5-15,5.4-9,9.6-10.7,9.6-10.7-1.6.3-3.8.5-6,.7-3,.2-5.8.2-7.1.2-.3,0-.6,0-.9-.1,0,0,.8.6,1.5,1.4h0Z"/>
    <path class="st7" d="M97.4,24.4s.2,0,.2,0c.6.2,1.2.4,1.2.6.4,2.9.3,4.6-3.3,10.7s-6.5,6.3-9,12c-2.5,5.7-2.1,6.7-5.3,10.1-2.5,2.7-3.4,3.9-4.3,6.4,1-.3,2.1-.6,3.6-1.4.7-.4,1.3-.8,1.9-1.1,2.2-1.5,3.5-3,6.5-6.1-7.1,4.6.8-7.8,7.5-15.1,6-6.6,9.6-16.6,8.2-19-2.9.9-6,1.5-7.7,1.7,0,.4.6.8.5,1.2h0Z"/>
    <path class="st2" d="M115.6,17c-1.9.2-3.8.2-5.6.2v1.7s0,0-.1,0c0,0,0,.1,0,.2,0,.2,0,.3.1.5,0,.4.2.8-.4,1-.4,1-1.4,2.4-4.6,9.3-3.2,6.9-5,8.6-9.4,15.2-3.6,5.4-1.7,4.6-3.7,7.1.1.6.2,1.2.3,1.7.2,1.5.3,2.7.5,3.9,1.4-2.6,3.5-5.4,4.4-7,.1-.2.2-.4.3-.6.2-.5.2-.5.2-.3.5-.8,1-1.3,1.5-1.7,1.6-1.3,3.4-2.1,6.1-8.6,4.5-10.7,4.6-6.9,7.7-13.8,2.4-5.4,5.7-7.8,7.2-9.6-1.3.4-2.9.7-4.5.9h0Z"/>
    <path class="st2" d="M97.4,24.4s.2,0,.2,0c.6.2,1.2.4,1.2.6.4,2.9.3,4.6-3.3,10.7-3.7,6.1-6.5,6.3-9,12-2.5,5.7-2.1,6.7-5.3,10.1-2.5,2.7-3.4,3.9-4.3,6.4,1-.3,2.1-.6,3.6-1.4.7-.4,1.3-.8,1.9-1.1-2.2-.3.6-4.7,2.6-7.8,2.5-3.9,2.5-6.8,5.7-10.4,3-3.3,6.8-7.5,9.1-13.6,1.9-4.8.6-6.2,1-7.4-1.5.3-2.9.6-3.9.7,0,.4.6.8.5,1.2h0Z"/>
    <path class="st2" d="M57.7,26.8c-.9-.1-1.7-.2-2.6-.3.2.8-.1,1.3-1.5,1.4.6.5,1.1.9,1,.9,1.3.8-1.3,18.4-2.9,23.8-1.7,5.5-2.1,14.3-2.2,17.8-.1,3.5-.5-.9-.7-5.4-.3-4.5-1.2-7.7-1.2-7.7,0,0-.2,1.5-.9,5.6-.7,4-.6,7-2.1,9.4-1.5,2.4-.9,2.3-3.3,0-.9-.8-2-1.6-3.1-2.2.8,1.6,1.4,3.3,2,4.8,1.2,2.9,2.1,5,3.2,3.7,3.8-4.4,5.3-3.8,6.4.9,1.1,4.7,2.2,4.2,4.3,6.9,2.2,2.7,3.7,3.8,4.5,5.4.8,1.7-.7-2.2,3.2-7.7,1.6-2.3,3.4-4.6,5.1-7.1,2-2.8,3.9-5.7,5.4-8.7-3,4.4-6.1,5.7-9.5,8-4.1,2.8-5.5,10.6-6.6,9.1-.9-1.2-1.6-2.9-1.7-5-.1-4.8-2.9-5.6-2.9-13.5,0-7.9,1.2-9.6,2.9-13.6,1.8-4,.7-5.7,1.7-12.1.8-5.2.4-10.8,2.7-13.3,1.7,4.5-.1,12.7-1.4,16.1-1.2,3.3.1,6.3-1.3,10.5-1.1,3.3-.3,6.8.2,10.5,0-.5,0-1,0-1.6,0-.2,0-.4,0-.6-.1-2.4.3-3.9.8-5.1.4-1,1-1.8,1.3-2.9.4-1,.6-2.3.4-4.1-.6-5.9,2.1-7,2.3-12.9.1-2.6.3-4.1.5-5.1,0-.3.1-.5.2-.7,0-.2.1-.4.2-.6,0-.3.2-.5.2-.7,0-.2,0-.3.1-.5.2-.3,1.5-.8,2.4-1.3,0,0,.5-.2,1-.4-1.6-.3-4.8-.9-8-1.5h0Z"/>
    <path class="st2" d="M82.5,27.6c.6.2,1.4.5,1.2.7.5,1.2.6,3.5-1.6,9.3-.6,1.5-1.2,3.1-1.8,4.6-.4,1-.8,2-1.2,3-1,2.3-1.7,4.1-1.9,4.7,0,.2,0,.3,0,.2,0,0,0-.1,0-.2,0-.1.1-.3.2-.6-2.5,6-3.1,10.7-2.7,9.5.4-1.3,2.3-4.8,5.3-10.8,2.9-6,3.6-7.9,4.8-11.8,1.2-3.9,2.2-9.2,5.6-9.4-3,.2-5.8.2-7.1.2-.3,0-.6,0-.9-.1l.3.7h0Z"/>
    <path class="st4" d="M30.2,43c1.2,4.4,3.1,5.3,4.4-2,.9-5.2.7-3.1,1.1.8.2,1.6,0,3.4.8,5.2,2.5,6,1.8,12.3,3.4,17.6,1.3,3.8,2.4,5.5,3.1,1.2,0-.5.1-.9.2-1.2-.3-1.9.6-8-1.2-11.2-1.7-3.1-.7-6.8-.7-7.4s1.6,5.4,2.1,5.4c.5,0,2.4-4.5,2.5-9.5.1-4.2,1.3-8.6-1-10.3-4,.2-8.8.4-11.3.4s-.4,0-.5,0c-.1,0-.2,0-.2,0-.2,0-.4,0-.5,0-3.5,0-3.3,7.1-2.1,11.2h0Z"/>
    <path class="st4" d="M63.3,39.3c.3,2.8-2.4,6-2.6,8.8s2.9,0,3.4-.6c.5-.6-.7,5.9-3.6,9.8-2.9,3.8-1.9,7.8-2.1,10.9-.3,3.1-1.8,4.8-1.8,9.2,0,4.1.4,4.9.9,3.2.4-1.3,1.2-4.3,2.4-7,.3-.8.7-1.6,1.1-2.3-.4.7-.8,1.5-1.1,2.3,1.8-5.1,2.4-5.5,5.9-9,3.5-3.4,3.8-5.7,4.4-11.7.6-6,4.4-7.7,4.2-11-.2-3.2,2.4-9.3.8-10.7-2.3,0-4.9,0-7.2-.3-2.2.2-5,5.6-4.7,8.4Z"/>
    <path class="st2" d="M13.8,17.1c.3,0,1.1-.5,1.6-.7-6.2-1.3-10.7-3.4-12.6-4.8-.6-.4-1-.7-1.3-1,.3,2.1,1,5.3,3.4,10.2.2.5,1.2,2.3,1.4,2.8.4,1,.4,2.1.6,3.2.1,1.1.5,2.2,1,3.3,1,2.2,2.6,4.2,3.6,6.4,1,2.2,1.5,4.6,2.7,6.8,1.2,2.3,3,4.3,3.9,6.7.5,1.2.8,2.4,1.3,3.5.5,1.1,1.2,2.1,2,3,.8.9,1.7,1.8,2.4,2.7.8,1,1.3,2,2.1,3,1.5,2,1.6,3.8,3,5.9.2.3,4.4,3.4,4.5,3.7.3-1.1-1.7-4.8-1.6-5.6-1.4-1.7-3-3.9-4.7-6.5-.8-1.3-1.5-2.3-2.1-3.2-4.8-7.2-2-2-5.9-9.7-4.3-8.7-3.5-9.2-6.3-15-2.8-5.8-5.6-11.2-4.5-12.5,0-.2,0-.4.6-.5,0,0,.1,0,.1,0,1-.3,3.3-1,4.9-1.7h0Z"/>
    <path class="st10" d="M26.5,41c1,5.5,4.7,6.7,7.1,9.5,1.2,1.4,2.1,3,2.9,4.9.4.9.8,2,1.2,3.1.4,1.1.8,2.3,1.2,3.6.3.8.5,1.6.8,2.3-1.6-5.2-.8-11.6-3.4-17.6-.7-1.7-.6-3.6-.8-5.2-.4-3.8-.2-6-1.1-.8-1.3,7.4-3.1,6.5-4.4,2-1.2-4.2-1.4-11.2,2.1-11.2-.7,0-1.5-.2-2.2-.4-2.4-.6-4.4-1.7-5.3-2.3-.2-.1-.3-.2-.4-.3,0,0,0,0,0-.1-.6.4,1.1,6.7,2.1,12.3h0Z"/>
    <path class="st10" d="M45.8,41.8c-.2,5-2,9.4-2.5,9.5-.5,0-2.1-5.9-2.1-5.4s-1,4.2.7,7.4c1.7,3.1.8,9.2,1.2,11.2.2-1.1.3-1.6.5-2.1.1-.5.2-.8.2-1.5,0-.2,0-.5,0-.9,0-.5,0-1.2,0-2.1-.1-3,.2-3.9.8-5.1.3-.7.7-1.5,1.2-2.8.2-.5.3-1.1.5-1.9.3-1.4.6-2.5.8-3.2.2-.8.3-1.3.4-1.9,0-.1,0-.3,0-.4,0-.3.1-.6.2-.9.1-.8.3-1.8.7-3.4,0-.3.1-.6.2-.9.1-.6.3-1.1.4-1.5.1-.4.3-.8.4-1.2.5-1.4,1-2,1.2-2.6,0-.2.1-.5.1-.8-.3,0-.7,0-1.1,0-1.2,0-2.8.1-4.6.2,2.2,1.7,1.1,6.1,1,10.3h0Z"/>
    <path class="st10" d="M61.9,31.7c0,.2-.1.5-.2.7-.2,1-.4,2.5-.5,5.1-.2,5.9-2.9,7-2.3,12.9.2,1.8,0,3.1-.4,4.1-.4,1-.9,1.9-1.3,2.9-.5,1.2-.9,2.7-.8,5.1,0,.2,0,.4,0,.6,0,.6,0,1.1,0,1.6,0,.9.1,1.6.1,2.1,0,.3,0,.6,0,.9,0,0,0,.1,0,.2,0,1.1,0,2.4,0,5.9,0,1.4,0,2.5,0,3.5,0-4.4,1.5-6.1,1.8-9.2.3-3.1-.8-7.1,2.1-10.9,2.9-3.8,4.1-10.3,3.6-9.8-.5.6-3.7,3.5-3.4.6.3-2.9,2.9-6,2.6-8.8-.3-2.8,2.5-8.2,4.7-8.4-.8,0-1.7-.1-2.4-.2-.8,0-1.5-.2-2.1-.4-.4,0-.8-.2-1.1-.3,0,.2,0,.3-.1.5,0,.2-.1.5-.2.7,0,.2-.1.4-.2.6h0Z"/>
    <path class="st10" d="M74.4,41.8c.2,3.2-3.6,4.9-4.2,11-.6,6-.9,8.3-4.4,11.7-3.5,3.4-4.1,3.9-5.9,9,.3-.8.7-1.6,1.1-2.3.4-.7.8-1.3,1.3-1.8,2.5-2.8,7.9-3.5,9.2-11.2.2-1,.4-1.8.6-2.7.1-.4.2-.8.3-1.2.4-1.1.7-2.1,1.1-3.1.3-.6.5-1.2.8-1.7.3-.6.5-1.1.8-1.6.7-1.5,1.4-3,1.7-4.6.8-4.4,4.6-10.8,4.2-12.1-.7,0-1.6,0-2.6,0-1,0-2.1,0-3.2,0,1.6,1.4-1,7.4-.8,10.7h0Z"/>
    <path class="st7" d="M108.2,27.7c-1.8,3.2-3.5,8.6-7.2,14-1.9,2.9-2.7,5.8-1.8,6.3,1.6-1.3,3.4-2.1,6.1-8.6,4.5-10.7,4.6-6.9,7.7-13.8,2.4-5.4,5.7-7.8,7.2-9.6-1.3.4-2.9.7-4.5.9-2.6,1.7-5.8,7.8-7.4,10.8Z"/>
    <path class="st8" d="M16.6,8.1C12.7,8.6,1,10.3,0,11.1c-1,.7,11.4,4.9,11.9,5,.5,0-7.7,2.6-4.8,3.9,3,1.3,12,3.3,12,3.3-.6-.1-2.9.9-1.6,1.7,1.4.9,8.3,1.9,8.3,1.9,0,0-3.7,1.5-3.2,2.5.5,1,4,2.9,9.2,3.1,5.2.2,19-.5,19.6-1.3.4-.6-2.1-1.9-2.1-1.9,0,0,8.4.6,7.3-.8-.5-.6-2.3-1.5-2.3-1.5l9.4,1.7s-3.7,1-2.8,2c.9,1.1,19.5,1.8,21.1,1.1,1.6-.6-1.9-1.9-1.9-1.9,0,0,6.4-.2,4.6-1.4-1.2-.8,16.9-1.2,15.3-3.2-.6-.7-2.5-1.6-2.5-1.6,0,0,11.3-1.4,14-3.4,1.6-1.1-.2-1.8-.2-1.8,0,0,15.4-1.9,9.6-4.9-5.8-3-51-10.7-56-11.1-17.8-1.6-30.9,3.4-48.5,5.7h0Z"/>
    <path class="st0" d="M18.1,23.9c0,.7,12.5,2.3,12.5,2.3,0,0-5.7,1-6.3,1.9-.7.9,3,2.9,9.3,3s15.2-.6,15.5-1c.2-.4-2.4-2.2-2.4-2.2,0,0,7.6.4,8.4,0,.9-.4-3.6-2.7-3.6-2.7,0,0,15.3,2.6,16.1,2.7.8,0-4.8.7-5.3,1.6-.5.9,17.3,1.4,17.8,1.3.5-.1-3.8-1.8-3.8-1.8,0,0,4.9-.5,6.2-.6,1.3,0-2.3-2.4-2.3-2.4,0,0,10.2.5,17.4-1.4,1.3-.3-3-2.2-3-2.2,0,0,13.6-1,15.7-3.3.9-1-4.7-1.6-4.7-1.6,0,0,22.4-2,12.2-5.1-12.4-3.5-48.1-9.5-52.5-9.9-17.8-1.6-30.9,3.4-48.5,5.7-2.8.4-9.7,1.4-13.7,2.2,0,0,0,0,0,0-2.7,1.6,12.1,5.3,12.1,5.3,0,0-3.9.8-6.5,2.3-2.8,1.6,14.3,4.4,14.3,4.4,0,0-2.1.4-3.5.8-.6.2-1.1.4-1.1.7Z"/>
    <path class="st9" d="M64,3.8c-2.2-.2-4.9-.2-8.5.2-2.3.2-46.5,5.7-45.6,7.6.9,1.9,36.5.5,50.5-1.8,15.6,2.4,42.1,4.2,45.6,2.9,1.5-.6-38.9-8.6-41.9-8.9h0Z"/>
    <path class="st9" d="M41.4,26.4c-5.4-1.1-12.9,0-12.9,1.5s23.1.5,12.9-1.5Z"/>
    <path class="st9" d="M77.6,25.2c-5.9-1.5-20.1-1.6-20.1-1.4-.1.3,4.3,1.8,9.9,2.2,5.8.5,14,.2,10.2-.8Z"/>
    <path class="st9" d="M79.9,19.5c-1.2-.2-2.3-.4-3.5-.5-23.5-2.9-49.8,2-50,2.6-.2.6,1.6,1.2,2.2,1.4,2.7,1,8,2,14.7,2.3,0,0,3.3.1,5.2-.1,1.7-.2-.3-1.6-3.1-2.6,29.1,1.2,42.4-.5,43.8-.9.8-.3-9-2.1-9.5-2.1h0Z"/>
    <path class="st9" d="M64,14.5c6.3-3-20.5-3.1-28.9-1.6-.1,0-7,.8-12.2,2.1-4.6,1.1-7.9,2.8-6.8,3.2,3,1.2,42.5-1.1,47.9-3.6Z"/>
    <path class="st9" d="M69.8,13.3c-6.2-.1,22.1,6.9,30.9,5.3,8.8-1.6,1.7-4.7-30.9-5.3Z"/>
  </g>
</svg>