<?xml version="1.0" encoding="UTF-8"?>
<svg id="Layer_1" xmlns="http://www.w3.org/2000/svg" version="1.1" viewBox="0 0 134 80">
  <!-- Generator: Adobe Illustrator 29.6.1, SVG Export Plug-In . SVG Version: 2.1.1 Build 9)  -->
  <defs>
    <style>
      .st0 {
        fill: #e38dff;
      }

      .st1 {
        fill: #fdcfff;
      }

      .st2 {
        fill: #08145a;
      }

      .st3 {
        fill: #b00ff2;
      }

      .st4 {
        fill: #0f001c;
      }

      .st5 {
        fill: #3a0060;
      }

      .st6 {
        fill: #541989;
      }

      .st7 {
        opacity: .2;
      }

      .st8 {
        fill: #21003a;
      }

      .st9 {
        fill: #fff0fb;
      }

      .st10 {
        fill: #ae3fef;
      }

      .st11 {
        fill: #f0b3ff;
      }

      .st12 {
        fill: #7816b7;
      }
    </style>
  </defs>
  <path class="st2" d="M132,14.2s0,0,0,0c-1.2-.8-3.3-1.8-6.3-2.9,0,0,0,0,0,0,0,0-.2,0-.3,0-.3-.1-.6-.2-.9-.3-.3-.1-.6-.2-1-.3-.3,0-.6-.2-.8-.3-.3,0-.5-.2-.8-.3-.3-.1-.6-.2-1-.3-.4-.1-.8-.2-1.2-.4-.4-.1-.7-.2-1.1-.3-.3,0-.6-.2-.9-.3-.4-.1-.7-.2-1.1-.3-.4-.1-.8-.2-1.2-.3-.5-.1-1-.3-1.5-.4-.3,0-.7-.2-1-.2-.4-.1-.9-.2-1.4-.3-.3,0-.6-.1-.9-.2-.7-.2-1.4-.3-2.2-.5-.3,0-.7-.1-1-.2-.5-.1-1.1-.2-1.6-.3-.3,0-.7-.1-1-.2-.4,0-.9-.2-1.4-.3.5,0,.7,0,.7,0,0,0-19.4-4.1-29.2-4.9-5.1-.4-11.4-1.7-33.1,1.8C21,5.8,7.4,11.4,5.9,12c-1.5.5-2.8.9-3.6,1.2,0,0,0,0,0,0-1.2.5-1.7.8-1.3.9.2,0,.8.2,1.5.5l.2.5c.6,2.2,1,5.2,5.3,9.4,6.4,6.3,4.7,3.4,10.2,12.1,3.7,5.8,4.8,5.3,7,6.7,1,.7,2.3,1.8,4.2,4.3,2.6,3.4,3.5,5.4,4.5,6.8,1.1,1.7,2.4,2.7,6.9,4.8,6.1,2.8,8.8,10.2,9.4,7.8,0-.2.1-.6.1-1,.3-8.7-8.5-12.8-8.6-17.5,0,0,0,0,0,0h0c0-1.1,0-1.6-.2-2,.2,0,.3,0,.5-.1,2.5,3,4.4,4.9,6.2,5.9,1,3.2,2.3,5.9,4.6,7.1,2.3,1.2,4.3,2.5,6.1,4.1.4.4.9.8,1.3,1.2.3.4.7.7,1,1.1.1.2.3.3.4.5.2.3.5.6.7.9.1.2.2.3.4.5.2.4.5.7.7,1.1,0,0,0,.1.1.2.3.5.6,1,.8,1.5.2.3,2.2,3,2.2,3,.3.5.6,1,.9,1.4,1.2,1.6,2.3,2.3,2.5,3.8.3,1.9.6-1.4,1.5-4.8,0,0,1.2-1.5,2.8-2.9.2-.2.4-.3.6-.5.1,0,.2-.2.3-.3.2-.2.5-.4.7-.6,0,0,.1,0,.2-.1,1.9-1.3,3.9-2.3,5.6-2.9.3,0,.6-.2.9-.3,6.4-2.1,18.2-7.4,22.2-14.6,1-1.9,2.2-3.5,3.5-4.9,1.9-2.2,5.2-4.8,7.6-6.6,2.2-1.7,4-3.8,5.1-6.3,1.9-3.9,4.7-9.9,6.2-12.4,1.2-1.9,2-3,2.5-3.9,1.2-.4,2-.9,3.4-2,.4-.3,0-.8-1-1.5Z"/>
  <g class="st7">
    <path class="st12" d="M129.2,16.6c-.5.1-2.6.6-3.8.5-1.3-.2-2.9-.6-4.4-.8-1.3-.2-2.6-.3-3.7,0-1,.3-.3,1.3-1.4,1.4,0,0-.2,0-.3,0-.9,0-1.9-.1-2.9-.4-2.6-.8-5.4-2.5-7.8-2,0,0,.2.1.3.2,1.3.8,5.7,2.6,6,3.9,0,.3,0,.8-.6,1-.5.2-1,.4-1.4.6-1,.3-1.7.4-2.3.3-.5,0-1,0-1.5.1-1.3.1-2.4.2-3.2.5-.6.2-1.1.4-1.7.6-.9.3-1.8.6-2.7.7-.9,0-1.7,0-2.6-.3-.6-.1-1.1-.3-1.7-.4-1.9-.5-3.9-.9-5.9-1.1-1.4-.2-2.8-.3-4.2-.3,3.2,1.2,4.3,2.4,5.1,3.7.5.8.4,1.9-.7,1.6-1.4-.4-3.4-.2-5,0-.3,0-.6,0-.9.1-2.7.5-5.3,1.2-8,1.4-.4,0-.8,0-1.3.1-1.7.2-3.4.7-5.1,1.2-.4.1-.9.2-1.3.3-2,.3-4.5.2-6.8,0-.9,0-1.8-.2-2.5-.2-1.2,0-3.8-.4-5.7-1.3-.8-.4-1.5-.8-1.9-1.4-.5-.7.4-1.4.6-1.6.4-.5.9.3,2.6-.9-1-.2-2.8-.5-4.8-.8-.3,0-.6,0-.9-.1-1.3-.2-2.6-.3-3.7-.4-1.1,0-2.1,0-2.9.1-1,.2-1.7.6-2.7.6,0,0-.2,0-.3,0-1.7-.2-.4-2.3-.5-2.4-1.4-1-6.8-1.2-9.3-1.5-.2,0-.3,0-.5,0-1.2-.2-.3-1.8-1.9-1.8-.1,0-.4,0-.8,0-.8,0-2,0-2.3,0-.4,0-.6-.1-.8-.2-1.3-.6.9-2.4.9-2.7,0-.6-2.4-.2-4.5.2-.7.2-1.4.3-1.9.4-.4,0-.8.2-1,.2-2.9.4-4.1-.3-6-1.1-.8-.3-1.6-.6-2.7-.9-.7-.2-1.3-.2-2-.2-.8,0-1.4,0-2,0,1.3,2.2.5,5.7,5.9,11,6.4,6.3,4.7,3.4,10.2,12.1,3.7,5.8,4.8,5.3,7,6.7.1,0,.3,0,.4,0-.1,0-.2,0-.4,0,1,.7,2.3,1.8,4.2,4.3,2.6,3.4,3.5,5.4,4.5,6.8,1.1,1.7,2.4,2.7,6.9,4.8,6.7,3.1,9.4,11.7,9.6,6.8.3-8.7-8.5-12.8-8.6-17.5,0-1.1,0-1.7-.2-2,.2,0,.3,0,.5-.1,2.5,3,4.4,4.9,6.2,5.9,1,3.2,2.3,5.9,4.6,7.1,2.3,1.2,4.3,2.5,6.1,4.1.4.4.9.8,1.3,1.2,1.7,1.7,3,3.7,4.1,5.9.2.3,2.2,3,2.2,3,.3.5.6,1,.9,1.4,1.2,1.6,2.3,2.3,2.5,3.8.3,2.1.7-2,1.8-5.7,0,0,1.3-1.4,2.7-2.9,1.8-1.1,4.6-2.6,8.1-3.8,6.4-2.1,18.2-7.4,22.2-14.6,1-1.9,2.2-3.5,3.5-4.9,1.9-2.2,5.2-4.8,7.6-6.6,2.2-1.7,4-3.8,5.1-6.3,1.9-3.9,4.7-9.9,6.2-12.4,1.9-3.1,2.8-4.1,3.4-5.5-.3.2-.7.3-1.2.5h0Z"/>
    <path class="st8" d="M41.7,48.6c0-1.1,0-1.7-.2-2,.2,0,.3,0,.5-.1,2.5,3,4.4,4.9,6.2,5.9-1.5-4.7-2.6-10.3-5.8-13-5.4-4.5-5-11.3-4.9-15.7-1.7-.2-.4-2.3-.5-2.4-1.4-1-6.8-1.2-9.3-1.5-.2,0-.3,0-.5,0-1.2-.2-.3-1.8-1.9-1.8-.1,0-.4,0-.8,0-.8,0-2,0-2.3,0-.4,0-.6-.1-.8-.2-1.3-.6.9-2.4.9-2.7,0-.6-2.4-.2-4.5.2-.7.2-1.4.3-1.9.4-.4.1-.8.2-1,.2-2.9.4-4.1-.3-6-1.1-.8-.3-1.6-.6-2.7-.9-.7-.2-1.3-.2-2-.2-.8,0-1.4,0-2,0,1.3,2.2.5,5.7,5.9,11,6.4,6.3,4.7,3.4,10.2,12.1,3.6,5.7,4.8,5.4,6.9,6.7,0,0,.1,0,.2.1,1,.7,2.3,1.8,4.1,4.2,2.6,3.4,3.5,5.4,4.5,6.8,1.1,1.7,2.4,2.7,6.9,4.8,6.7,3.1,9.4,11.7,9.6,6.8.3-8.7-8.5-12.8-8.6-17.5h0Z"/>
    <path class="st8" d="M129.2,16.6c-.5.1-2.6.6-3.8.5-1.3-.2-2.9-.6-4.4-.8-1.3-.2-2.6-.3-3.7,0-1,.3-.3,1.3-1.4,1.4,0,0-.2,0-.3,0-.9,0-1.9-.1-2.9-.4-2.6-.8-5.4-2.5-7.8-2,0,0,.2.1.3.2,1.3.8,5.5,2.7,5.8,4,0,.3.2.7-.4,1-.5.2-1,.4-1.4.6-1,.3-1.7.4-2.3.3-.5,0-1,0-1.5.1-1.3.1-2.4.2-3.2.5-.6.2-1.1.4-1.7.6-.9.3-1.8.6-2.7.7-.9,0-1.7,0-2.6-.3-.6-.1-1.1-.3-1.7-.4-3.3-.9-6.7-1.3-10.1-1.4,3.2,1.2,4.3,2.4,5.1,3.7.5.8.4,1.9-.7,1.6-.3,1.8-1.9,5.2-2,8.7,0,4.4-4,18-4.8,21.4-.6,2.8-4.7,7.7-7.2,11.3-.5.8-1,1.5-1.4,2.1-.5.9-1.2,2.5-1.5,4.1,0,0,2.3-2.9,4.6-4.4,2.2-1.5,4.7-2.6,6.4-3.2,6.4-2.1,18.2-7.4,22.2-14.6,1-1.9,2.2-3.5,3.5-4.9,1.9-2.2,5.2-4.8,7.6-6.6,2.2-1.7,4-3.8,5.1-6.3,1.9-3.9,4.7-9.9,6.2-12.4,1.9-3.1,2.8-4.1,3.4-5.5-.3.2-.7.3-1.2.5h0Z"/>
    <path class="st5" d="M28.8,31.2c-.4-1.9-1-3.5-1.5-5,0-.1-2-5-4.4-6.2.8,1.3,1.7,3.3,2.7,6.7.4,1.4.7,2.7,1,3.8.9,4.2,1.6,7.1,6,9.6.8.4,1.5.9,2.1,1.4-.5-.4-4.2-3.2-5.9-10.3h0Z"/>
    <path class="st5" d="M9.3,18.3c1.8,2.8,1.4,4.8,3.7,8.4,2.9,4.6,5,7.6,5.8,8.3.8.7-1.9-5.7-2.9-8.6-.3-1-1.3-3.5-1.3-3.5-1.2-3.8-3.7-4.3-5.3-4.5h0Z"/>
    <path class="st6" d="M66.2,73.4c-.8-1.5-2-4.4-2.2-7.2-.4-5.5-4.2-9.2-5.4-10.8-3.4-4.6-5-8.1-4.3-14.7.4-3.2-1.3-7-2.8-10-.7-1.4-1.4-2.6-1.8-3.4-.1-.1-.3-.3-.4-.4-.5-.7,2.5-2.1,3.2-2.5-.2,0-.5,0-.8-.1-1-.2-2.5-.4-4-.7-.3,0-.6,0-.9-.1-1.3-.2-2.6-.3-3.7-.4l-5.3-.3c-.3,0-.6.2-.6.5v2.5c1.1.7,2.7,1.2,4.4,1.4-.2,2.2,0,4.7,1.1,6.9,2.3,5.1,2.3-1.5,2.9-3.7.3-1.1,3,8,2.5,10.8-1.2,6.6,2.4,15,4.3,16.6,1.4,1.2,4.8,4,6.3,6,.4.4.9.8,1.3,1.2.2.2.3.3.5.5,0,0,0,0,.1.1.8.9,1.5,1.8,2.1,2.8.5.8.9,1.5,1.3,2.3.2.3,2.2,3,2.2,3,0,0,0-.2-.1-.3h0Z"/>
    <path class="st3" d="M71.6,32.3c-1.4.2-2.8.4-3.8.8,1,5,0,12.5,1.4,17.2.8,2.6,1.8,8.9,1.8,11,0,2.2.8-.9.8-5,0-2.6-.8-5.7-.9-7.9-.1-3.5-.1-11,.7-16.1h0Z"/>
    <path class="st3" d="M65.2,57.7c0-5.7-1.1-14.1-1.3-14.5-.2-.4-.2,11.5-4.1,7.9-3.9-3.7-2.6-10-2.3-13.4.2-1.7.3-3.8.8-5.6-2.1-.3-4.6-.7-6.7-1.5,1.5,3,3.1,6.9,2.8,10-.8,6.6.9,10.1,4.3,14.7,1.2,1.6,5,5.4,5.4,10.8.2,3,1.6,6.1,2.3,7.5.3.5.6,1,.9,1.4,1.2,1.6,2.3,2.3,2.5,3.8,0-2.9-.2-3-2.3-5.5-2.1-2.4-2.2-9.9-2.3-15.6h0Z"/>
    <path class="st3" d="M83.6,30.5c0,3.5-.7,6-.7,8.8s-2.7,14.7-4.4,19.1c-1.4,3.4-3.6,7.3-4.3,9.3,2.5-3.6,6.5-8.5,7.2-11.3.8-3.4,4.7-17,4.8-21.4,0-2.2.7-4.4,1.2-6.1-1.1.4-1.3.9-3.7,1.6h0Z"/>
    <path class="st6" d="M82.2,26.6c-2.7.5-5.3,1.2-8,1.4-.4,0-.8,0-1.3.1-.6.9-1,2.4-1.3,4.2.1,0,.3,0,.4,0,.3,0,3-.3,3.8,4.4.6,3.3.7,7.5.5,11.7-.3,7.1-2.1,14.4-1.7,14.7.8.6,3.1-7.3,3.7-9.5,0-.3,1.6-17.2,2.9-21,.5-1.5,1.8-1.9,2.2-2,0,0,0,0,.1,0,0-1.6-.1-3.1-.6-4.1-.3,0-.6,0-.9.1h0Z"/>
    <path class="st6" d="M66.5,29.6q.3,0,0,0c-2,.3-4.5.2-6.8,0-.6.6-1,1.5-1.3,2.5,1.8.2,3.2.3,3.9.4,2.7.5,2.6,9.8,3.1,7.3.4-2.1.7-6,1.6-6.5.2-.1.5-.2.8-.3-.3-1.4-.7-2.6-1.4-3.5Z"/>
    <path class="st5" d="M64,66.1c-.4-5.5-4.2-9.2-5.4-10.8-3.4-4.6-5-8.1-4.3-14.7.4-3.2-1.3-7-2.8-10-.7-1.4-1.4-2.6-1.8-3.4-.1-.1-.3-.3-.4-.4-.5-.7,2.5-2.1,3.2-2.5-.2,0-.5,0-.8-.1-1-.2-2.5-.4-4-.7-.3,0-.6,0-.9-.1-1.3-.2-2.6-.3-3.7-.4-.8,1-1.3,2.4-1.5,4.1,1.4.1,1.4.4,2.8,0,3.1-.8,6,8.2,5.8,16-.1,4.7,1.3,7.6,2.6,9.8.7,1.8,1.6,3,3.4,4.7,3.1,3,4.9,5.9,3.8,7.4.2.2.3.3.5.5,0,0,0,0,.1.1.8.9,1.5,1.8,2.1,2.8.5.8.9,1.5,1.3,2.3.2.3,2.2,3,2.2,3,0,0,0-.2-.1-.3-.8-1.5-2-4.4-2.2-7.2Z"/>
    <path class="st5" d="M105.2,45.3c-5.3,7-12,13.2-18.5,14.9-3.6.9-7.3,4.1-9.9,6.8-2,2.2-3.3,4.3-3,4.2.7-.6,1.4-1.2,2.1-1.7,2.2-1.5,4.7-2.6,6.4-3.2,4.4-1.4,11.5-4.4,16.7-8.5,3.5-4.6,6-10,6.7-12.3.4-1.2.4-1.5-.5-.3h0Z"/>
    <path class="st4" d="M42,46.5c2.5,3,4.4,4.9,6.2,5.9-1.5-4.7-2.6-10.3-5.8-13-4.5-3.7-5-9-5-13.2,0-.9,0-1.7,0-2.5-1.7-.2-.4-2.3-.5-2.4-1.4-1-6.8-1.2-9.3-1.5,2.6,3.3,2.1,4.5,6.3,13.5,4.5,9.5,4.1,8.5,8,13.2Z"/>
    <path class="st4" d="M23.5,15.2c1.9-.8.2-.9-1.1-.8-3.3.3-7.5.4-10,.4-1.7,0-4-1.1-6.2-1.5-1-.2-4.1.2-4.1.2l.6,1.6c.1.5,2.9.5,3.8,2.1.9,1.5,3.3,6.9,3.7,7.4.3.5-2.9-7.9-1.7-7.7,1.2.2,4.2.6,6.9,1.1,2.8.5,7.3,12.5,7.3,12.5,0,.3.2.6.3,1,0,.1,0,.2.1.3.1.3.2.7.4,1,.1.4.3.8.5,1.2.8,2.1,2.5,4.5,3.5,6.5,0,.1.1.3.2.4.1.3.2.5.3.7,0,.1,0,.2.1.3.2.6.2,1.1-.1,1.4-.1,0-.2.2-.4.2,0,0-.2,0-.3,0-.1,0-.2,0-.4,0-.1,0-.3,0-.4,0-.2,0-.4,0-.6,0-.2,0-.5,0-.7-.1,1,.7,2.3,1.8,4.2,4.3,2.6,3.4,3.5,5.4,4.5,6.8,1.1,1.7,2.4,2.7,6.9,4.8,6.7,3.1,9.4,11.7,9.6,6.8.3-8.7-8.5-12.8-8.6-17.5,0-1.1,0-1.7-.2-2-1.6,0-3.1-2.5-6.7-5.1-.7-.5-1.4-.9-2.2-1.4-4.5-2.5-5.1-5.4-6-9.6-.3-1.2-.6-2.5-1-3.8-1.3-4.4-2.4-6.4-3.4-7.7l-.6-1.4s.8-1.9,1.9-2.3h0Z"/>
    <path class="st5" d="M129.9,16.4c-.2,0-.4.1-.7.2,0,0,0,0,0,0-.1,0-.3,0-.6.1-.3,0-.6.1-1,.2-.7.1-1.6.2-2.2.1-1.3-.2-2.9-.6-4.4-.8.7,1.1.6,2.4.2,3.9-.3,1-.5,1.9-.7,2.9,0,.5-.2,1.1-.3,1.6-.2.9-.4,1.9-.5,2.8,0,.9,0,1.9,0,2.8,0,.9.3,1.8.6,2.7.1.4.3.8.5,1.2,0,0,0-.2.1-.3.2-.5.5-1,.7-1.6,1.8-3.8,4.2-8.6,5.5-10.8,1.2-1.9,2-3,2.5-4,.2-.4.4-.7.6-1,0-.2.2-.3.2-.5-.2,0-.3.2-.5.3h0Z"/>
    <path class="st5" d="M89.5,52.7c1.4,0,3.8-1.4,5-2.2.3-.2.6-.4,1-.6,8-4.8,12.8-24.5,16.1-29.5-.2-.8-.5-1.3-.9-1.5.2.2.3.3.3.5,0,.3.2.7-.4,1-.5.2-1,.4-1.4.6-1,.3-1.7.4-2.3.3-.5,0-1,0-1.5.1-.9.8-2.2,2.5-3.5,6-2.5,6.6-6.1,18.3-5.6,16.7.2-.6.3-3.7,1.2-7.3,1.3-5.3,3.2-11.8,3.1-14.2-.9.3-1.8.6-2.7.7-.6,0-1.2,0-1.8-.1-5.6,4.1-9.2,29.5-6.7,29.6h0Z"/>
    <path class="st5" d="M113.9,19.9c0,.5,0,1,0,1.4,0,.7,0,1.3.3,2,.1.4.3.7.6,1,1.1-2.7,1.9-5,2.1-6.2,0,0,.3-.8.4-1.9-.9.3-.3,1.2-1.3,1.4,0,0-.2,0-.3,0-.5,0-1.1,0-1.7-.1.1.6,0,1.4,0,2.3h0Z"/>
    <path class="st9" d="M77.8,2.4c8.2.9,26.3,3,26.3,3,0,0-19.4-4.1-29.2-4.9-5.1-.4-11.4-1.7-33.1,1.8C19.8,6,5.8,12.1,5.8,12.1,5.8,12.1,58.1.2,77.8,2.4h0Z"/>
    <path class="st10" d="M1,14.1c.7.2,5.4,1.6,8.1,2.5,2.7.9,8.5-.1,11.8-.4,3.3-.2-3.3,1.4-.7,2.5.7.3,4.8-.4,5.2.4.5,1.1,8.8,2.3,10.2,2.6s-3.4,3.6,2.5,2.9c5.9-.7,10.6.5,12,0,.7-.2-1.7,1.7-.7,3.1,1.1,1.5,5.8,2.6,14.4,2.6,16.4,0,24.9-3,26.7-3.9,1.9-.9-3.9-4.3-3.9-4.3,0,0,2.2,0,4.6.5,2.8.4,5.9,1.1,7.7.9,8.1-.9,14.6-1.4,13.2-3.5-1.4-2.1-2.4-2.5-2.4-2.5,0,0,5.8,1.7,7.1,1.1,1.3-.6-.2-1.7,1.2-1.6,1.4,0,7.7,1.5,10,.9,2.3-.6,3-1,5-2.4,2-1.4-14.9-9.6-53.8-14C53.6-1.1-2.3,13.1,1,14.1Z"/>
    <path class="st0" d="M26.1,17.2c.6,0,1.9,0,2.3.1.4.2,0,.5-.5.9-.9.9,7.3,1.8,9.7,2.2,2.3.4-.3,1-1.4,2.3-.2.3.5.7,1.8.9,2.1.2,5.8-.4,9.2-.5,4.1-.1,6.6.7,5.4,1.3-1.2.6-2.5,1.4-2.5,2,0,1.2,7.3,1.9,15.4,2.1,7.6.1,19.7-1.7,22.6-3.1,1.1-.5-1.5-2.2-3.3-3.6-.9-.6,4.1-1.2,10.5-.3,6.4.9,13.8-.7,14.9-1,1.1-.3-1.1-2.2-2.3-3.9-1.2-1.7,3.9.4,6.8.6,2.9.2,1.3-2.3,1.6-2.3s6.8,2.2,11,1.8c2.9-.3,5-1.3,4.9-2.5-4.4-3-21.3-8.9-52.6-12.4C56.9-.7,11.1,9.8,2.3,13.2c-1.4.9,6.8,2.3,10.3,2.2,2.5,0,6.7-.1,9.9-.4,1.3-.1,3,0,1.1.8-1.1.4-2.2.9-2.9,1.3-.1,0-.2.1-.3.2-1.1.7,2.7.4,5.6,0h0Z"/>
    <path class="st11" d="M26.7,13.2c4.6-.4.8.5,0,1.7-.8,1.2,6.4,1,6.4,1,0,0-2.4.7-2,1.7.4,1,16.7,1.8,16.7,1.8,0,0-6.2,1.1-5.9,2.2,0,.4,3.8,0,7.3,0,5.7,0,12.2,0,12.5,0,.4,0-5.1,1.5-6.2,2.9-1.5,1.8,28.3.7,27.7-1.6-1-3.7-12.5-4.1-12.5-4.1,0,0,18.1-.6,24.2.2,6.1.8,9.9-.4,9.1-1.7-.8-1.3-5.1-3.8-5.1-3.8,0,0,8.8.8,11.9,1.1,3.1.3-3.6-3.7-3.6-3.7,0,0,6.3,1.7,15.6,2.5,4.3.4,5.6-.4,3-2.1-8.2-3.1-23.4-6.9-46.2-9.5C59.3-.5,20.6,7.7,6.3,11.9c-.7.8.8,2.9,20.4,1.3h0Z"/>
    <path class="st1" d="M76.6,21.8c-2-.6-5.9-1-9.1-.6-3.2.4-5.6,1.6-5.7,2.1,0,1,19.5,0,14.7-1.6Z"/>
    <path class="st1" d="M100.5,5.5c-8.4-1.6-18.9-2.8-22.7-3.1-3-.2,24.5,6.8,33,6,.7,0-4.5-1.8-10.3-2.9h0Z"/>
    <path class="st1" d="M105.1,10.6c-.9-.4-27.4-8-33.7-8.1-6.3,0-29.7,2.6-29.6,4.3,0,.2.8.4,2.3.7,1.7,1,43.1,8.2,51.9,8.4,4.8.1-3.7-2.5-10.2-5,7.9.5,23.8,1.7,19.4-.3Z"/>
    <path class="st1" d="M36.9,16c-3.1,2,31.2,2.8,37.2.9,6-1.9-26-7.9-37.2-.9Z"/>
    <path class="st1" d="M35.6,7.4c-8.4-.4-24.3,3-23.6,4.2.7,1.1,23,0,25.9-1.5,3-1.5-.9-2.6-2.3-2.6h0Z"/>
  </g>
</svg>