<svg width="123" height="93" viewBox="0 0 123 93" fill="none" xmlns="http://www.w3.org/2000/svg">
<path d="M2.8877 10.2843C2.8877 10.2843 21.0482 5.63202 36.8409 2.8491C52.6336 0.0661859 58.271 -4.0304 117.564 12.3181C127.677 15.1055 14.3357 12.3981 14.3357 12.3981L2.8877 10.2843Z" fill="#FDE3FF"/>
<path d="M110.081 17.1221V18.4291C110.194 18.5602 110.216 18.7025 110.081 18.8536C109.912 19.0426 109.648 19.2182 109.346 19.3893C105.914 21.6655 99.7368 22.8013 96.9003 23.2192C96.9226 23.337 96.9958 23.4726 97.078 23.6104C97.5956 23.9682 97.8532 24.2883 97.3868 24.4106C96.3672 24.6773 95.2855 24.8907 94.1861 25.0685C93.4264 25.2152 92.669 25.3508 92.0959 25.433C90.0613 25.722 81.8828 26.2621 81.8828 26.2621L82.6825 28.0915L82.2716 28.1359L76.8585 28.7294L78.6465 29.8075C79.4662 30.1809 80.1236 30.5232 79.926 30.5788C79.4573 30.7099 61.6233 30.1431 62.1631 29.2718C62.4341 28.8361 63.9711 28.4538 65.3372 28.1715C63.1515 27.787 58.8091 26.9623 55.1019 26.2733C55.1174 26.3333 55.1441 26.3999 55.1552 26.4577C55.2307 26.8156 55.213 27.1068 55.0597 27.3291C55.1508 27.4713 55.1574 27.5891 55.0241 27.6558C54.8509 27.7447 54.3867 27.7981 53.7736 27.8292C53.6559 27.8381 53.5226 27.8425 53.3871 27.8448C53.3116 27.847 53.2294 27.8492 53.1495 27.8514C53.1184 27.8514 53.0962 27.8536 53.0651 27.8514C51.3347 27.887 48.9514 27.8025 47.6142 27.747C48.5049 28.7428 49.4734 29.9408 48.9692 29.9386C48.7537 30.3454 39.7956 31.0411 33.5185 30.91C29.4715 30.8255 26.5329 29.9697 25.1246 29.1362C24.8425 29.0117 24.5804 28.8806 24.3739 28.7272C22.6946 27.4891 26.655 26.3733 29.1916 25.8131C25.942 25.3708 18.0945 24.2439 18.0945 23.6904C18.0945 23.4726 18.5455 23.2414 19.163 23.0302C19.2474 23.0013 19.3318 22.9769 19.4117 22.9524C17.848 22.5901 15.7045 22.0433 12.8192 21.2253C7.58163 19.7405 8.29018 19.0559 8.7211 18.8559C8.0503 18.4847 7.85039 18.1268 8.40124 17.8067C9.68287 17.0665 11.2355 16.4975 12.5038 16.1063C5.12055 14.0458 1.38672 10.6538 1.38672 10.6538C1.69991 12.7988 2.40846 15.9107 4.75405 20.823C4.99838 21.332 5.95571 23.1725 6.12897 23.6259C6.52212 24.6573 6.56654 25.7398 6.69759 26.8023C6.83753 27.9315 7.21958 29.0362 7.6927 30.112C8.66336 32.3281 10.2915 34.333 11.2866 36.538C12.295 38.7719 12.7948 41.1081 14.0031 43.293C15.2492 45.5447 17.0084 47.6386 17.9302 49.9858C18.3877 51.155 18.732 52.3464 19.2207 53.5089C19.6783 54.5981 20.3913 55.5672 21.2375 56.5163C22.0461 57.4232 22.9279 58.2946 23.6786 59.2281C24.4538 60.1928 24.9891 61.2442 25.7444 62.2178C27.2925 64.2094 27.3236 66.0298 28.7008 68.0992C28.8829 68.3748 33.0654 71.4979 33.2253 71.7779C33.5141 70.6399 31.515 67.019 31.6305 66.1832C36.6327 72.3425 37.7544 68.9661 38.1808 69.9775C39.3314 72.8515 42.3145 79.7443 43.4139 78.4618C47.2122 74.0385 48.6693 74.692 49.8132 79.3487C50.9549 84.0054 51.9833 83.5631 54.1556 86.2237C56.3258 88.8844 57.8117 89.9758 58.6114 91.6406C59.411 93.3033 57.9273 89.4401 61.8121 83.8965C63.4203 81.6026 65.1817 79.2509 66.8986 76.8214C66.9009 77.7972 66.9964 78.8152 67.1452 79.7844C67.183 80.0355 67.6094 80.1311 67.8227 79.9355C68.6978 79.1397 69.8262 77.5349 70.7902 75.4722C70.9745 75.0432 71.1789 74.5675 71.4077 74.0252C73.2357 69.6996 75.0638 70.6977 76.2055 66.4833C76.4365 65.6275 76.6453 64.9051 76.8563 64.2694C77.8269 63.9715 78.9997 63.687 80.4702 62.8468C81.1698 62.4467 81.774 62.0733 82.3293 61.6976C84.5127 60.215 85.8721 58.7125 88.8485 55.6184C89.2794 55.1694 89.7436 54.6892 90.2501 54.1691C91.0875 53.3089 91.6761 52.6687 92.0959 52.1642C92.2314 52.7776 92.3269 53.3533 92.3602 53.8779C92.6023 55.3538 92.6579 56.603 92.9089 57.7366C94.3238 55.1693 96.3961 52.3197 97.2913 50.7149C97.3935 50.4948 97.4956 50.2926 97.5978 50.1036C97.8088 49.6102 97.8377 49.5768 97.791 49.7702C98.2619 48.9967 98.7417 48.5055 99.2526 48.072C100.805 46.7584 102.638 45.9915 105.339 39.521C109.81 28.8094 109.948 32.606 113.022 25.6909C115.423 20.2873 118.679 17.8645 120.174 16.0796C117.38 16.9998 113.357 17.1821 110.081 17.1065V17.1221Z" fill="#3A0060"/>
<path d="M83.6565 28.3426C84.1274 29.5563 84.2429 31.8369 82.0128 37.6516C81.4219 39.1876 80.8 40.7569 80.2003 42.2417C79.7916 43.273 79.3762 44.2866 78.9742 45.2513C78.0213 47.5697 77.2705 49.3612 77.0351 49.9836C77.0795 49.8458 77.1439 49.648 77.2239 49.399C78.1234 46.5916 81.0554 37.2449 81.895 34.1174C82.6391 31.3478 82.2571 29.5541 81.7151 28.9361C80.3002 29.1362 78.5211 29.1562 77.4371 29.0806L79.5339 30.3431C80.3002 30.6477 80.9621 30.9455 81.0843 31.2078C81.5063 32.517 77.6925 38.8808 76.8907 43.3175C76.0911 47.7541 73.0058 50.5259 71.6354 58.179C70.2649 65.832 64.894 66.6077 62.3952 69.3795C61.4734 70.402 60.6693 71.8957 59.9874 73.4761C58.8213 76.1768 58.0128 79.1397 57.5818 80.469C57.0265 82.1738 56.6978 81.4092 56.6511 77.2948C56.64 76.3257 56.6445 75.1699 56.6667 73.8162C56.7245 70.2909 56.7245 69.0639 56.6667 67.9347C56.6601 67.8836 56.6578 67.8214 56.6578 67.7458C56.6156 66.9856 56.549 66.2143 56.4557 64.754C56.4157 64.1427 56.3735 63.4092 56.3246 62.5045C55.9826 56.0718 59.4099 56.2941 58.8391 50.417C58.2682 44.54 60.8959 43.4309 61.1447 37.5538C61.3934 31.6768 62.1531 31.3434 62.3974 29.9431C62.5928 29.643 63.8856 29.1629 64.7963 28.6672C64.8762 28.6227 65.2805 28.4494 65.7581 28.2471C64.1854 27.9781 60.9581 27.3713 57.7218 26.7645C56.8622 26.6333 54.4411 26.1377 53.5881 26.0621C53.5881 26.0665 54.7965 28.705 54.6276 28.7339C54.6276 28.7339 53.928 32.8971 53.3705 36.1513C52.8107 39.4054 52.2532 43.3375 51.2759 46.0493C50.2985 48.7611 49.5989 51.0661 49.4589 54.3202C49.319 57.5744 47.9219 51.2017 49.4589 44.829C49.4589 44.829 51.9533 31.1167 51.6846 29.9453C51.5602 29.4029 51.2981 29.0228 51.0515 28.7672C50.5429 28.7583 50.052 28.7539 49.6433 28.7583C49.279 28.7583 47.5976 28.5671 47.1356 28.476C47.7264 29.2006 49.3878 30.272 49.6011 30.441C49.9631 30.7277 50.3074 31.0255 50.4962 31.3123C50.4984 32.7882 49.2302 33.1394 48.2017 38.3496C47.1733 43.562 47.5287 42.4351 46.1582 48.2009C44.7877 53.9668 43.4151 52.6376 43.6438 57.9589C43.8504 62.7868 43.6816 61.0463 43.053 64.4872C42.9886 64.8406 42.9197 65.2474 42.8442 65.7209C42.1712 70.0153 41.0939 68.2593 39.7456 64.4872C39.4924 63.7781 39.2303 62.998 38.9594 62.1733C37.2446 56.9609 35.9896 53.4133 33.5885 50.5282C31.1896 47.6452 27.5335 46.5361 26.5051 40.9902C25.4767 35.4444 23.8175 29.174 24.375 28.7316C24.4461 27.7581 26.363 27.0512 28.3798 26.4444C27.0004 26.1577 23.8108 25.822 22.1649 25.5664C19.1463 25.8798 22.7024 34.9643 23.7175 37.7117C24.7326 40.459 25.1679 46.0226 27.9977 48.77C30.3233 51.0261 29.808 51.9263 31.2385 53.8068C32.238 55.1182 33.0399 56.563 33.5752 58.1101C34.7146 61.3998 36.0385 66.0432 33.5996 63.9738C33.3419 63.5003 33.0732 62.9157 32.7889 62.1711C30.9608 57.4032 32.6756 59.2881 29.5903 55.6294C26.5051 51.9708 27.3047 52.1886 24.2639 46.7561C21.2231 41.3215 23.5331 41.4326 20.4501 36.2202C17.3649 31.0078 17.9357 26.2399 18.0357 24.9596C18.1334 24.8173 18.3378 24.6751 18.5932 24.5328C18.6287 24.5128 18.6665 24.4928 18.7043 24.4728C18.8575 24.3928 19.0241 24.3105 19.1929 24.2327C19.5794 24.0505 19.9792 23.8749 20.2591 23.7104C20.4945 23.6059 20.841 23.4792 21.2253 23.3459C19.6838 23.0458 17.0472 22.4256 12.8203 21.2275C14.8927 22.9102 16.6319 26.2066 18.4932 35.46C20.8877 47.3629 21.8584 45.6692 24.144 52.2931C24.144 52.2931 25.6588 56.1829 24.8681 56.5586C25.4478 57.4232 26.1408 58.4702 26.9693 59.7416C28.6596 62.3356 30.2211 64.4539 31.6338 66.1943C36.636 72.3536 37.7577 68.9772 38.1842 69.9886C39.3347 72.8626 42.3178 79.7555 43.4173 78.4729C47.2155 74.0496 48.6726 74.7031 49.8166 79.3598C50.9583 84.0165 51.9866 83.5742 54.159 86.2349C56.3291 88.8955 57.8151 89.9869 58.6147 91.6518C59.4143 93.3144 57.9306 89.4512 61.8154 83.9076C63.4236 81.6137 65.185 79.262 66.902 76.8325C68.8722 74.0429 70.7824 71.1466 72.3261 68.1081C72.6882 67.3946 73.0325 66.6767 73.3501 65.9476C76.2066 59.4037 77.6126 61.1353 81.1221 51.7907C83.5143 45.4202 84.4072 40.459 86.5773 36.8403C92.0082 27.7914 96.1684 26.1843 96.1707 26.1843C94.5359 26.4866 92.3236 26.7067 90.149 26.8489C87.1948 27.0423 84.3117 27.0957 83.0412 27.0201C82.7591 27.0001 82.4614 26.9556 82.1682 26.909C82.1682 26.909 82.939 27.5202 83.6587 28.3426H83.6565Z" fill="#21003A"/>
<path d="M97.3864 24.4129C97.4353 24.3929 97.5574 24.4573 97.5574 24.4573C98.1727 24.624 98.7213 24.8152 98.7302 25.093C99.1722 28.0137 99.059 29.6764 95.4029 35.7757C91.7468 41.875 88.8903 42.0973 86.3759 47.752C83.8616 53.4068 84.3147 54.4048 81.1184 57.8434C78.5707 60.5841 77.6911 61.7733 76.8604 64.2783C77.831 63.9805 79.0038 63.696 80.472 62.8558C81.1717 62.4557 81.7759 62.0822 82.3312 61.7066C84.5146 60.224 85.874 58.7214 88.8504 55.6273C81.7203 60.1951 89.6944 47.8053 96.398 40.4835C102.435 33.8908 106.042 23.8438 104.63 21.4966C101.738 22.4168 98.6703 22.9592 96.9 23.2192C96.9688 23.5771 97.4797 24.0683 97.3864 24.4106V24.4129Z" fill="#21003A"/>
<path d="M115.643 16.9533C113.775 17.1289 111.822 17.1623 110.081 17.1222V18.8538C110.047 18.8805 110.003 18.9049 109.97 18.9316C109.992 19.0027 110.016 19.0649 110.034 19.1405C110.074 19.3139 110.114 19.4873 110.154 19.6607C110.238 20.0319 110.314 20.4631 109.774 20.6765C109.39 21.6367 108.413 23.0526 105.199 29.9366C101.984 36.8205 100.17 38.5831 95.8384 45.0914C92.249 50.4839 94.1281 49.7326 92.0957 52.171C92.2312 52.7845 92.3267 53.3602 92.36 53.8847C92.6021 55.3607 92.6577 56.6099 92.9087 57.7435C94.3236 55.1762 96.3959 52.3266 97.2911 50.7217C97.3933 50.4995 97.4977 50.2972 97.5998 50.1082C97.8086 49.617 97.8375 49.5859 97.7909 49.7771C98.2617 49.0035 98.7415 48.5123 99.2524 48.0789C100.805 46.7652 102.637 45.9983 105.338 39.5278C109.81 28.8163 109.947 32.6128 113.022 25.6977C115.423 20.2919 118.679 17.8713 120.174 16.0864C118.863 16.5176 117.291 16.7888 115.643 16.9444V16.9533Z" fill="#0F001C"/>
<path d="M97.3864 24.413C97.4353 24.393 97.5574 24.4574 97.5574 24.4574C98.1727 24.6241 98.7213 24.8153 98.7302 25.0931C99.1722 28.0138 99.059 29.6765 95.4029 35.7758C91.7468 41.8751 88.8903 42.0974 86.3759 47.7521C83.8616 53.4069 84.3147 54.4049 81.1184 57.8435C78.5707 60.5842 77.6911 61.7734 76.8604 64.2784C77.831 63.9806 79.0038 63.6961 80.472 62.8559C81.1717 62.4558 81.7759 62.0823 82.3312 61.7067C80.1188 61.4511 82.9797 57.05 84.9499 53.9537C87.4177 50.0771 87.4177 47.1119 90.634 43.5733C93.6614 40.2436 97.4019 36.0536 99.7498 29.9388C101.602 25.1176 100.392 23.7617 100.774 22.5103C99.2544 22.8414 97.8773 23.0749 96.9 23.2193C96.9688 23.5772 97.4797 24.0684 97.3864 24.4107V24.413Z" fill="#0F001C"/>
<path d="M57.7222 26.7622C56.8626 26.631 56.0052 26.5221 55.1523 26.4443C55.33 27.2823 55.0146 27.7535 53.6685 27.838C54.2793 28.2892 54.7946 28.7004 54.6281 28.7293C55.963 29.574 53.3487 47.1139 51.6872 52.5775C50.0235 58.0411 49.5904 66.8388 49.4749 70.3731C49.3572 73.9073 49.004 69.4617 48.7463 64.925C48.4887 60.3883 47.5958 57.2075 47.5958 57.2075C47.5958 57.2075 47.3603 58.7435 46.6562 62.7911C45.9521 66.8388 46.0698 69.804 44.5416 72.1979C43.0134 74.5919 43.6021 74.4785 41.252 72.1979C40.3924 71.3644 39.2663 70.6086 38.1846 69.9863C38.9442 71.5422 39.6017 73.2649 40.2059 74.7741C41.3564 77.6482 42.316 79.7532 43.4177 78.4706C47.2159 74.0473 48.6731 74.7008 49.817 79.3575C50.9587 84.0142 51.9871 83.5719 54.1594 86.2326C56.3295 88.8932 57.8155 89.9846 58.6151 91.6495C59.4148 93.3121 57.931 89.4489 61.8158 83.9053C63.424 81.6114 65.1854 79.2597 66.9024 76.8302C68.8726 74.0406 70.7828 71.1443 72.3266 68.1058C69.3324 72.478 66.2027 73.7628 62.8687 76.0722C58.7573 78.9218 57.3624 86.6749 56.3073 85.1856C55.4521 83.9809 54.6925 82.3183 54.6325 80.1755C54.5015 75.3876 51.7094 74.5897 51.6916 66.721C51.6739 58.8546 52.8711 57.1298 54.6325 53.1376C56.3939 49.1478 55.35 47.4518 56.3073 40.9968C57.0803 35.7844 56.6716 30.1853 58.9838 27.7447C60.6364 32.288 58.8372 40.4812 57.6222 43.7953C56.4072 47.1095 57.7333 50.0724 56.3051 54.2913C55.1811 57.6187 56.0341 61.0796 56.4605 64.7472C56.4317 64.2871 56.3984 63.7603 56.365 63.1446C56.3539 62.9401 56.3428 62.7245 56.3295 62.4978C56.2007 60.086 56.6027 58.6101 57.1247 57.3965C57.56 56.3851 58.0776 55.5582 58.4441 54.5224C58.8106 53.4888 59.0216 52.2463 58.8439 50.4103C58.273 44.5333 60.9007 43.4241 61.1495 37.5471C61.2583 34.9753 61.4649 33.4661 61.6826 32.4636C61.7448 32.1769 61.8092 31.9324 61.8714 31.7168C61.9336 31.5011 61.9958 31.3122 62.0535 31.1388C62.1402 30.881 62.2223 30.6565 62.289 30.4253C62.3334 30.2697 62.3711 30.1119 62.4022 29.9363C62.5977 29.6362 63.8905 29.1561 64.8011 28.6604C64.8811 28.616 65.2854 28.4426 65.7629 28.2403C64.1903 27.9714 60.9629 27.3645 57.7266 26.7577L57.7222 26.7622Z" fill="#0F001C"/>
<path d="M82.4913 27.6493C83.1377 27.8983 83.8573 28.1739 83.6574 28.3428C84.1283 29.5565 84.2438 31.837 82.0137 37.6518C81.4229 39.1877 80.801 40.757 80.2012 42.2418C79.7925 43.2732 79.3772 44.2868 78.9751 45.2515C78.0222 47.5698 77.2715 49.3614 77.036 49.9838C76.9783 50.1594 76.9516 50.2372 76.9627 50.1927C76.9716 50.1572 76.9961 50.086 77.036 49.9838C77.0805 49.846 77.1449 49.6481 77.2248 49.3992C74.7082 55.4162 74.1441 60.113 74.495 58.8593C74.8482 57.6057 76.845 54.0715 79.7814 48.0878C82.7179 42.1063 83.4242 40.1613 84.597 36.2848C85.7676 32.4261 86.8115 27.0603 90.1478 26.8491C87.1936 27.0425 84.3105 27.0959 83.0399 27.0203C82.7578 27.0003 82.4602 26.9558 82.167 26.9091L82.4913 27.6515V27.6493Z" fill="#0F001C"/>
<path d="M30.1618 43.0445C31.3856 47.4612 33.2248 48.3859 34.5375 41.0018C35.4682 35.765 35.2283 37.9344 35.6215 41.7664C35.7836 43.3379 35.6348 45.1895 36.3745 46.9255C38.9111 52.8937 38.1314 59.2553 39.7462 64.4832C41.0923 68.2553 42.1696 70.0113 42.8448 65.7169C42.9181 65.2434 42.9892 64.8344 43.0536 64.4832C42.7315 62.5672 43.6244 56.4657 41.8875 53.3204C40.1505 50.173 41.1878 46.5276 41.1878 45.9319C41.1878 45.3362 42.7626 51.3666 43.2868 51.2822C43.811 51.1977 45.6502 46.781 45.8234 41.7664C45.9678 37.6076 47.085 33.2132 44.8594 31.5039C40.8213 31.6728 36.039 31.8862 33.5513 31.8862C33.3758 31.8862 33.2004 31.8818 33.0249 31.8729C32.916 31.8773 32.8738 31.8684 32.8294 31.8618C32.6539 31.8507 32.4785 31.8351 32.303 31.8173C28.7802 31.8417 29.0067 38.8724 30.1618 43.0423V43.0445Z" fill="#541989"/>
<path d="M63.3247 39.2747C63.5868 42.1132 60.9614 45.2317 60.6993 48.088C60.4372 50.9443 63.5869 48.0502 64.1111 47.4589C64.6353 46.8677 63.4425 53.3671 60.5394 57.2103C57.6363 61.0512 58.6869 64.9789 58.4248 68.1108C58.1627 71.2427 56.6345 72.9031 56.6545 77.2953C56.6989 81.4096 57.0299 82.1765 57.5852 80.4694C58.0183 79.1402 58.8268 76.1772 59.9907 73.4765C60.3328 72.6852 60.7037 71.9184 61.1036 71.2182C60.7015 71.9161 60.3306 72.6852 59.9907 73.4765C61.8099 68.3819 62.363 67.9285 65.8614 64.4854C69.362 61.0423 69.6241 58.7573 70.2371 52.7358C70.8502 46.7165 74.6129 44.9983 74.4018 41.7686C74.1908 38.5389 76.8008 32.5152 75.2215 31.1104C72.8826 31.0793 70.3348 31.0215 68.027 30.8481C65.8636 31.0726 63.0626 36.4362 63.3247 39.2747Z" fill="#541989"/>
<path d="M13.7541 17.1201C14.0339 17.0578 14.8536 16.6022 15.32 16.4043C9.074 15.0773 4.58941 12.9835 2.67029 11.6409C2.07723 11.2875 1.633 10.9563 1.38867 10.6562C1.70186 12.8012 2.41042 15.9131 4.756 20.8254C5.00033 21.3345 5.95766 23.1749 6.13092 23.6284C6.52407 24.6597 6.56849 25.7422 6.69954 26.8047C6.83948 27.9339 7.22152 29.0386 7.69463 30.1144C8.6653 32.3305 10.2934 34.3355 11.2885 36.5405C12.2969 38.7744 12.7967 41.1105 14.0051 43.2955C15.2511 45.5472 17.0103 47.641 17.9321 49.9883C18.3897 51.1574 18.734 52.3488 19.2226 53.5114C19.6802 54.6005 20.3932 55.5696 21.2395 56.5188C22.048 57.4257 22.9298 58.297 23.6806 59.2306C24.4558 60.1953 24.9911 61.2466 25.7463 62.2202C27.2945 64.2118 27.3256 66.0322 28.7027 68.1017C28.8848 68.3773 33.0674 71.5003 33.2273 71.7804C33.516 70.6423 31.517 67.0214 31.6325 66.1856C30.2198 64.4452 28.6583 62.3291 26.968 59.7329C26.1395 58.4615 25.4486 57.4146 24.8667 56.5499C20.06 49.3859 22.8676 54.5939 19.005 46.8519C14.6736 38.1742 15.5132 37.6319 12.719 31.8815C9.92471 26.1312 7.13045 20.6832 8.23438 19.3318C8.15664 19.1361 8.32768 18.9628 8.79191 18.8205C8.8541 18.7961 8.90297 18.7827 8.90297 18.7827C9.94026 18.5071 12.2525 17.8003 13.7563 17.1112L13.7541 17.1201Z" fill="#0F001C"/>
<path d="M26.5052 40.9881C27.5336 46.5339 31.1897 47.6431 33.5886 50.526C34.788 51.9686 35.7031 53.5757 36.5316 55.4739C36.9448 56.4231 37.338 57.4455 37.7355 58.5569C38.1309 59.6683 38.5307 60.8664 38.9594 62.1689C39.2304 62.9936 39.4925 63.7738 39.7457 64.4829C38.1309 59.2571 38.9106 52.8933 36.374 46.9251C35.6365 45.1891 35.7831 43.3376 35.621 41.7661C35.2256 37.934 35.4677 35.7646 34.537 41.0015C33.2243 48.3855 31.3873 47.4608 30.1612 43.0442C29.004 38.8742 28.7774 31.8436 32.3025 31.8192C31.5606 31.7391 30.8232 31.5969 30.1146 31.4146C27.7535 30.8056 25.7056 29.752 24.8282 29.1385C24.6527 29.0162 24.5239 28.9118 24.4483 28.8295C24.4106 28.7895 24.3862 28.7562 24.3773 28.7295C23.8198 29.1718 25.479 35.4423 26.5074 40.9881H26.5052Z" fill="#7816B7"/>
<path d="M45.8228 41.7685C45.6473 46.7831 43.8104 51.1975 43.2862 51.2842C42.762 51.3709 41.1872 45.3405 41.1872 45.934C41.1872 46.5274 40.1499 50.175 41.8869 53.3225C43.6238 56.4699 42.7309 62.5714 43.053 64.4852C43.2507 63.4094 43.4017 62.8404 43.5106 62.4181C43.6416 61.9113 43.7127 61.6179 43.726 60.9155C43.7305 60.6821 43.7282 60.402 43.7216 60.0553C43.7105 59.5351 43.6838 58.8594 43.6461 57.9547C43.5172 54.9607 43.8948 54.0716 44.4945 52.8401C44.8277 52.1555 45.2276 51.3664 45.6496 50.0528C45.8184 49.526 45.9894 48.9169 46.1604 48.1968C46.5025 46.7542 46.738 45.745 46.9134 44.9582C47.0889 44.1713 47.2044 43.6089 47.311 43.0643C47.3377 42.9288 47.3621 42.7932 47.3888 42.6554C47.4399 42.3797 47.4932 42.0975 47.5509 41.7796C47.6975 40.9861 47.8841 39.9747 48.204 38.3476C48.2684 38.0209 48.3328 37.7141 48.3994 37.4252C48.5305 36.8472 48.6637 36.3382 48.797 35.8892C48.9303 35.4402 49.0635 35.0468 49.1924 34.7023C49.7077 33.3219 50.1652 32.6907 50.3763 32.0594C50.4562 31.8216 50.5007 31.586 50.4984 31.3081C50.1853 31.3126 49.8188 31.3214 49.4123 31.3326C48.1928 31.3681 46.5958 31.4326 44.861 31.5059C47.0867 33.2152 45.9694 37.6097 45.825 41.7685H45.8228Z" fill="#7816B7"/>
<path d="M61.8669 31.7192C61.8047 31.9348 61.7403 32.1815 61.6781 32.466C61.4604 33.4685 61.2539 34.9778 61.145 37.5495C60.8963 43.4266 58.2686 44.5357 58.8394 50.4127C59.0171 52.2487 58.8061 53.4913 58.4396 54.5249C58.0753 55.5585 57.5556 56.3876 57.1202 57.3989C56.5982 58.6126 56.1962 60.0885 56.325 62.5002C56.3361 62.7269 56.3495 62.9425 56.3606 63.147C56.3961 63.7627 56.4272 64.2918 56.4561 64.7496C56.5138 65.661 56.5627 66.3056 56.6004 66.8457C56.6227 67.1703 56.6427 67.457 56.6582 67.7415C56.6626 67.8037 56.6649 67.8682 56.6671 67.9304C56.7226 69.0596 56.7226 70.2888 56.6671 73.8119C56.6449 75.1656 56.6404 76.3214 56.6515 77.2906C56.6315 72.8983 58.1597 71.2379 58.4218 68.106C58.6839 64.9741 57.6333 61.0465 60.5364 57.2055C63.4395 53.3646 64.6345 46.8652 64.1081 47.4542C63.5839 48.0455 60.4342 50.9395 60.6963 48.0833C60.9584 45.227 63.5839 42.1084 63.3218 39.27C63.0597 36.4315 65.8584 31.0679 68.0241 30.8434C67.1845 30.7812 66.3737 30.7034 65.6207 30.6056C64.8655 30.5078 64.1658 30.3922 63.5395 30.2499C63.1219 30.1566 62.7398 30.0521 62.3978 29.9365C62.3667 30.1121 62.3289 30.2699 62.2845 30.4255C62.2179 30.6567 62.1379 30.8812 62.049 31.1391C61.9913 31.3124 61.9291 31.4991 61.8669 31.717V31.7192Z" fill="#7816B7"/>
<path d="M74.3984 41.7681C74.6094 44.9978 70.8467 46.716 70.2337 52.7353C69.6206 58.7546 69.3585 61.0418 65.8579 64.4849C62.3596 67.928 61.8065 68.3792 59.9873 73.476C60.3271 72.6847 60.7003 71.9178 61.1001 71.2177C61.5022 70.5197 61.9331 69.8907 62.3951 69.3794C64.8939 66.6076 70.2626 65.8297 71.6353 58.1789C71.8063 57.2231 72.004 56.3429 72.2217 55.5249C72.3305 55.1159 72.4438 54.7247 72.5615 54.3446C72.9124 53.2087 73.2989 52.2041 73.6899 51.2816C73.952 50.6681 74.2163 50.0924 74.4784 49.5412C74.7383 48.9899 74.9959 48.4654 75.238 47.9497C75.9688 46.4093 76.5907 44.98 76.8906 43.3152C77.6902 38.8785 81.504 32.5169 81.0842 31.2055C80.349 31.1744 79.4583 31.1566 78.4632 31.1432C77.4681 31.1299 76.3686 31.121 75.2181 31.1055C76.7973 32.5103 74.1874 38.534 74.3984 41.7637V41.7681Z" fill="#7816B7"/>
<path d="M108.208 27.7314C106.447 30.9233 104.683 36.3069 101.042 41.7683C99.1011 44.6801 98.3614 47.5297 99.2521 48.0876C100.805 46.774 102.637 46.0071 105.338 39.5366C109.809 28.825 109.947 32.6216 113.021 25.7065C115.422 20.3029 118.679 17.8801 120.174 16.0952C118.863 16.5264 117.29 16.7976 115.642 16.9532C112.995 18.6736 109.843 24.7707 108.208 27.7314Z" fill="#21003A"/>
<path d="M16.586 8.09073C12.69 8.59975 1.00205 10.338 0.0491559 11.0715C-0.901516 11.8028 11.4705 16.0149 11.9459 16.0305C12.4212 16.046 4.20501 18.6089 7.17919 19.9359C10.1534 21.2607 19.2181 23.2012 19.2181 23.2012C18.6184 23.0834 16.2772 24.057 17.6477 24.9172C19.0182 25.7774 25.9838 26.8398 25.9838 26.8398C25.9838 26.8398 22.31 28.3313 22.7875 29.3027C23.2629 30.274 26.7923 32.1701 32.0055 32.3968C37.2186 32.6235 51.0011 31.9033 51.6253 31.0742C52.0695 30.4874 49.5396 29.1293 49.5396 29.1293C49.5396 29.1293 57.8935 29.725 56.7962 28.3002C56.3009 27.6578 54.4929 26.8398 54.4929 26.8398L63.9352 28.4981C63.9352 28.4981 60.2635 29.4827 61.1476 30.543C62.0316 31.6033 80.6941 32.299 82.2734 31.6566C83.8504 31.012 80.3543 29.7272 80.3543 29.7272C80.3543 29.7272 86.7824 29.4938 84.9943 28.2824C83.7993 27.4733 101.929 27.0999 100.256 25.1239C99.6831 24.4459 97.724 23.559 97.724 23.559C97.724 23.559 109.021 22.152 111.762 20.1938C113.319 19.0824 111.524 18.4333 111.524 18.4333C111.524 18.4333 126.924 16.5351 121.127 13.5521C115.329 10.5669 70.0857 2.89168 65.1257 2.43601C47.2806 0.79782 34.1934 5.79461 16.5882 8.09296L16.586 8.09073Z" fill="#AE3FEF"/>
<path d="M18.0935 23.8522C18.0935 24.5502 30.5899 26.1617 30.5899 26.1617C30.5899 26.1617 24.9192 27.2086 24.264 28.08C23.6087 28.9513 27.2426 30.9407 33.5197 31.0718C39.7968 31.2029 48.7549 30.5072 48.9703 30.1004C49.1858 29.6937 46.6048 27.8621 46.6048 27.8621C46.6048 27.8621 54.1724 28.2511 55.0253 27.8154C55.8783 27.3798 51.4159 25.117 51.4159 25.117C51.4159 25.117 66.6688 27.731 67.4907 27.8199C68.3125 27.9066 62.704 28.5601 62.1642 29.4314C61.6245 30.3027 79.4585 30.8695 79.9271 30.7384C80.3958 30.6072 76.1133 28.8913 76.1133 28.8913C76.1133 28.8913 80.9822 28.3867 82.2727 28.2978C83.5632 28.2111 79.9627 25.9327 79.9627 25.9327C79.9627 25.9327 90.1469 26.464 97.3857 24.5724C98.694 24.2301 94.3582 22.3496 94.3582 22.3496C94.3582 22.3496 107.95 21.3872 110.08 19.0155C110.991 18.0019 105.386 17.4017 105.386 17.4017C105.386 17.4017 127.756 15.4324 117.583 12.3249C105.222 8.85516 69.5008 2.83589 65.1251 2.43356C47.28 0.795379 34.1927 5.79217 16.5875 8.09052C13.7644 8.4595 6.84315 9.47531 2.88721 10.2844C2.86722 10.2955 2.845 10.3066 2.82501 10.32C0.139581 11.8981 14.9283 15.6257 14.9283 15.6257C14.9283 15.6257 11.0745 16.4237 8.40465 17.9685C5.55485 19.6156 22.6714 22.3474 22.6714 22.3474C22.6714 22.3474 20.5257 22.7253 19.173 23.1876C18.5422 23.4055 18.0935 23.6322 18.0935 23.8522Z" fill="#E38DFF"/>
<path d="M63.9905 3.82528C61.8182 3.61189 59.1016 3.60078 55.4678 3.98754C53.2021 4.2276 8.98037 9.65562 9.87773 11.6028C10.7773 13.5499 46.4164 12.1385 60.3389 9.8001C75.9405 12.2118 102.399 14.0234 105.9 12.6764C107.406 12.0962 67.0069 4.12091 63.9883 3.82528H63.9905Z" fill="#F0B3FF"/>
<path d="M41.37 26.4086C36.0147 25.3283 28.4404 26.3842 28.4404 27.9468C28.4404 29.5094 51.5675 28.4647 41.37 26.4086Z" fill="#F0B3FF"/>
<path d="M77.6067 25.2444C71.7539 23.7907 57.5338 23.644 57.4693 23.8129C57.345 24.1352 61.7896 25.5755 67.3959 26.0357C73.2132 26.5113 81.4316 26.1957 77.6067 25.2444Z" fill="#F0B3FF"/>
<path d="M79.8834 19.5024C78.7262 19.3157 77.56 19.149 76.385 19.0023C52.8715 16.0749 26.5969 21.0095 26.4104 21.5807C26.2171 22.1809 27.9608 22.7766 28.6538 23.0277C31.317 23.9969 36.7011 25.0016 43.3558 25.2972C43.3558 25.2972 46.6699 25.4016 48.5934 25.1705C50.3015 24.966 48.3358 23.5901 45.5304 22.5521C74.6569 23.7524 87.9597 22.083 89.3612 21.6429C90.1964 21.3806 80.3854 19.5824 79.8812 19.5024H79.8834Z" fill="#F0B3FF"/>
<path d="M63.9909 14.519C70.2569 11.5115 43.5315 11.4137 35.0821 12.883C34.9488 12.9052 28.1319 13.6499 22.8366 14.9435C18.2321 16.0682 14.9469 17.7264 16.0686 18.1665C19.0717 19.3424 58.5956 17.1085 63.9909 14.519Z" fill="#F0B3FF"/>
<path d="M69.8013 13.3366C63.6264 13.2321 91.8667 20.2006 100.705 18.6224C109.543 17.0464 102.384 13.8834 69.8013 13.3366Z" fill="#F0B3FF"/>
</svg>
