<svg width="75" height="89" viewBox="0 0 75 89" fill="none" xmlns="http://www.w3.org/2000/svg">
<g clip-path="url(#clip0_12261_7102)">
<path d="M44.3953 86.3154L44.5236 86.3549C44.4792 86.1871 44.42 85.886 44.42 85.4097C44.42 84.662 44.805 83.2651 44.9111 83.0652C45.0172 82.8653 45.1332 82.7222 45.3898 82.7937C45.5848 82.848 47.0804 83.5983 48.0355 83.6353C49.8099 83.7019 50.6662 82.1101 50.6662 82.1101C50.6662 82.1101 51.6509 82.6728 52.4333 83.1294C53.2181 83.5859 54.1287 84.2696 54.8 84.6768C55.3726 85.0247 56.0266 85.1901 56.7028 85.2765C57.379 85.3628 57.9293 85.3332 58.0922 85.348C58.2551 85.3628 59.6248 85.1975 59.6741 86.5524L59.6667 86.8658L59.8 86.8016C59.8 86.8016 59.9185 87.2212 59.9283 87.3001C59.9382 87.3816 59.9876 87.4285 59.8148 87.5371C59.642 87.6457 58.8819 87.9714 57.9145 88.2133C56.9471 88.4551 55.3775 88.813 54.1657 88.813C52.954 88.813 51.9224 88.5711 51.3252 88.428C50.7255 88.2848 49.4422 88.0109 49.3188 88.0677C49.1954 88.1244 49.0325 88.539 48.8918 88.6674C48.7487 88.7957 44.9185 88.4675 44.6445 88.4107C44.3681 88.354 44.2842 88.117 44.2842 88.0109V86.4092C44.2793 86.3426 44.336 86.2982 44.3953 86.3154ZM17.379 77.0558L18.6229 75.9971C18.6698 75.9576 18.7413 75.97 18.7685 76.0267L18.8228 76.1526C18.924 76.007 19.1189 75.7627 19.4866 75.4492C20.0666 74.9556 21.4042 74.3288 21.6288 74.2819C21.8534 74.2326 22.0409 74.2276 22.1544 74.4719C22.2408 74.6595 22.6456 76.313 23.2502 77.0781C24.3706 78.4971 26.1722 78.1096 26.1722 78.1096L26.5498 80.1531C26.7151 81.0613 26.7867 82.2212 26.9151 83.0109C27.0236 83.6847 27.3272 84.3016 27.7097 84.8816C28.0898 85.464 28.4748 85.8688 28.5735 86.007C28.6697 86.1427 29.7013 87.0953 28.6845 88.0306L28.4353 88.2306L28.571 88.2923C28.571 88.2923 28.3242 88.66 28.2699 88.7217C28.2156 88.7834 28.2082 88.8525 28.0133 88.7908C27.8183 88.7291 27.0607 88.3539 26.2339 87.7641C25.4047 87.1718 24.0918 86.1921 23.2922 85.2518C22.4901 84.3115 21.999 83.3515 21.7127 82.7937C21.4264 82.236 20.7922 81.0588 20.6663 80.9996C20.5404 80.9403 20.1135 81.0884 19.9185 81.0637C19.726 81.0391 17.4481 77.8505 17.3099 77.6012C17.1717 77.352 17.2976 77.1249 17.379 77.0558Z" fill="#292F33"/>
<path d="M41.2129 30.2144C38.9251 32.5836 33.6561 37.3467 33.5401 37.9168C32.9207 40.935 32.0248 44.3482 32.2568 46.441C32.4246 47.9587 31.3289 49.6443 30.897 50.3477C30.359 51.2213 28.9696 52.5639 28.0811 52.4701C27.5283 52.4133 26.6818 51.4089 27.1334 50.9005C28.0145 49.9133 27.8689 48.4104 28.4217 47.053C29.5298 44.326 28.5328 39.1705 30.053 35.7919C30.6848 34.3926 31.862 31.6137 37.0224 26.8433C38.2835 27.9834 41.2129 30.2144 41.2129 30.2144Z" fill="#F9CA55"/>
<path d="M49.2041 84.4099C52.3285 84.6789 53.7772 83.8349 53.4514 83.3833C53.0442 82.8206 53.1355 82.4035 53.1306 82.0605C53.0615 76.0363 54.293 67.2752 54.293 67.2752C54.293 66.4164 54.2856 65.2688 53.523 63.4203C51.6029 58.7732 43.7723 44.4421 43.7723 44.4421C42.4198 42.0778 39.4016 41.251 37.0373 42.6059C34.6706 43.9583 34.2683 46.0733 35.2012 49.3409C36.9657 55.5304 42.5186 63.1661 44.8335 67.7934C44.2806 73.0279 45.2629 77.3023 44.7471 82.248C44.673 82.9588 46.0798 84.1409 49.2041 84.4099Z" fill="#2A6797"/>
<path d="M22.7117 78.803C23.61 80.1678 25.1055 81.1278 26.6554 80.8712C29.7872 76.1229 38.8839 67.7394 38.8839 67.7394C39.4787 67.1224 40.2709 66.2907 41.0063 64.4299C42.8523 59.7532 47.1711 44.003 47.1711 44.003C47.8424 41.3623 46.2432 38.6723 43.6025 38.006C40.9619 37.3347 39.2023 38.5785 37.6055 41.5746C34.5774 47.2532 33.2694 56.6042 31.722 61.54C27.107 65.4097 25.841 70.4319 21.1717 74.2522C21.3321 76.3672 21.8133 77.4383 22.7117 78.803Z" fill="#4289C1"/>
<path d="M42.9303 3.49933C46.9185 2.31226 52.5379 4.80732 53.0734 9.35322C53.8212 15.6958 49.8084 20.6686 45.914 19.906C41.8321 19.1064 39.379 17.9761 38.0735 13.5906C36.7704 9.20514 38.9422 4.68639 42.9303 3.49933Z" fill="#FFDC5D"/>
<path d="M39.0791 14.778C34.0322 7.7025 47.4971 9.50654 47.4971 9.50654C50.049 9.81997 47.9216 13.9315 48.9261 16.3624C49.6146 18.0455 46.0633 18.6008 46.0633 18.6008C46.0633 18.6008 44.469 18.4404 44.2173 20.3678L44.2148 20.3851C44.1531 20.8762 44.1556 21.4661 44.3185 22.2681C45.1304 26.2415 39.7232 28.1714 38.9137 24.1906C38.5929 22.6161 38.8841 21.2785 39.2198 20.0519L39.2518 19.9409C39.7578 18.1146 40.3254 16.5278 39.0791 14.778Z" fill="#FFDC5D"/>
<path d="M37.9637 4.42016C40.0886 2.00901 46.668 0.283941 50.4415 3.88956C53.2895 3.64277 54.1359 6.40437 53.7658 7.91966C53.4696 9.12894 50.4291 9.18817 49.4741 11.4512C48.9978 10.8219 48.9632 9.61512 49.131 8.9858C48.092 9.82736 48.3018 12.2903 44.3926 13.5514C40.6118 14.7706 40.982 18.048 40.982 18.048C40.982 18.048 39.1384 16.9744 37.9341 15.3111C35.6291 12.1373 35.6217 7.07811 37.9637 4.42016Z" fill="#FFAC33"/>
<path d="M32.0818 49.3582C32.0818 49.3582 32.0818 51.8261 37.0176 51.8261H49.1055C46.6376 40.528 49.3374 37.4135 48.5107 30.6489C47.6198 23.3587 42.8666 18.8745 39.9347 19.9382C35.4382 21.5695 33.2886 26.4559 32.6988 34.3952C32.1089 42.3345 32.0818 49.3582 32.0818 49.3582Z" fill="#FA743E"/>
<path d="M45.0377 29.1016C45.4499 32.5542 45.8324 40.0418 46.2199 40.5157C48.2756 43.0354 50.4696 46.0438 52.3378 47.2506C53.6927 48.1242 54.3393 50.1479 54.6256 50.9697C54.981 51.9915 55.1513 54.025 54.4849 54.6889C54.0678 55.1035 52.6833 55.1257 52.5698 54.4174C52.3477 53.0379 51.0249 52.1543 50.2821 50.797C48.7914 48.0724 43.9074 45.449 42.1577 41.952C41.4321 40.5009 39.9464 37.685 39.4849 30.2812C41.2618 30.0098 45.0377 29.1016 45.0377 29.1016Z" fill="#FFDC5D"/>
</g>
<defs>
<clipPath id="clip0_12261_7102">
<rect width="74.3818" height="88.8449" fill="white" transform="matrix(-1 0 0 1 74.3818 0)"/>
</clipPath>
</defs>
</svg>
