<svg id="Layer_1" xmlns="http://www.w3.org/2000/svg" version="1.1" viewBox="0 0 136 74">
  <defs>
    <style>
      .st0 {
        fill: #e38dff;
      }

      .st1 {
        fill: #fdcfff;
      }

      .st2 {
        fill: #fde9ff;
      }

      .st3 {
        fill: #08145a;
      }

      .st4 {
        fill: #3a0060;
      }

      .st5 {
        fill: #541989;
      }

      .st6 {
        fill: #c153ea;
      }

      .st7 {
        fill: #21003a;
      }

      .st8 {
        fill: #f0b3ff;
      }
    </style>
  </defs>
  <path class="st3" d="M133.8,11.5s0,0,0,0c-1.3-.4-3.9-.9-7.4-1.4.7-.7-47.3-11.3-66.8-10C48.3.8,17.9,8.4,12.1,9.9c-4.8.8-8.5,1.5-9.8,1.8-2.7.4-2.6.8-1.5,1.3.4.2,1,.4,1.7.5.3,1.9,1,5.5,1.8,9.1.6,2.6,1,3.6,1.5,4.3.5.7,1.1,1.1,2.2,2.4,1.3,1.7,3,2,4.6,2.3.3.5.7.9,1,1.3,1.8,1.9,3.9,2.9,5.5,3.5.2.3.4.5.7.9,3.3,4.1,3.4,1.6,7.7,4.8,2.5,1.9,4,3.7,5.1,4.7.4.7.7,1.2.9,1.5,0,0,0,0,0,0,0,0,0,0,0,0,0,0,0,0,0,0,0,0,0,0,0,0,0,0,0,0,0,0,0,0,0,0,0,0,0,0,.1,0,.1.1,0,0,0,0,.1,0,0,0,0,0,.1,0,0,0,.1,0,.1,0,0,0,0,0,0,0,0,0,0,0,0,0,0,0,0,0,0,0s0,0,0,0c0,0,0,0,0,0,.3,0,.6.2,1,.3,0,0,.1,0,.2,0,.1,0,.2,0,.2,0,.1,0,.2,0,.3,0,0,0,.2,0,.2,0,0,0,0,0,0,0,0,0,.1,0,.2,0,0,0,0,0,0,0,0,0,.2,0,.2.1.2,0,.3.1.4.2,0,0,0,0,0,0,0,0,.2,0,.3.1,0,0,0,0,.1,0,0,0,.2,0,.3.1,0,0,0,0,.1,0,.1,0,.3.1.4.2,1,.6,1.9,1,2.7,1.3,0,0,.2,0,.2,0,0,0,0,0,.1,0,.1,0,.2,0,.3.1,0,0,0,0,0,0,.3,0,.5.2.8.2,0,0,0,0,0,0,.1,0,.2,0,.4.1.2,0,.4,0,.6.1.3,0,.5.1.8.2.2,0,.3,0,.5.1.2,0,.4,0,.5.2.1.2.2.2.3.3.2.1.4,0,.8.3.2,0,.4.2.7.5.3.2.5.5.8.8,2.4,2.6,2.8,3.6,2.8,3.6,0,0,0,0,0,0,0,0,0,0,0,0,0,0,.5-.9.9-2.4.2-.7.3-1.6.4-2.7.1,0,.3.1.5.2.7.4,1.5.7,2.5,1,.6.2,1.2.5,1.9.7,2.3.9,3.2,2.1,3.8,2.7.6.5,1.6,1.1,1.7,1.1,2.1,2.7,2.1,5.3,3.5,8.1.3.6.5,1.1.7,1.7.5,2.2,2,4.3,2.1,4.4.1,0,.9-.7,1.9-1.7,1-.9,3-3,3-3,0,0,.1-.1.2-.2.5-.6.8-1.2,1-1.9,0-.2.2-.4.3-.6.2-.1.5-.2.8-.4.3,0,.7-.2,1-.3.9-.3,1.8-.7,2.5-1.2,1.5-1,2.6-2.3,3.1-3.7,0-.2.2-.5.2-.8.3-.2.6-.5,1-.8,1.9-1.3,4.7-2.3,6.9-3.2.2,0,.4-.2.6-.3.9-.4,3-.9,4-2.2,1-1.3,2.5-1.2,3.9-2.5.4-.4.8-.9,1.1-1.4.6-1.2.9-2.3.9-2.3,0,0,0,0,0,0,0-.1.1-.3.2-.4.7-1.4,1.2-2.3,1.6-2.9.6-.3,1.2-.5,1.7-.7,0,0,.6-.2,1.4-.5.2,0,.4-.1.5-.2.5-.2.9-.3,1.4-.5.3-.1.6-.2.9-.3,2.2-.9,5.4-4.4,5.4-4.4,0,0,.2-.2.3-.3.9-.8,2.7-2.6,3-3,.6-.7,1.2-1.5,1.7-2.3,2.1-2.8,3.3-3.5,7-8.9,1.2-1.7,2.4-3.3,3.6-4.7,1.3-.3,1.8-.7,1-1.2.7-.9,1.3-1.7,1.9-2.5.3,0,.5-.1.8-.2,2.8-.9,1.4-1.8-.2-2.2Z"/>
  <g class="foreground" >
    <path class="st4" d="M128.1,13.7c.5.4,1.2,1,1.6,1.5,1,1.5-5.2.4-8,2.2-2.8,1.8-9,1.4-7.3,1.9,1.7.6,3.4,1.3-1.9,2.4-2.2.5.5,1.9-1.2,2.5-1.7.6-13.9,1-13.9,1,0,0,3.6,1,3.3,1.5-.8,1.4-16.9,2.5-16.9,2.5,0,0,6,1,7.9,1.9,1.9.8-4.3,3.7-7.7,4.5-3.3.8-10.5,2.1-15.3,2-4.7,0-10.7-3.4-10.5-3.8.2-.4,3.2-1.8,3.2-1.8,0,0-4.2,1.1-7.6.9-3.3-.2-12.3-1.1-12.3-2.1,0-.3,2-1.5,2-1.5,0,0-2.5.2-2.6-.7,0-.3,5.2-1.4,5.2-1.4,0,0-4.8.2-8.5-.5-1.7-.3-4.7-1.3-4.7-1.9,0-.6,2.5-.5,2.5-.5,0,0-.9-.5-3.9-.8-3-.3-12.1-1.3-12.5-1.9-.2-.3.8-1.1,2.9-1.7-3.1-.3-6.3-.7-7.9-1.1-2.9-.8.2-1-.8-1.3-1-.3-7.2-1.7-7.1-2.1.1-.4,1.3-1,.5-1.4-.4-.2-2.8-.6-4.4-1,.3,1.9,1,5.6,1.8,9.3,1.2,5.1,1.6,4.1,3.7,6.8,1.3,1.7,3,2,4.6,2.3.3.5.7.9,1,1.3,1.8,1.9,3.9,2.9,5.5,3.5.2.3.4.5.7.9,3.3,4.1,3.4,1.6,7.7,4.8,2.5,1.9,4,3.7,5.1,4.7.4.7.7,1.2.9,1.5,0,0,0,0,0,0,0,0,0,0,0,0,0,0,0,0,0,0,0,0,0,0,0,0,0,0,0,0,0,0,0,0,0,0,0,0,0,0,.1,0,.1.1,0,0,0,0,.1,0,0,0,0,0,.1,0,0,0,.1,0,.1,0,0,0,0,0,0,0,0,0,0,0,0,0,0,0,0,0,0,0,0,0,0,0,0,0,0,0,0,0,0,0,.3,0,.6.2,1,.3,0,0,.1,0,.2,0,.1,0,.2,0,.2,0,.1,0,.2,0,.3,0,0,0,.2,0,.2,0,0,0,0,0,0,0,0,0,.1,0,.2,0,0,0,0,0,0,0,0,0,.2,0,.2.1.2,0,.3.1.4.2,0,0,0,0,0,0,0,0,.2,0,.3.1,0,0,0,0,.1,0,0,0,.2,0,.3.1,0,0,0,0,.1,0,.1,0,.3.1.4.2,1,.6,1.9,1,2.7,1.3.7.3,1.3.4,1.9.6.2,0,.4,0,.6.1.3,0,.5.1.8.2.2,0,.3,0,.5.1.2,0,.4,0,.5.2.4.6.7.1,1.8,1,.3.2.5.5.8.8,2.4,2.6,2.8,3.6,2.8,3.6,0,0,.5-.9.9-2.4.2-.7.3-1.6.4-2.7.1,0,.3.1.5.2.7.4,1.5.7,2.5,1,.6.2,1.2.5,1.9.7,2.3.9,3.2,2.1,3.8,2.7.6.5,1.6,1.1,1.7,1.1,2.1,2.7,2.1,5.3,3.5,8.1.3.6.5,1.1.7,1.7.5,2.2,2,4.3,2.1,4.4.1,0,.9-.7,1.9-1.7,1-.9,3-3,3-3,0,0,.1-.1.2-.2.5-.6.8-1.2,1-1.9,0-.2.2-.4.3-.6.2-.1.5-.2.8-.4.3,0,.7-.2,1-.3.9-.3,1.8-.7,2.5-1.2,1.5-1,2.6-2.3,3.1-3.7,0-.2.2-.5.2-.8.3-.2.6-.5,1-.8,1.9-1.3,4.7-2.3,6.9-3.2.2,0,.4-.2.6-.3.9-.4,3-.9,4-2.2,1-1.3,2.5-1.2,3.9-2.5,1.4-1.3,2-3.8,2-3.8,0-.1.1-.3.2-.4.7-1.4,1.2-2.3,1.6-2.9.6-.3,1.2-.5,1.7-.7,0,0,.6-.2,1.4-.5.2,0,.4-.1.5-.2.5-.2.9-.3,1.4-.5.3-.1.6-.2.9-.3,2.2-.9,5.4-4.4,5.4-4.4,0,0,.2-.2.3-.3.9-.8,2.7-2.6,3-3,.6-.7,1.2-1.5,1.7-2.3,2.1-2.8,3.3-3.5,7-8.9,2.9-4.3,6.4-7.8,7.4-10.1-.9.4-4.2.4-5.4.5-.2,0-1.5.2-.6,1h0Z"/>
    <path class="st7" d="M111.3,24.2c-1.7.6-13.9,1-13.9,1,0,0,3.6,1,3.3,1.5-.8,1.4-16.9,2.5-16.9,2.5,0,0,5.7,1,7.7,1.8-.1-.5-.4-1-.8-1.4.9.3,3.6.8,4.1,1.6.2.4-.6,1.7-.9,3.2-1.7,5.6-4.5,9.4-6,14.2-.7,2.2-1.2,3.7-2,4.8-.7.9-1.9,1.4-2.1,1.5-1.7.4-3.2,0-2.8-.7.4-.8,2.3-2.1,2.3-2.1,1-.7,1.9-1.6,2.4-2.7.8-1.9,3.9-11.4,5.3-15.7h0s.1-.5.3-1.2c-.5.4-1.2.8-2,1.2-.8,2.8-1.9,7.7-3.2,11.1,0,.1-.1.3-.2.4,0,0-1.7,5.7-3.5,6.5-1.8.8-3.7,1.1-3.9,1.8-.2.7-1.8,3.7-2.7,4.5-.9.8-3.2,1.5-3.4,1.7-.2.2-.5,1.6-1,3.2,0,0,0,.1,0,.2,0,0,0,0,0,0,0,0,0,0,0,.1,0,0,0,0,0,0-.8,2.4-2.4,4.4-2.5,4.3,0-.1-.5-1.1-.7-1.6-.2-.9-.5-1.7-.5-2.1-.2-.7-.6-2.5-.8-3,0,0,0-.1,0-.2-.5-2-.9-3.8-1.3-4.9,0-.3-.2-.5-.2-.7-.1-.4-.3-.7-.4-.8-.6-.8-3.1-1.2-3.6-1-.5.2-2.2,0-2.2,0-.2,0-1-.2-2.1-.5-.4-.1-.7-.2-1.1-.4-1.4-.5-2.9-1.3-3.9-2.2-.2-.2-.4-.4-.6-.6-.5-.5-1-.9-1.5-1.3-.8-.6-3.7-1.1-4.9-2.9-1.1-1.8-1.1-1.6-2.6-6.1-.8-2.5-1.2-5-1.3-7,.5.5,2.3,2.5,2.3,2.5l-.7-3.2c-.7-.2-1.2-.4-1.2-.7,0-.3,2-1.5,2-1.5,0,0-2.5.2-2.6-.7,0-.3,5.2-1.4,5.2-1.4,0,0-4.8.2-8.5-.5-1.7-.3-4.7-1.2-4.6-1.8,0-.6,2.4-.5,2.4-.5,0,0-.9-.5-3.9-.8-3-.3-12.1-1.2-12.5-1.8-.2-.3.8-1.2,2.9-1.8-3.1-.3-6.3-.7-7.9-1.1-2.9-.8.2-1-.8-1.3-1-.3-7.2-1.7-7.1-2.1.1-.4,1.3-1,.5-1.4-.4-.2-2.8-.6-4.4-1,.3,1.9,1,5.6,1.8,9.3,1.2,5.1,1.6,4.1,3.7,6.8,1.3,1.7,3,2,4.6,2.3-.4-.6-.8-1.3-1.2-2.1-1.9-4.6-3.6-9.3-4.5-12.1.9.3,2,.5,2.8.8.9.4,2,2.2,2.8,3.6,1.8,4.3,2.9,9.3,2.1,10.7-.2.3-.5.5-.9.4,1.8,1.9,3.9,2.9,5.5,3.5.2.3.4.5.7.9,3.3,4.1,3.4,1.6,7.7,4.8,2.5,1.9,4,3.7,5.1,4.7,0-.1-.1-.2-.2-.3-2.1-4-.9-1.7-6.1-6-5.2-4.4-2.6-3.4-5.2-11.1-.3-.9-.6-1.7-.8-2.3-.1-.4-.9-3-1-3.1.3,0,1.4.2,4.5.7,5.9,1,6.5,2.6,7.1,4.6.6,1.9,1,4.7,1,4.7.3,2.2.6,4.5,1.4,6.6,1,2.6,2.9,4.6,4.3,6,.9.9-.5.4-3.1-1.6-2.6-2-7.1-10.7-7.1-10.7,0,0,.9,6,4.1,9.5,2.6,2.9,4.3,5.2,2.1,4.9,0,0,0,0,0,0,0,0,0,0,0,0,0,0,0,0,0,0,0,0,0,0,0,0,0,0,0,0,0,0,0,0,0,0,0,0,0,0,.1,0,.1.1,0,0,0,0,.1,0,0,0,0,0,.1,0,0,0,.1,0,.1,0,0,0,0,0,0,0,0,0,0,0,0,0,0,0,0,0,0,0,0,0,0,0,0,0,0,0,0,0,0,0,.3,0,.6.2,1,.3,0,0,.1,0,.2,0,.1,0,.2,0,.2,0,.1,0,.2,0,.3,0,0,0,.2,0,.2,0,0,0,0,0,0,0,0,0,.1,0,.2,0,0,0,0,0,0,0,0,0,.2,0,.2,0,.2,0,.3.1.4.2,0,0,0,0,0,0,0,0,.2,0,.3.1,0,0,0,0,.1,0,0,0,.2,0,.3.1,0,0,0,0,.1,0,.1,0,.3.1.4.2,1,.5,1.8.9,2.6,1.2.2,0,.3.1.5.2.1,0,.2,0,.3.1,1.2.4,2.2.6,3.1.8.2,0,.4,0,.5.2-.2-.2-.3-.6-.6-1.3-1.1-2.9-2.1-2.5-4.7-4.8-2.5-2.3-2-2.1-4-5.5-1.9-3.5-1.4-3.3-1.9-7.4-.4-2.8-1-5.4-1.2-7.1,1.6.6,3.4,1.1,4.5,1.4,0,0,.2,0,.3.1.5.2.8,1.8.9,3.3,0,0,0,.1,0,.2,0,2.2.1,4.9,1.4,7.6,2.8,6,2.2,6.7,7.1,9.7,4.9,2.9,3.8,5.9,3.5,9.4,0,0,.5-.9.9-2.4.2-.7.3-1.6.4-2.7.1,0,.3.1.5.2.7.3,1.5.6,2.5,1,.6.2,1.2.5,1.9.7,2.3.9,3.2,2.1,3.8,2.7.6.5,1.6,1.1,1.7,1.1-1.1-1.9-.2-2.9.8-1.1.5.8,1.1,1.9,1.6,3,2.2,7.3,1.6,7.3,1.8,7.9.5,2.2,2,4.3,2.1,4.4.1,0,.9-.7,1.9-1.7,1-.9,3-3,3-3-.3.3-2.8,2.2-3.8,2-1.1-.2-.3-1.1,1.8-3.5,2.2-2.4,1.6-4.5,2.4-4.2.8.3,1,1.9,1,1.9,0,0,0,.2,0,.2,0,0,.2,0,.3-.1.5-.1.9-.3,1.4-.4.9-.3,1.7-.8,2.4-1.3.7-.5,1.3-1.1,1.8-1.7.5-.7.8-1.4,1.1-2.1.6-1.5,1-3,2.4-4.1,0,0,.2,0,.1,0-1.3,1.2-1.4,2.8-1.7,4.2.3-.2.6-.5,1-.8,1.9-1.3,4.7-2.3,6.9-3.2.2,0,.4-.2.6-.3.9-.4,3-.9,4-2.2,1-1.3,2.5-1.2,3.9-2.5,1.4-1.3,2-3.8,2-3.8-.1.2-2,2.2-4.1,2.9-.5.2-.8-.1-.9-.6.6-3.3,6.3-11.7,8.3-17,2-5.3,5.3-6.6,5.3-6.6,0,0,1.3-1.1,1.5-1.5,0,0-.2.1-.4.2h0ZM19.6,27.5c0,.3.1.5.2.7.4,1.4.6,2.8.7,4.2.2,3-.8,2.5-1.8,1.2-.8-1-1.3-2.2-1.6-3.4-.2-.9-.4-1.9-.9-3.3-.8-2.4-1.4-4-1.8-5.3,0-.8-.2-1.1-.3-1.3.2,0,.6.1,1.3.3.8.2,2.3,2.2,3.3,4.4.3.8.6,1.6.8,2.5h0ZM79.8,57.8c0,0,0,.2-.1.3,0,0,0,.1,0,.2,0,.2-.2.4-.3.7-.4,1-.8,1.6-1.1,2-1.8,1.6-4.4.6-4-.2.4-.8.8-1.2,1.3-1.5.5-.3,1.1-.7,1.6-1.1.8-.6,2.2-2.5,2.7-2.5.5,0,.5,1,.1,2h0ZM99.4,37.2c-1.4,3-2,4.4-2,4.4l-.9,1.8c0-.2,0-.2,0-.2-.3.5-2,3.1-2.1,6.1-.1,3-.2,3.5-1.7,4-1.6.5-1.2-2.6-.5-5.3.4-1.7,1.1-3.4,1.6-4.4,0,0,0,0,0-.1,0-.1.1-.3.2-.4,0-.1.1-.2.2-.3,0-.2.2-.3.2-.4,0,0,.1-.2.2-.3,0,0,0,0,0-.1,0,0,.1-.2.2-.3.3-.5.6-1,1.2-1.9.8-1.3,1.7-3.7,3-6.4.2-.4.4-.8.6-1.2.1-.2.2-.4.3-.6.2-.4.4-.8.7-1.3.7-1.2,1.4-2.3,2.3-3.3.4,1.5-2.2,7.3-3.5,10.3h0Z"/>
    <path class="st7" d="M128.1,13.7c.5.4,1.2,1,1.6,1.5,1,1.5-5.2.4-8,2.2-2.8,1.8-9,1.4-7.3,1.9,1.3.4,2.6.9.8,1.7-.2.3-.3.6-.5.8,0,0,0,0,0,0-.7,1.7-1.8,4.1-3.2,7.1-2.7,5.6-1.6,5.4-4.4,9.7-1.1,1.8-1.9,2.7-2.5,3.4-.4.5-.7.8-1.1,1.3.6-.3,1.2-.5,1.7-.7,0,0,.6-.2,1.4-.5.2,0,.4-.1.5-.2.4-.2.9-.3,1.4-.5.3-.1.6-.2.9-.3,2.2-.9,5.4-4.4,5.4-4.4,0,0-3.7,2.6-2.9,0,.8-2.6,2.8-7.2,2.9-7.5.6-1.2,1.3-2.6,2.2-4.3,2.2-4.3,6.2-6.2,10.5-7.3-.2.4-.4.8-.6,1.3-1.8,4.2-2.3,3.4-4.9,8.6-.6,1.3-1.4,2.5-2.2,3.6,2.1-2.8,3.3-3.5,7-8.9,3.1-4.6,6.4-8,7.4-10.1-.9.4-4.1.4-5.4.5-.2,0-1.5.2-.6,1h0Z"/>
    <path class="st5" d="M114.9,36.5c.9-.8,2.7-2.6,3-3,.6-.7,1.2-1.5,1.7-2.3.8-1.1,1.5-2.3,2.2-3.6,2.4-4.8,3-4.5,4.5-7.7-4.9,2.1-4.1,7.6-11.4,16.6Z"/>
    <path class="st5" d="M104.5,42.1c.6-.7,1.4-1.7,2.5-3.4,2.8-4.3,1.7-4.2,4.4-9.7.6-1.3,1.2-2.5,1.7-3.6-1.5,1.3-3.1,3-4,6.8-.8,3.2-3.5,8.6-4.5,9.9h0Z"/>
    <path class="st5" d="M43,47.3c-2.3-1.5-4.1-3.4-5.2-6.2-.3-.8-.6-2.2-.9-3.9-.7-4.9-1.3-7.7-3.6-9.7.3,1.7.8,4,1.1,6.5.5,4.1,0,3.9,1.9,7.4,1.9,3.5,1.4,3.3,4,5.5,2.5,2.3,3.5,1.9,4.7,4.8.3.7.5,1.1.6,1.3.4.6.7.1,1.8,1,.3.2.5.5.8.8,2.4,2.6,2.8,3.6,2.8,3.6-.5-3.7-4.4-5.4-4.9-7.4-.5-2-.9-2.2-3.2-3.7h0Z"/>
    <path class="st5" d="M93.4,32.7c-.4.3-.8.5-1.2.7.7-.3,0,5-1.5,7.3-1.5,2.3-2.8,8-2.8,8,0,0,1.7-4,3.6-6.6,1.9-2.6,3.2-9.1,3.2-10.4,0,0-.9.7-1.3,1.1h0Z"/>
    <path class="st5" d="M97.1,39.5c-2.7,4.4-2.4,8-2.4,8,0,0,.2-.8,1.9-4.1,0-.1,3.4-7.2,5.3-11.8-1,.8-1.9,2.2-2.4,3.2-.4,1.2-1,2.7-2.3,4.7Z"/>
    <path class="st5" d="M22,28.1c-1-1.9-2.4-3-2.4-3,0,0,.9,2.9,1.7,6,.7,2.8,1.1,5.7,1.5,6.2.9.9,3.6,3.2,3.6,3.2,0,0-2.4-3.1-2.2-5.5.1-1.2-.9-4.5-2.2-6.9h0Z"/>
    <path class="st5" d="M68.4,64.9c.5.2,1.6-2.8,2.3-4.9.7-2,1-3.6,1-3.6.8-2.7,1.1-5.3,1.1-2.7,0,3.5-.2,4.4,1.5,3.8.3-.3.6-.5,1-.8,1.4-1.1,2-3,2.6-4.3.6-1.4,1.8-3.1,3-5.1.1-.2.2-.4.4-.7.5-1,1-2.1,1.3-3.3.3-1.3.6-2.2.9-2.9.3-1.3.5-2.4.5-2.5,0,0-1.3.6-2.5,2-.9,1-1.8,2.7-2.1,3.5-1.2,2.9-2.4,5.8-2.3,5,.2-1.5,2.4-9.8,1.5-9.5-.9.3-3.6.5-5.7.5-1.8,0-2,1.5-2.1,2.4,0,.9,0,1.8-.1,2.8-.2,2.3,0,4,.3,5.3-.1-.5-.4-1.2-.7-2.1-.5-1.3-.4-5.4-.2-8.1,0,0,0-.2,0-.2,0-.3-1.3.5-4.1-.4-2.8-.8-4.9-1.5-5.5-1.7-.7-.3-.9,1.8-.8,5.4.1.9.3,1.9.4,2.8.1.7,1.1,2.5,2,2.9,1,.5.9-7.5,1.5-6,.6,1.4,2.7,10.2,3.2,13,.5,2.8.9,6.4.9,6.2.2.7.4,1.6.5,2,0,0,0,0,0,.1,0,0,.1.8.6,1h0Z"/>
    <path class="st5" d="M53.5,37.4c-.2-1.6-2-2.8-4.4-3.1-2.4-.4-6.1-1.6-6.1-1.6.4,2,.9,4,2,8.6,1.2,4.8,3,5.6,4.8,7,.5.4,1,.8,1.5,1.3-.8-1.1-1.3-10.9-1-12.4.3-2,1.8,8.2,2.9,11.1,1,2.8,2.1,3.9,1.9,3.8.3.1.6.2.8.3.4.2.8.3,1.1.4-.7-.8-1.5-2.5-1.9-4.8-.4-2.9-1.5-7-1.7-10.5h0Z"/>
    <path class="st6" d="M133.8,11.5c-1.5-.4-59.8-9.9-73.1-9.3C56.3,2.4,3.7,11.5,3.7,11.5c-4.2.4-4.2.9-2.9,1.5,1.2.6,4.4,1.1,5.3,1.3.5.1-.5.1-.6.9,0,.7,1.7,2.2,2.9,2.5,2.3.5,2.2.3,6.3,1.5,4.1,1.2,5.9,1,6.4,1.2.5.2-1.1.3-2,1.1-.9.8-1.7,1.2,5.7,2,7.4.8,8,.1,7.8,1.5-.2,1.4,3.6,1.9,7,2.6.8.2,2,.4,2,.4,0,0-.7.9-.5,1.2.1.2,1.4.6,1.8.6.8,0-2.4.9-.9,1.6,2.8,1.3,12.3,2.3,14.7,2.3,0,0,3,1.5,4,2.1,1.4.8,3.4,1.7,6,2.3,5,1.3,12.3.4,19.3-1.3,4.7-1.1,9.3-3.3,10.8-4.6,1.5-1.3-3.1-2.1-3.8-2.2-.7,0,7.2,0,10.3-1.3,3.1-1.2.3-2,.3-2.1,0,0,9.3,0,10.4-.9,1.1-.8.4-2.3.4-2.3,0,0,1.4-.8,3.5-1.4,2.2-.6,1-1.7,1-1.7,0,0,1.1,0,3.5-1,2.4-1,2.5-1.4,4.9-1.5,3.3-.2,5.7-.6,4-1.7-1.6-1-1.9-.1-1.9-.8s1.9-.9,4.7-1.8c2.8-.9,1.4-1.8-.2-2.2h0Z"/>
    <path class="st0" d="M129.5,13.9c2.8-.2,6.9-1.5,4.3-2.4-2.7-.9-11.3-1.8-22-3.6-10.7-1.8-14-2.3-23.7-3.9-31.4-5.2-40.5-.4-56.3,2.4C18.2,8.8,2.8,11.4,1.8,11.7c-2.2.7,4.9,1.7,5.7,2.1.8.4-.4.9-.5,1.3,0,.1-.4.6,1.4,1.2,1.9.6,5,.7,5.8.9,1,.3-2.1.4.8,1.3,1.6.5,4.8.9,7.9,1.2-2.1.6-4.2,1.4-4,1.7.4.6,10.7,1.6,13.8,1.9,3,.3,3.9.8,3.9.8,0,0-3.4-.1-3.5.5,0,.6,4,1.5,5.7,1.9,3.7.7,8.6.6,8.6.6,0,0-5.2,1-5.2,1.3,0,.8,2.6.7,2.6.7,0,0-2,1.1-1.9,1.4,0,1.1,9,2,12.4,2.2,3.4.3,7.6-.8,7.6-.8,0,0-3,1.4-3.2,1.8-.2.4,5.9,3.7,10.7,3.9,4.8.1,12-1,15.3-1.8,3.3-.8,9.5-3.5,7.6-4.4-1.9-.8-8-1.9-8-1.9,0,0,16.1-.8,16.9-2.2.3-.5-3.4-1.5-3.4-1.5,0,0,12.2-.3,13.9-.9,1.7-.6-1.1-2,1.1-2.4,5.3-1.1,3.6-1.8,1.9-2.3-1.7-.6,4.5-.1,7.3-1.8,2.8-1.7,9-.6,8-2-1-1.4-4.5-2.2-1.7-2.4h0Z"/>
    <path class="st2" d="M88.1,5.1c9.7,1.6,12.9,2.1,23.7,3.9,2.6.4,5,.8,7.3,1.2h6.6C133.2,10.7,80.3-1.2,59.6.1,47.1.9,11.1,10.1,11.1,10.1h5.8c4.7-.8,9.9-1.7,14.9-2.6,15.8-2.8,24.9-7.6,56.3-2.4h0Z"/>
    <path class="st8" d="M7.9,11.1c-.9.7,5.7-.2,11.8-.4,1.8,0,17.2-1.1,15.8-.7-.3,0-12.1,1.4-12.8,1.5-5.8.8-13.3,2.5-14.5,4.7,0,0,10.9,0,12.9-.3,2.1-.2-4.4,1.1-2.8,1.6,1.4.4,15.7.7,22.7.5-5.3.7-14.6,2.1-14.8,2.4-.2.5,8.9,1.6,13.8,2,5,.4,15,.3,15,.3,0,0-11.8,1.4-15.1,1.5-3.3,0,.4,1.6,12.1,1.4,11.7-.2-3.5,1.8-5.3,2.1-1.8.3,7.2.2,5.4.3-1.8,0-6.6,1.1-5.8,1.8.8.7,8.3,1,12.8.6,4.5-.4,9.1-.7,9.8-1.1.8-.3-6.5,3.3-5.6,4.3.9.9,6.2,1.3,10.5,1.5,4,.1,10.7-1.1,13.8-2.8,1.5-.8-15.1-4.6-14.1-4.4,1,.2,17.6,0,21.3-.7,3.6-.7-4.7-2.1-8.8-2.9-4.1-.8,16.2-.1,19.9-.7,3.7-.6,1-1.5-1.8-1.8-2.8-.3,5.5.3,7.3-.2,1.8-.6.7-1.7-3.4-2.6-4.1-.8-7.9-1.7-7.9-1.7,0,0,12,1,16,.4,3.9-.6-9-2.1-19.1-3.9-10.4-1.9,21.3,1,26.2,1.5,5,.5-.8-2.4-3.8-3.1-2.9-.8,3,.7,8.7.2,2.8-.2-.8-1.6-9.1-3.4-2.3-.3-4.8-.7-7.4-1.2-10.7-1.8-14-2.3-23.7-3.9-31.4-5.2-40.5-.4-56.3,2.4-6.8,1.2-14.1,2.5-19.8,3.5-2.3.6-3.8,1-4.1,1.3h0Z"/>
    <path class="st1" d="M76.3,5.3c.7.5,2.5,1,5,1.5-2.7.2-5.2.8-.9,2.2,7.2,2.3,28.4,3.7,33.3,3.9,3.6.1-3.6-1.6-10.1-3.1,7.4.7,13.8,1.1,15.5.8,4.1-.7-50.2-10-42.8-5.3Z"/>
    <path class="st1" d="M60.2,3c-10.6.3-37.2,5.9-41.3,6.7-6.2,1.2,17.9-.9,39.3-2.4,20.2-1.4,19.9-4.8,2-4.3Z"/>
    <path class="st1" d="M91.1,26c-5.4-1.4-18-.4-16.1.4,1.8.8,19.3.4,16.1-.4Z"/>
    <path class="st1" d="M81.9,31.5c-3.6-1.7-12.4,1.4-10.8,2.2,1.6.7,15.3-.1,10.8-2.2Z"/>
    <path class="st1" d="M72.2,24.8c-4.3-1-19.3,2.4-17.1,3.4,2.2,1,24.7-1.6,17.1-3.4Z"/>
    <path class="st1" d="M51,8.7c-17,1.8-32.7,4.3-31.8,4.8.3.2,6.8,1,15.1.9,13.6-.2,32.4-1.5,37.5-3.2,8.2-2.8-3.7-4.3-20.7-2.5Z"/>
    <path class="st1" d="M91.2,15.8c5.2,0,12.9,0,9.6-.9-4.8-1.4-18.3-5.5-23.8-3.8-2.5.8-.3,2.4,2.4,3.8-13.9-.4-40.2,3.2-35.3,5.2,5.5,2.2,47.9.8,59-.3,8.5-.9-1-2.8-12-3.9h0Z"/>
  </g>
</svg>