<svg width="149" height="152" viewBox="0 0 149 152" fill="none" xmlns="http://www.w3.org/2000/svg">
<path d="M133.644 34.8871C157.97 66.4995 152.142 111.906 120.625 136.306C89.1067 160.705 43.8365 154.859 19.51 123.247C-4.81656 91.6346 1.01188 46.2277 32.5284 21.8283C64.0472 -2.57109 109.317 3.27481 133.644 34.8871Z" fill="url(#paint0_linear_13324_6688)"/>
<path d="M20.3059 54.4768C25.2325 61.1763 33.5043 64.6505 41.796 64.2437C52.5399 63.7169 63.1794 58.5979 69.5543 49.9046C75.9291 41.2135 77.5461 28.9749 72.8061 19.2903C70.6226 14.8292 67.2575 10.766 63.1372 8.01416C59.681 8.66766 56.2582 9.58121 52.8931 10.7548C63.8924 14.6847 65.7005 24.4049 64.2256 29.2328C62.0888 36.2256 57.6331 42.7117 51.2138 46.1837C44.7946 49.6556 36.343 49.649 30.5301 45.2301C25.9589 41.7537 23.6555 36.1367 23.3179 30.3219C20.7257 33.1649 18.3934 36.1812 16.3255 39.3353C15.7236 44.0276 16.3189 49.0555 20.3059 54.4768Z" fill="url(#paint1_linear_13324_6688)"/>
<path d="M70.6416 7.00279C85.6569 14.3935 92.9802 41.2447 72.0409 59.4025C72.0409 59.4025 100.252 46.117 92.6514 23.0557C97.2493 30.0485 99.7126 38.1683 99.1995 46.6149C97.6891 71.4544 77.4451 93.5066 53.123 98.4256C76.6833 102.006 101.721 86.8471 109.535 64.2659C116.078 45.359 109.928 23.0312 95.5967 9.32116C87.4894 7.10283 79.0355 6.31373 70.6416 7.00056V7.00279Z" fill="url(#paint2_linear_13324_6688)"/>
<path d="M37.066 95.5404C56.7302 94.8914 74.6331 80.9657 86.6053 65.3062C76.0258 72.3102 66.3924 78.0316 53.8383 79.7898C41.2841 81.548 27.0329 79.5742 18.1325 70.5186C13.1015 65.3995 10.1585 58.4312 9.92079 51.4961C6.59344 59.6092 4.77426 68.2536 4.5166 76.9735C11.9243 88.3719 22.6482 96.0139 37.066 95.5382V95.5404Z" fill="url(#paint3_linear_13324_6688)"/>
<path d="M132.891 85.378C104.591 130.749 53.6941 129.831 53.6941 129.831C88.3669 125.435 143.988 80.5368 135.347 37.2037C134.794 36.4235 134.23 35.65 133.644 34.8876C128.906 28.7305 123.371 23.5581 117.302 19.3882C117.847 20.2195 118.369 21.0642 118.864 21.9266C126.072 34.4697 127.846 50.0803 123.42 63.8593C119.541 75.9312 111.279 86.167 101.832 94.598C85.5016 109.171 63.9471 119.329 42.2082 117.041C25.1428 115.245 12.773 104.892 5.40527 90.6593C6.79574 99.2948 9.76551 107.77 14.3767 115.634C28.1481 126.735 41.8906 130.645 41.8906 130.645C41.8906 130.645 35.0783 132.265 24.9851 129.571C29.1032 133.814 33.6478 137.458 38.4966 140.481C54.1627 142.652 70.4064 140.73 85.064 134.755C96.23 130.205 106.394 123.441 115.728 115.794C123.928 109.075 131.622 101.551 137.253 92.5553C142.04 84.909 145.223 76.3824 147.784 67.7136C146.838 61.7032 145.123 55.7684 142.626 50.0625C142.826 60.8407 140.654 72.9349 132.893 85.378H132.891Z" fill="url(#paint4_linear_13324_6688)"/>
<path d="M133.282 37.7146C156.931 68.4467 151.265 112.587 120.626 136.308C89.9864 160.027 45.9778 154.344 22.3288 123.614C-1.32031 92.8817 4.34595 48.7418 34.9851 25.0203C65.6243 1.3011 109.633 6.98473 133.282 37.7146Z" fill="url(#paint5_linear_13324_6688)"/>
<path d="M67.2539 150.152C85.5188 152.939 104.845 148.522 120.625 136.306C136.466 124.041 145.631 106.316 147.521 87.8071C142.775 101.686 134.467 114.2 123.759 123.834C107.164 138.564 87.9355 148.876 67.2539 150.152Z" fill="url(#paint6_linear_13324_6688)"/>
<path d="M41.7968 64.2435C52.5407 63.7167 63.1803 58.5977 69.5551 49.9044C75.9299 41.2134 77.5469 28.9748 72.8069 19.2901C71.3565 16.3294 69.3863 13.5442 67.0207 11.1992C63.9288 11.6793 60.8569 12.3706 57.8249 13.2731C64.4197 17.9164 65.4437 25.2449 64.2242 29.2326C62.0874 36.2255 57.6317 42.7115 51.2124 46.1835C44.7932 49.6555 36.3416 49.6488 30.5287 45.2299C27.3213 42.7915 25.2312 39.2996 24.1517 35.4253C21.2419 38.8906 18.7075 42.5893 16.5596 46.4636C17.1193 49.0375 18.2677 51.7049 20.3068 54.4767C25.2334 61.1761 33.5051 64.6503 41.7968 64.2435Z" fill="url(#paint7_linear_13324_6688)"/>
<path d="M75.6304 10.4056C86.9985 20.6415 90.4946 43.3983 72.0409 59.4C72.0409 59.4 100.252 46.1145 92.6514 23.0532C97.2493 30.046 99.7126 38.1658 99.1995 46.6124C97.6891 71.4519 77.4451 93.5041 53.123 98.4231C76.6833 102.004 101.721 86.8446 109.535 64.2635C115.388 47.3504 111.085 27.7033 99.857 13.9332C92.0495 11.3459 83.8399 10.1544 75.6304 10.4034V10.4056Z" fill="url(#paint8_linear_13324_6688)"/>
<path d="M132.89 85.3779C104.589 130.749 53.693 129.831 53.693 129.831C87.2175 125.579 140.333 83.4641 135.999 41.5092C135.138 40.2244 134.236 38.9575 133.278 37.7149C129.469 32.7648 125.129 28.4704 120.407 24.8384C126.299 36.8325 127.508 51.1272 123.419 63.8592C119.54 75.9311 111.277 86.167 101.831 94.598C85.5005 109.17 63.946 119.329 42.2072 117.041C28.2047 115.568 17.3653 108.333 9.85547 97.9233C11.7279 105.356 14.8421 112.58 19.2445 119.28C31.21 127.604 41.8895 130.645 41.8895 130.645C41.8895 130.645 36.4898 131.927 28.1848 130.309C32.274 134.43 36.783 137.949 41.5853 140.856C56.2874 142.383 71.367 140.338 85.0652 134.755C96.2311 130.205 106.395 123.441 115.729 115.794C123.929 109.075 131.624 101.551 137.254 92.5553C141.615 85.5891 144.646 77.8938 147.088 70.023C146.252 64.5238 144.762 59.0891 142.596 53.8367C142.252 63.6303 139.76 74.3663 132.894 85.3757L132.89 85.3779Z" fill="url(#paint9_linear_13324_6688)"/>
<path d="M37.0659 95.5401C56.7301 94.891 74.633 80.9653 86.6052 65.3059C76.0257 72.3098 66.3923 78.0312 53.8381 79.7895C41.2839 81.5477 27.0328 79.5739 18.1324 70.5183C14.8961 67.2241 12.5239 63.1675 11.1801 58.8442C8.81672 66.1283 7.65058 73.7568 7.7261 81.4054C14.9117 90.2987 24.6072 95.9491 37.0637 95.5378L37.0659 95.5401Z" fill="url(#paint10_linear_13324_6688)"/>
<path d="M85.8854 90.7653C107.266 74.0915 114.037 47.0146 101.011 30.2874C87.9843 13.5602 60.0922 13.517 38.7121 30.1908C17.332 46.8646 10.5601 73.9414 23.5867 90.6686C36.6132 107.396 64.5053 107.439 85.8854 90.7653Z" fill="url(#paint11_linear_13324_6688)"/>
<path d="M41.7959 64.2436C52.5398 63.7168 63.1793 58.5977 69.5542 49.9044C75.929 41.2134 77.546 28.9748 72.806 19.2901C72.555 18.7767 72.2863 18.2721 72.0042 17.772C68.9967 17.832 65.9203 18.1876 62.8239 18.8367C64.8608 22.6087 65.0185 26.632 64.2233 29.2326C62.0865 36.2255 57.6308 42.7115 51.2115 46.1835C44.7923 49.6555 36.3407 49.6488 30.5278 45.2299C29.2639 44.2697 28.1733 43.145 27.2515 41.898C24.284 45.8701 21.9295 50.0778 20.2236 54.3633C20.2525 54.4011 20.277 54.4389 20.3036 54.4767C25.2302 61.1761 33.502 64.6503 41.7937 64.2436H41.7959Z" fill="url(#paint12_linear_13324_6688)"/>
<path d="M101.125 30.4727C96.3541 24.2734 89.5529 20.3436 81.7898 18.6787C87.4783 30.2371 86.4765 46.8857 72.041 59.4022C72.041 59.4022 100.252 46.1166 92.6514 23.0553C97.2493 30.0482 99.7126 38.168 99.1995 46.6145C97.6891 71.4541 77.4451 93.5063 53.123 98.4253C62.3121 99.8212 71.7255 98.3675 80.2549 94.7332C82.1118 93.5863 83.9377 92.326 85.7191 90.9478C107.158 74.3504 114.057 47.2747 101.125 30.4705V30.4727Z" fill="url(#paint13_linear_13324_6688)"/>
<path d="M37.0653 95.5404C56.7295 94.8913 74.6323 80.9656 86.6046 65.3062C76.025 72.3101 66.3917 78.0315 53.8375 79.7897C41.2833 81.548 27.0321 79.5741 18.1318 70.5186C17.7386 70.1185 17.3588 69.705 16.9901 69.2827C16.7257 77.0691 18.807 84.4954 23.4871 90.5769C24.5799 91.995 25.7794 93.2931 27.0721 94.4734C30.184 95.2781 33.5113 95.6559 37.0653 95.5381V95.5404Z" fill="url(#paint14_linear_13324_6688)"/>
<path d="M64.6989 60.1322C74.2528 52.7108 78.0828 41.6478 73.2536 35.4221C68.4244 29.1964 56.7647 30.1656 47.2109 37.5869C37.657 45.0082 33.827 56.0714 38.6562 62.2971C43.4853 68.5228 55.1451 67.5535 64.6989 60.1322Z" fill="#FFA6DF"/>
<path d="M63.5113 31.3217C61.1724 37.4988 56.9899 43.0602 51.2148 46.1832C47.3188 48.2904 42.6721 49.1128 38.323 48.4482C35.9729 53.5739 35.893 58.7063 38.634 62.2694C39.2337 63.0474 39.94 63.7142 40.7352 64.2722C41.0906 64.2699 41.4438 64.261 41.7992 64.2433C52.5431 63.7165 63.1826 58.5974 69.5574 49.9041C72.0785 46.4677 73.851 42.4756 74.7839 38.3079C74.4418 37.2765 73.9443 36.3163 73.2757 35.4494C71.1256 32.6554 67.6028 31.3017 63.5113 31.3195V31.3217Z" fill="#FF5CFF"/>
<path d="M122.108 67.2067C122.108 67.2067 125.896 69.1983 121.869 70.1385C117.568 71.1432 109.885 71.3455 106.771 72.9437C105.925 73.3771 88.9149 76.2067 89.3303 73.3838C88.5106 71.6967 85.13 70.9498 84.0194 70.8809C83.433 70.8454 81.3273 71.1565 79.5925 71.73C77.6134 72.3857 75.4678 72.5458 73.3865 72.2057C69.2884 71.5344 62.3072 70.8209 62.2872 70.4541C62.2783 70.283 62.7003 69.9429 63.2756 69.5606C63.3512 69.4628 63.4156 69.3783 63.4822 69.2938C63.8709 68.8315 64.2152 68.3447 64.5417 67.8468C61.2743 68.0069 54.8884 68.158 54.1887 66.9288C53.2447 65.2706 59.062 65.893 53.4024 65.4129C50.2506 65.1462 43.4648 64.8149 40.4551 64.4526C40.4551 64.4526 42.543 67.1155 43.427 67.9869C44.5487 69.0938 45.9259 70.203 47.6362 71.2521C48.7535 71.9345 49.3754 72.7281 49.8929 73.755C50.8991 75.7488 51.5122 78.6295 54.5885 83.3307C57.1829 87.2961 58.4912 89.1366 59.7639 90.5414C60.7768 91.6616 61.7697 92.5063 63.3711 93.9289C66.0388 96.2984 67.2449 98.25 68.4644 99.4525C68.8509 100.748 69.3106 101.731 70.6877 102.873C71.0276 103.156 71.3475 103.393 71.654 103.6C72.5136 104.185 73.2466 104.509 73.8841 104.778C75.2657 105.358 76.1919 105.665 76.9737 107.717C78.2087 111.504 79.1083 112.776 79.888 113.627C80.0235 113.76 80.9741 114.79 81.2629 117.446C81.3095 119.313 81.6782 120.813 81.8626 121.72C82.0358 122.576 82.4357 121.167 83.0576 119.273C83.6418 117.501 88.7883 114.112 93.1796 112.574C95.7606 111.669 96.4958 110.806 97.2421 109.079C98.0729 108.835 98.9858 108.533 99.9409 108.164C103.59 106.75 103.286 103.62 107.215 100.41C109.121 98.8545 109.925 98.3011 111.154 97.3764C112.455 96.3984 114.232 95.0025 118.304 91.555C122.964 87.6095 123.297 85.798 123.657 83.8175C123.908 82.4349 124.174 80.9723 125.931 78.6429C126.769 77.5337 127.333 76.798 127.717 76.2823C129.296 74.1706 130.034 73.0703 132.128 68.0735C133.221 65.4662 132.413 66.7199 133.685 65.7419C129.116 66.7754 122.106 67.2022 122.106 67.2022L122.108 67.2067Z" fill="#7816B7"/>
<path d="M110.421 71.8656C110.039 73.426 109.41 75.851 109.064 76.9335C108.277 79.3786 107.302 82.1326 106.869 83.2884C105.981 85.6712 103.837 89.4211 101.045 93.0775C98.4798 96.4384 96.9738 98.6478 95.3257 102.9C95.1791 103.276 95.0325 103.665 94.8859 104.076C93.0557 109.124 86.9984 111.838 85.146 114.465C84.2908 115.679 83.5956 117.655 83.0625 119.277C83.6467 117.506 88.7931 114.116 93.1844 112.578C95.7655 111.673 96.5007 110.811 97.247 109.084C97.3448 108.857 97.4447 108.613 97.5469 108.355C97.658 108.072 97.7779 107.763 97.9067 107.437C97.9911 107.223 98.08 106.999 98.1733 106.768C98.2111 106.674 98.2466 106.588 98.2844 106.492C98.4132 106.176 98.5509 105.847 98.7064 105.496C98.9285 104.992 99.1795 104.447 99.4727 103.856C102.327 98.0877 102.576 100.915 107.984 94.5401C113.393 88.163 115.328 86.1247 116.762 80.8278C117.289 78.8829 118.177 76.9313 119.099 75.1797C119.803 73.8439 121.265 71.4255 122.098 70.0474C122.027 70.0807 121.956 70.1163 121.871 70.1407C120.119 70.6386 112.411 71.6189 110.423 71.8678L110.421 71.8656Z" fill="#3A0060"/>
<path d="M113.855 77.8181C112.034 79.9453 108.464 87.8251 106.561 90.7547C103.173 95.7137 100.239 97.2785 98.3089 101.182C97.5892 102.638 97.9246 105.65 98.7065 105.496C98.6028 105.732 98.6028 105.732 98.7065 105.496C98.9286 104.992 99.1796 104.447 99.4728 103.856C102.327 98.0876 102.576 100.915 107.984 94.5401C113.393 88.1629 115.328 86.1246 116.763 80.8278C117.289 78.8828 118.178 76.9312 119.099 75.1797C116.871 76.0221 114.575 76.9824 113.857 77.8203L113.855 77.8181Z" fill="#541989"/>
<path d="M89.3303 73.3835C88.5107 71.6964 85.13 70.9496 84.0194 70.8807C83.433 70.8451 81.3273 71.1563 79.5926 71.7298C78.6463 72.0432 77.6601 72.2366 76.665 72.3233C78.0799 77.1645 79.4815 82.1479 79.7547 84.0884C80.5188 89.5031 81.605 98.532 80.5277 103.109C80.1656 104.642 80.0901 106.456 80.1101 108.148C80.1501 111.475 80.561 114.327 79.9057 113.645C80.0279 113.767 80.9786 114.796 81.2673 117.45C81.2407 116.276 81.3429 114.954 81.7116 113.542C81.7316 113.467 81.7538 113.389 81.7738 113.313C81.8249 113.131 81.8782 112.947 81.9404 112.762C82.2225 111.898 82.4535 111.144 82.6712 110.442C83.4508 107.914 84.0727 106.014 86.3828 101.813C89.3392 96.4426 86.6804 98.0919 88.1997 91.7436C88.9682 88.5317 90.0255 81.0054 90.783 74.446C90.0278 74.2148 89.5191 73.7703 89.3303 73.3835Z" fill="#3A0060"/>
<path d="M76.6901 106.81C76.4035 105.879 76.0993 104.814 75.775 103.594C73.8869 96.4764 73.4871 95.6472 69.9732 86.0826C67.3944 79.0653 64.1625 74.3997 62.812 71.6413C62.2612 71.5168 61.8192 71.4101 61.5104 71.3301C60.1955 70.9878 61.2728 70.3076 62.2057 69.3696C62.239 69.3385 62.259 69.3185 62.2834 69.2985C63.0719 68.5583 64.0492 68.4538 64.3158 68.4405C64.2114 68.4338 63.8694 68.4249 62.8476 68.4004C62.3167 68.3871 61.4882 68.4338 60.5398 68.4938C60.3932 68.5027 60.2399 68.5116 60.0866 68.5227C60.0866 68.5227 50.32 66.3777 51.2107 66.7867C52.1014 67.1957 54.9379 72.2147 54.9379 72.2147C54.9379 72.2147 56.6283 71.9769 58.5696 76.2713C59.6935 79.5321 61.7548 83.0419 64.6335 86.0071C71.1438 92.7132 67.7631 100.751 71.6569 103.607C72.5165 104.192 73.2495 104.516 73.8869 104.785C75.2685 105.365 76.1947 105.672 76.9766 107.724C76.8833 107.437 76.7878 107.135 76.6901 106.814V106.81Z" fill="#541989"/>
<path d="M76.6894 106.81C76.4029 105.879 76.0986 104.814 75.7743 103.594C73.8863 96.4764 73.4865 95.6473 69.9725 86.0827C67.3937 79.0654 64.1619 74.3998 62.8114 71.6413C62.7248 71.6213 62.9069 71.2924 63.269 70.7544C62.667 70.6411 62.2917 70.5388 62.2872 70.4543C62.2783 70.2832 62.7003 69.9453 63.2756 69.5652C63.3512 69.463 63.4178 69.3785 63.4844 69.2963C63.8731 68.834 64.2174 68.3472 64.5439 67.8493C61.2788 68.0093 54.8906 68.1627 54.191 66.9335C53.247 65.2753 59.0643 65.8977 53.4047 65.4176C50.2528 65.1508 45.7882 64.9641 42.7762 64.6018C42.2498 64.5396 41.3102 64.5018 40.4551 64.4551C41.6145 65.9021 42.9295 67.4981 43.427 67.9893C44.5487 69.0962 45.9259 70.2054 47.6362 71.2546C48.7535 71.937 49.3754 72.7305 49.8929 73.7574C50.8991 75.7512 51.5122 78.632 54.5885 83.3331C57.1829 87.2986 58.4912 89.139 59.7639 90.5438C60.7768 91.6641 61.7697 92.5087 63.3711 93.9313C66.0388 96.3008 67.2449 98.2524 68.4644 99.4549C67.9069 97.5856 67.4937 95.0627 64.6861 90.4505C59.9328 82.6396 59.8572 86.0049 56.9386 77.874C55.7347 74.5176 54.924 72.0014 54.0732 70.0476C54.4197 70.2765 54.7263 70.4788 54.9573 70.6255C55.9235 71.2457 58.058 71.2057 59.3152 72.1814C61.2943 73.7218 63.0846 76.5848 64.5417 79.3477C70.8499 91.3284 71.3941 94.0225 73.422 100.062C74.2483 102.525 74.1995 103.94 73.8841 104.783C75.2657 105.363 76.1919 105.668 76.9737 107.721C76.8804 107.435 76.7849 107.132 76.6872 106.812L76.6894 106.81Z" fill="#3A0060"/>
<path d="M122.108 67.2065C122.108 67.2065 122.406 69.8538 121.986 69.9361C121.608 70.5762 119.931 73.5925 119.096 75.1774C118.174 76.9289 117.286 78.8805 116.759 80.8255C115.324 86.1223 113.392 88.1606 107.981 94.5378C102.575 100.913 102.324 98.0853 99.474 103.847C99.1786 104.445 98.9276 104.989 98.7033 105.494C98.5478 105.847 98.4101 106.174 98.2813 106.49C98.2413 106.585 98.208 106.672 98.1702 106.763C98.0769 106.996 97.9858 107.221 97.9036 107.432C97.7748 107.761 97.6549 108.068 97.5438 108.35C97.4505 108.586 97.3528 108.855 97.2617 109.075C98.088 108.83 98.9943 108.53 99.9427 108.163C103.592 106.75 103.29 103.62 107.217 100.41C109.123 98.8544 109.927 98.3009 111.155 97.3762C112.457 96.3982 114.234 95.0023 118.305 91.5548C122.965 87.6094 123.299 85.7978 123.658 83.8173C123.909 82.4347 124.176 80.9722 125.933 78.6427C126.77 77.5335 127.334 76.7978 127.719 76.2821C129.298 74.1705 130.035 73.0702 132.13 68.0734C133.223 65.4661 132.414 66.7197 133.687 65.7417C129.118 66.7753 122.108 67.2021 122.108 67.2021V67.2065Z" fill="#21003A"/>
<path d="M59.0155 86.4291C54.9196 81.6657 54.2288 74.5973 49.8975 73.7549C50.9037 75.7487 51.5167 78.6294 54.593 83.3306C57.1874 87.296 58.4957 89.1365 59.7684 90.5413C60.9612 90.1212 60.9746 88.7053 59.0155 86.4269V86.4291Z" fill="#541989"/>
<path d="M117.019 85.86C115.602 89.5787 112.659 91.8259 108.614 96.5849C106.111 99.5279 107.963 98.9766 111.155 97.3829C112.457 96.4049 114.234 95.009 118.305 91.5614C122.965 87.616 123.299 85.8044 123.658 83.8239C121.424 81.8012 118.223 82.6948 117.017 85.86H117.019Z" fill="#3A0060"/>
<path d="M84.6482 102.538C86.072 98.8036 84.4083 98.0256 83.0934 100.008C82.929 100.617 82.6958 101.271 82.3737 102.015C81.7606 103.438 81.3097 104.95 80.981 106.308C80.7922 108.899 83.0156 106.814 84.646 102.536L84.6482 102.538Z" fill="#541989"/>
<path d="M86.5734 75.0374C85.2651 74.395 83.6769 74.3106 82.302 74.8329C82.1598 74.8863 82.0177 74.9441 81.8778 75.0063C81.358 75.2308 81.0315 75.7087 81.0648 76.2177C81.3558 80.6566 82.8262 86.4225 83.0084 90.4368C83.0417 90.5791 83.0728 90.7102 83.1061 90.8525C84.3366 93.5932 86.0314 96.3605 86.3512 93.3176C86.6711 90.2924 88.3037 82.4926 88.2504 76.6134C88.2459 76.1644 87.9661 75.7598 87.5285 75.5309C87.2108 75.3664 86.8954 75.1975 86.5734 75.0396V75.0374Z" fill="#541989"/>
<path d="M95.3222 74.5598C94.7847 75.2933 94.0761 76.6536 93.5586 77.8206C94.8025 77.6783 96.4728 77.5694 98.7584 77.5028C102.774 77.3872 105.218 77.2783 106.697 77.3116C106.744 76.6759 106.864 73.7485 106.77 72.9438C104.727 73.4529 99.9445 74.2353 95.3222 74.5576V74.5598Z" fill="#541989"/>
<path d="M66.3359 71.2212C66.4892 72.1636 67.0245 73.9374 67.2644 74.7287C67.6087 74.7865 68.0018 74.871 68.4705 74.9999C70.9227 75.6734 73.3416 75.7223 75.0919 76.0379C74.9186 75.5245 74.3478 73.8063 73.8102 72.2526C73.6703 72.2348 73.5282 72.2325 73.3882 72.2103C71.347 71.8769 68.5927 71.5324 66.3382 71.2256L66.3359 71.2212Z" fill="#541989"/>
<path d="M106.698 77.3115C106.431 81.0191 103.966 87.0295 100.892 91.3617C96.5072 97.5388 95.592 100.929 95.3232 102.9C96.9714 98.6502 98.4773 96.4407 101.043 93.0799C103.835 89.4212 105.978 85.6736 106.867 83.2908C107.293 82.1505 107.917 80.3456 108.608 78.3206C108.608 78.3206 108.679 78.0984 108.766 77.8383C108.559 77.4871 108.013 77.3426 106.696 77.3137L106.698 77.3115Z" fill="#B00FF2"/>
<path d="M90.2074 79.194C90.2074 79.194 89.8164 81.7546 89.6787 82.9416C89.3189 86.0046 88.828 89.1209 88.1994 91.7438C86.6801 98.092 89.3389 96.4427 86.3825 101.813C84.0702 106.014 83.4505 107.914 82.6709 110.442C84.7144 105.294 88.2661 103.191 92.2997 98.8856C97.0087 93.8576 99.4587 84.9421 98.5857 86.6447C97.7128 88.3452 90.816 96.7473 89.7187 94.7757C88.9258 93.3509 91.0048 83.5795 93.5614 77.8203C90.4695 78.1782 90.2652 78.5116 90.2096 79.1962L90.2074 79.194Z" fill="#B00FF2"/>
<path d="M76.6888 76.518C76.2646 76.2935 75.7204 76.1468 75.0918 76.0356C76.5067 80.2345 77.6506 86.7027 78.97 90.8971C78.97 90.8971 80.2827 97.9055 80.0384 103.338C79.9362 105.596 79.9807 107.146 80.1095 108.146C80.0895 106.454 80.165 104.641 80.5271 103.107C81.6043 98.5323 80.5182 89.5012 79.7541 84.0865C79.5275 82.4817 78.8945 80.3123 78.5324 78.8319C78.4636 78.5896 78.1926 77.3071 76.691 76.518H76.6888Z" fill="#B00FF2"/>
<path d="M64.7725 75.1886C66.3117 77.8937 68.2797 81.479 69.9723 86.0824C73.4862 95.6492 73.886 96.4761 75.774 103.593C76.0983 104.814 76.4026 105.878 76.6892 106.81C75.9051 102.246 74.5346 93.7977 71.3805 85.4178C69.5103 80.4477 67.9443 76.9713 67.2646 74.7285C65.7453 74.4818 65.2944 74.8663 64.7725 75.1886Z" fill="#B00FF2"/>
<path d="M129.638 62.2008H132.13C132.13 62.2008 106.584 50.4823 82.6688 51.4537C58.7532 52.4251 46.4678 60.3937 46.4678 60.3937L48.9089 60.4493C57.1695 57.3841 69.8303 54.29 84.6657 54.0744C100.712 53.841 119.716 58.4399 129.638 62.2008Z" fill="#FFF0FB"/>
<path d="M38.9089 65.513C41.5632 66.8178 47.3872 67.1401 49.5528 67.4713C51.7185 67.8025 50.9189 69.7918 57.4025 69.494C63.8884 69.1939 59.1284 69.514 58.6708 70.9499C58.2133 72.3858 62.4691 72.1702 68.1464 73.4505C73.8238 74.7309 75.7963 74.613 79.4501 73.2127C83.1018 71.8123 86.4047 73.3905 86.3225 74.5219C86.2381 75.6533 88.135 76.7269 101.129 76.2334C114.123 75.7422 105.196 73.8062 107.279 73.4239C109.363 73.0416 119.336 72.3792 122.448 70.9499C125.56 69.5207 122.284 68.4515 123.439 68.4226C124.594 68.3937 132.697 67.7291 136.173 65.513C139.649 63.2969 108.803 52.712 84.6655 53.0632C56.5674 53.4722 36.2545 64.2082 38.9089 65.513Z" fill="#C153EA"/>
<path d="M52.8674 67.0198C53.7937 68.678 64.913 67.8222 64.913 67.8222C64.913 67.8222 60.7949 70.0027 60.8215 70.5429C60.8393 70.9119 67.6984 71.6254 71.7232 72.2944C73.7667 72.6345 75.8724 72.4722 77.8181 71.8187C79.524 71.2453 81.4676 70.6451 82.0451 70.6807C83.1357 70.7496 86.5785 71.7854 87.3826 73.4725C88.602 76.0287 104.119 74.8529 105.448 74.5839C106.747 74.3216 103.131 72.2433 103.673 72.3011C104.213 72.3589 116.358 70.7874 120.581 69.7827C124.537 68.8425 119.577 67.2954 119.577 67.2954C119.577 67.2954 135.922 66.2863 134.783 63.51C128.324 59.7113 104.281 52.7762 84.6683 53.0607C61.0037 53.4053 42.861 61.0761 39.3115 64.2658C41.6127 64.937 47.9897 65.1482 52.0967 65.5016C57.6563 65.9818 51.9412 65.3594 52.8697 67.0176L52.8674 67.0198Z" fill="#E38DFF"/>
<path d="M63.3619 63.2235C63.3619 63.2235 56.4495 64.5283 57.6623 65.5041C58.8751 66.4799 72.1333 65.8686 72.1333 65.8686C72.1333 65.8686 64.5813 67.6135 65.7052 69.025C66.8314 70.4364 82.1354 67.8224 83.417 67.8224C83.8924 67.8224 84.9408 68.0447 86.1069 68.7026C88.0793 69.814 91.0513 71.5767 96.9574 71.3211C102.382 71.0855 95.6203 68.487 95.6203 68.487C95.6203 68.487 112.744 67.9047 115.547 67.4979C118.35 67.0911 107.597 63.4636 107.597 63.4636C107.597 63.4636 135.171 65.0284 128.518 60.7762C118.336 57.0998 100.125 52.8387 84.6631 53.0632C65.9496 53.3366 50.6922 58.1889 43.3711 61.7854C45.1281 63.468 63.3574 63.2257 63.3574 63.2257L63.3619 63.2235Z" fill="#F0B3FF"/>
<path d="M91.8631 54.2058C85.6393 53.759 82.7718 58.9647 117.298 60.983C131.805 61.8321 111.969 55.6461 91.8631 54.2058Z" fill="#FDCFFF"/>
<path d="M78.8058 62.6899C76.9556 62.3743 73.0707 62.2031 69.679 62.5721C66.4338 62.9255 63.6418 63.808 63.5196 64.0703C63.102 64.966 84.9163 63.7346 78.8058 62.6899Z" fill="#FDCFFF"/>
<path d="M85.3832 54.9481C78.4797 52.4675 48.9623 59.2781 48.7779 61.063C48.5913 62.8479 95.7673 58.6802 85.3832 54.9481Z" fill="#FDCFFF"/>
<path d="M110.335 65.7461C100.5 62.2697 85.0004 59.1756 83.721 61.4917C83.5322 61.834 83.1279 64.0701 92.6324 65.6839C100.869 67.082 111.533 66.1684 110.335 65.7461Z" fill="#FDCFFF"/>
<defs>
<linearGradient id="paint0_linear_13324_6688" x1="116.224" y1="130.55" x2="35.7008" y2="26.2891" gradientUnits="userSpaceOnUse">
<stop stop-color="#A30061"/>
<stop offset="1" stop-color="#FF89F1"/>
</linearGradient>
<linearGradient id="paint1_linear_13324_6688" x1="111.922" y1="121.209" x2="37.6361" y2="25.0239" gradientUnits="userSpaceOnUse">
<stop stop-color="#73005B"/>
<stop offset="1" stop-color="#FF49F5"/>
</linearGradient>
<linearGradient id="paint2_linear_13324_6688" x1="121.147" y1="114.141" x2="46.7984" y2="17.8756" gradientUnits="userSpaceOnUse">
<stop stop-color="#73005B"/>
<stop offset="1" stop-color="#FF49F5"/>
</linearGradient>
<linearGradient id="paint3_linear_13324_6688" x1="94.4363" y1="134.734" x2="20.1601" y2="38.5612" gradientUnits="userSpaceOnUse">
<stop stop-color="#73005B"/>
<stop offset="1" stop-color="#FF49F5"/>
</linearGradient>
<linearGradient id="paint4_linear_13324_6688" x1="110.309" y1="122.492" x2="36.0586" y2="26.3529" gradientUnits="userSpaceOnUse">
<stop stop-color="#73005B"/>
<stop offset="1" stop-color="#FF49F5"/>
</linearGradient>
<linearGradient id="paint5_linear_13324_6688" x1="106.388" y1="127.815" x2="46.0595" y2="28.437" gradientUnits="userSpaceOnUse">
<stop stop-color="#670049"/>
<stop offset="1" stop-color="#ED4BB0"/>
</linearGradient>
<linearGradient id="paint6_linear_13324_6688" x1="110.113" y1="122.595" x2="35.606" y2="26.1233" gradientUnits="userSpaceOnUse">
<stop stop-color="#53003D"/>
<stop offset="1" stop-color="#D7009D"/>
</linearGradient>
<linearGradient id="paint7_linear_13324_6688" x1="111.915" y1="121.203" x2="37.6379" y2="25.0286" gradientUnits="userSpaceOnUse">
<stop stop-color="#53003D"/>
<stop offset="1" stop-color="#D7009D"/>
</linearGradient>
<linearGradient id="paint8_linear_13324_6688" x1="121.15" y1="114.141" x2="46.7975" y2="17.8704" gradientUnits="userSpaceOnUse">
<stop stop-color="#53003D"/>
<stop offset="1" stop-color="#D7009D"/>
</linearGradient>
<linearGradient id="paint9_linear_13324_6688" x1="110.199" y1="122.576" x2="35.9567" y2="26.4475" gradientUnits="userSpaceOnUse">
<stop stop-color="#53003D"/>
<stop offset="1" stop-color="#D7009D"/>
</linearGradient>
<linearGradient id="paint10_linear_13324_6688" x1="94.436" y1="134.722" x2="20.1707" y2="38.5638" gradientUnits="userSpaceOnUse">
<stop stop-color="#53003D"/>
<stop offset="1" stop-color="#D7009D"/>
</linearGradient>
<linearGradient id="paint11_linear_13324_6688" x1="116.286" y1="130.381" x2="35.1376" y2="25.3478" gradientUnits="userSpaceOnUse">
<stop stop-color="#A30061"/>
<stop offset="1" stop-color="#FF8DD9"/>
</linearGradient>
<linearGradient id="paint12_linear_13324_6688" x1="111.781" y1="121.292" x2="37.5144" y2="25.1317" gradientUnits="userSpaceOnUse">
<stop stop-color="#73005B"/>
<stop offset="0.13" stop-color="#84006A"/>
<stop offset="1" stop-color="#F700D1"/>
</linearGradient>
<linearGradient id="paint13_linear_13324_6688" x1="117.554" y1="116.944" x2="43.1824" y2="20.6483" gradientUnits="userSpaceOnUse">
<stop stop-color="#73005B"/>
<stop offset="0.13" stop-color="#84006A"/>
<stop offset="1" stop-color="#F700D1"/>
</linearGradient>
<linearGradient id="paint14_linear_13324_6688" x1="97.1493" y1="132.61" x2="22.9003" y2="36.4724" gradientUnits="userSpaceOnUse">
<stop stop-color="#73005B"/>
<stop offset="0.13" stop-color="#84006A"/>
<stop offset="1" stop-color="#F700D1"/>
</linearGradient>
</defs>
</svg>
