<svg width="136" height="74" viewBox="0 0 136 74" fill="none" xmlns="http://www.w3.org/2000/svg">
<path d="M128.064 13.73C128.542 14.159 129.308 14.6903 129.663 15.2171C130.634 16.6686 124.43 15.6483 121.636 17.4021C118.842 19.1558 112.685 18.7691 114.362 19.3336C116.039 19.896 117.773 20.6051 112.44 21.752C110.232 22.2255 112.978 23.6436 111.27 24.2282C109.562 24.8128 97.4073 25.2751 97.4073 25.2751C97.4073 25.2751 101.017 26.2731 100.704 26.8111C99.8617 28.2559 83.7914 29.2739 83.7914 29.2739C83.7914 29.2739 89.7709 30.2986 91.6522 31.1321C93.5336 31.9657 87.3298 34.8308 84.0002 35.6622C80.6729 36.4935 73.4695 37.7827 68.7473 37.6938C64.025 37.6049 58.0344 34.2996 58.2099 33.8928C58.3876 33.4861 61.4195 32.0479 61.4195 32.0479C61.4195 32.0479 57.1903 33.1526 53.8408 32.9259C50.4912 32.6992 41.5865 31.8701 41.5687 30.7965C41.562 30.472 43.5367 29.305 43.5367 29.305C43.5367 29.305 41.0156 29.4628 40.9823 28.6315C40.969 28.3159 46.2021 27.2734 46.2021 27.2734C46.2021 27.2734 41.4199 27.4712 37.7082 26.8C35.969 26.4843 32.9638 25.5463 33.0127 24.9373C33.0615 24.3305 35.5137 24.4438 35.5137 24.4438C35.5137 24.4438 34.623 23.9281 31.64 23.6547C28.6569 23.3813 19.4989 22.3677 19.1635 21.7787C18.968 21.4364 19.9476 20.6807 22.02 20.0694C18.8859 19.7804 15.7406 19.4026 14.1503 18.958C11.276 18.1556 14.3724 18.0044 13.3684 17.6933C12.3622 17.3798 6.14507 16.0239 6.285 15.5883C6.42272 15.1526 7.59329 14.5769 6.8092 14.2257C6.37607 14.0301 4.02384 13.6611 2.37793 13.2433C2.6889 15.1082 3.34636 18.8602 4.17265 22.5122C5.33433 27.6424 5.72972 26.6533 7.82875 29.2739C9.16147 30.9365 10.8185 31.2966 12.4466 31.5456C12.7753 32.0213 13.1263 32.4569 13.4928 32.8503C15.2764 34.7575 17.4354 35.7444 19.008 36.3246C19.2057 36.5868 19.4278 36.8691 19.6855 37.1803C23.0328 41.2324 23.0617 38.7474 27.3797 42.0082C29.9052 43.9153 31.4223 45.7424 32.4551 46.6805C32.8216 47.3651 33.1126 47.8385 33.3725 48.1742C33.388 48.1942 33.4014 48.2097 33.4147 48.2253C33.4413 48.2586 33.4658 48.2897 33.4924 48.3186C33.508 48.3364 33.5235 48.3542 33.5391 48.372C33.5613 48.3964 33.5835 48.4209 33.6057 48.4454C33.6213 48.4609 33.6368 48.4787 33.6524 48.4942C33.6768 48.5187 33.7034 48.5431 33.7279 48.5654C33.7967 48.6276 33.8323 48.6565 33.8678 48.6832C33.9345 48.7321 33.9567 48.7476 33.9789 48.761C34.05 48.8054 34.0722 48.8188 34.0944 48.8299C34.1699 48.8721 34.1988 48.8854 34.2276 48.8988C34.2499 48.9099 34.2721 48.9188 34.2943 48.9277C34.3187 48.9366 34.3409 48.9477 34.3654 48.9566C34.3854 48.9632 34.4053 48.9722 34.4253 48.9788C34.4453 48.9855 34.4653 48.9922 34.4875 49.001C34.5097 49.0077 34.5319 49.0144 34.5542 49.0233C34.874 49.1166 35.1739 49.1789 35.547 49.2789C35.6248 49.2989 35.6847 49.3167 35.7447 49.3345C35.8513 49.3656 35.9135 49.3834 35.9757 49.4034C36.0957 49.4411 36.1756 49.4678 36.2578 49.4945C36.3467 49.5256 36.4244 49.5523 36.5044 49.5834C36.5288 49.5923 36.5532 49.6012 36.5799 49.6123C36.6443 49.6368 36.7109 49.6612 36.7776 49.6879C36.8065 49.699 36.8331 49.7101 36.862 49.7212C36.9397 49.7523 37.0219 49.7857 37.1041 49.8212C37.2551 49.8857 37.3595 49.9324 37.4661 49.9813C37.4928 49.9924 37.5194 50.0057 37.5461 50.0191C37.6283 50.0569 37.7127 50.0991 37.7993 50.1413C37.8371 50.1591 37.8748 50.1791 37.9126 50.1969C37.997 50.2391 38.0814 50.2814 38.1703 50.328C38.2058 50.3458 38.2413 50.3658 38.2791 50.3836C38.4035 50.4481 38.5301 50.517 38.6634 50.5903C39.674 51.1505 40.5847 51.5506 41.4088 51.8529C42.1151 52.1129 42.7548 52.2996 43.339 52.453C43.5345 52.5041 43.7232 52.5508 43.9054 52.5953C44.1786 52.6619 44.4407 52.7242 44.6895 52.7864C44.8561 52.8264 45.016 52.8687 45.1715 52.9109C45.3536 52.9598 45.5291 53.0109 45.6979 53.0665C46.1199 53.68 46.362 53.1821 47.4837 54.1045C47.7436 54.3224 47.9991 54.5602 48.2945 54.8714C50.7133 57.4254 51.051 58.4412 51.051 58.4412C51.051 58.4412 51.5308 57.5876 51.9061 56.0006C52.0816 55.2626 52.2349 54.3646 52.306 53.3199C52.4526 53.3777 52.6236 53.4444 52.8124 53.5199C53.4987 53.9223 54.3472 54.2023 55.2801 54.498C55.8843 54.7358 56.5173 54.9825 57.1371 55.2204C59.4582 56.1095 60.3067 57.3698 60.9575 57.901C61.595 58.4212 62.5834 58.9657 62.6167 58.9835C64.6824 61.6508 64.758 64.2804 66.1018 67.0833C66.375 67.6546 66.6216 68.2303 66.8481 68.7882C67.3856 71.0088 68.8028 73.1382 68.9205 73.1715C69.0382 73.2049 69.7979 72.4536 70.8152 71.5111C71.8325 70.5686 73.856 68.5281 73.856 68.5281C73.8893 68.4859 73.9604 68.417 74.0248 68.3458C74.5445 67.759 74.8044 67.1456 75.0243 66.4743C75.0976 66.2498 75.1843 66.052 75.3531 65.8986C75.5619 65.783 75.8328 65.683 76.1727 65.5452C76.5081 65.4518 76.8502 65.3696 77.1767 65.2562C78.0963 64.9406 78.9559 64.5093 79.7111 64.0114C81.1993 63.0312 82.3232 61.7109 82.8518 60.2972C82.9429 60.0505 83.0162 59.7993 83.0784 59.5414C83.3405 59.3014 83.667 59.0369 84.0935 58.7346C85.9748 57.4053 88.7646 56.4607 91.0236 55.5316C91.2302 55.4538 91.4323 55.3649 91.6189 55.2804C92.4985 54.8781 94.5953 54.3757 95.637 53.0843C96.6788 51.7929 98.1226 51.8595 99.5375 50.597C100.952 49.3344 101.583 46.8227 101.583 46.8227C101.645 46.6894 101.712 46.5515 101.779 46.4048C102.436 44.9711 102.934 44.1243 103.416 43.4552C104.06 43.1662 104.611 42.9395 105.099 42.7506C105.153 42.7306 105.675 42.5461 106.465 42.2549C106.654 42.1905 106.834 42.1282 107.005 42.0704C107.5 41.9015 107.929 41.7481 108.367 41.5481C108.647 41.4414 108.938 41.3325 109.233 41.2191C111.459 40.3678 114.657 36.7869 114.657 36.7869C114.753 36.7046 114.855 36.6179 114.95 36.5357C115.87 35.74 117.64 33.9084 117.947 33.5327C118.546 32.797 119.131 32.0346 119.69 31.2411C121.816 28.487 123.018 27.7535 126.707 22.3388C129.61 18.0778 133.093 14.5725 134.139 12.2363C133.235 12.6609 129.979 12.6053 128.708 12.7698C128.493 12.7987 127.198 12.9454 128.078 13.7323L128.064 13.73Z" fill="#3A0060"/>
<path d="M111.269 24.2282C109.561 24.8128 97.4066 25.2751 97.4066 25.2751C97.4066 25.2751 101.016 26.2731 100.703 26.811C99.8611 28.2558 83.7907 29.2739 83.7907 29.2739C83.7907 29.2739 89.4748 30.2497 91.4983 31.0721C91.3783 30.6209 91.0562 30.1185 90.6853 29.6673C91.5893 29.9185 94.3236 30.4186 94.7945 31.281C95.0144 31.6856 94.2437 32.9592 93.9305 34.473C92.2201 40.0543 89.4747 43.9153 87.9221 48.6565C87.2113 50.8281 86.7671 52.4041 85.9297 53.4199C85.1812 54.329 84.0128 54.7869 83.7929 54.8847C82.047 55.307 80.5611 54.8891 80.9565 54.1845C81.3985 53.3977 83.242 52.124 83.242 52.124C84.2105 51.4483 85.1367 50.5258 85.6409 49.3767C86.4739 47.4695 89.5325 37.976 90.9185 33.6327L90.974 33.6705C90.974 33.6705 91.1118 33.1504 91.3206 32.428C90.8474 32.8014 90.1589 33.2082 89.3681 33.6083C88.5507 36.3868 87.4379 41.2813 86.1518 44.7577C86.0963 44.9066 86.0385 45.0511 85.9786 45.1934C85.9897 45.1667 84.2749 50.8815 82.5113 51.6439C80.7477 52.4085 78.8374 52.713 78.6486 53.3976C78.4598 54.0823 76.8939 57.0497 75.961 57.8943C75.0303 58.739 72.7936 59.3903 72.5714 59.6259C72.4093 59.797 72.0495 61.2107 71.563 62.82C71.543 62.8845 71.523 62.9534 71.5008 63.0267C71.4941 63.0467 71.4875 63.0667 71.4808 63.089C71.4697 63.1245 71.4586 63.1601 71.4475 63.1934C71.4386 63.2223 71.4297 63.2512 71.4209 63.2824C70.6612 65.6407 69.0553 67.6968 68.9642 67.5368C68.8931 67.4145 68.5022 66.4698 68.2468 65.8986C68.0113 65.0161 67.7825 64.1515 67.7026 63.8358C67.5138 63.1001 67.0873 61.3752 66.9474 60.8129C66.9318 60.7528 66.9185 60.6928 66.9029 60.6328C66.4032 58.6234 65.9545 56.8741 65.5769 55.6893C65.4969 55.4359 65.4192 55.207 65.3437 55.007C65.1971 54.6135 65.0638 54.3312 64.9461 54.1823C64.3041 53.3821 61.8275 52.9687 61.3522 53.1732C60.8768 53.3777 59.1532 53.2265 59.1532 53.2265C58.9311 53.2176 58.127 53.0354 57.103 52.7019C56.7476 52.5864 56.3656 52.453 55.9725 52.3018C54.6109 51.7795 53.1071 51.0482 52.0854 50.1479C51.8721 49.939 51.6589 49.7256 51.4412 49.5056C50.9303 48.9832 50.4172 48.5876 49.913 48.2297C49.1223 47.6318 46.1703 47.1561 45.0553 45.3601C43.9402 43.5641 43.9247 43.7597 42.5031 39.2364C41.7124 36.7224 41.2881 34.2862 41.166 32.2568C41.6635 32.7925 43.4671 34.7086 43.4671 34.7086L42.7919 31.4766C42.0455 31.2632 41.5702 31.0321 41.5658 30.7898C41.5591 30.4653 43.5338 29.2983 43.5338 29.2983C43.5338 29.2983 41.0127 29.4561 40.9794 28.6248C40.9661 28.3092 46.1992 27.2667 46.1992 27.2667C46.1992 27.2667 41.417 27.4645 37.7053 26.7933C35.9661 26.4776 33.0519 25.5685 33.1008 24.9595C33.1497 24.3526 35.5108 24.4393 35.5108 24.4393C35.5108 24.4393 34.6201 23.9236 31.637 23.6502C28.654 23.3768 19.496 22.4388 19.1606 21.8498C18.9651 21.5075 19.9447 20.6762 22.017 20.0649C18.8829 19.7759 15.7377 19.3981 14.1473 18.9535C11.2731 18.1511 14.3694 18 13.3655 17.6888C12.3593 17.3754 6.14214 16.0194 6.28207 15.5838C6.41979 15.1481 7.59036 14.5724 6.80627 14.2212C6.37314 14.0256 4.02091 13.6567 2.375 13.2388C2.68597 15.1037 3.34343 18.8557 4.16972 22.5077C5.3314 27.6379 5.72679 26.6488 7.82582 29.2694C9.15854 30.9321 10.8155 31.2921 12.4437 31.5411C12.0061 30.9054 11.6107 30.1963 11.282 29.3939C9.40064 24.8261 7.64367 20.1405 6.78407 17.3176C7.71253 17.5976 8.81424 17.771 9.62054 18.0955C10.509 18.4556 11.6063 20.2538 12.3815 21.6809C14.1962 25.9486 15.3268 30.961 14.4361 32.4058C14.2295 32.7392 13.903 32.8681 13.4943 32.8436C15.2779 34.7508 17.4369 35.7377 19.0095 36.3178C19.2072 36.5801 19.4294 36.8624 19.687 37.1736C23.0344 41.2257 23.0632 38.7407 27.3812 42.0015C29.9067 43.9086 31.4238 45.7357 32.4567 46.6738C32.3989 46.5671 32.3411 46.4581 32.2812 46.3426C30.1888 42.3349 31.4082 44.6466 26.1951 40.2944C20.982 35.9422 23.5919 36.9313 20.9575 29.205C20.6532 28.3136 20.3978 27.549 20.1757 26.8733C20.0468 26.4665 19.2539 23.9059 19.1961 23.7236C19.5115 23.7214 20.5844 23.8881 23.6896 24.4127C29.5713 25.4085 30.2088 27.0622 30.773 28.9983C31.3372 30.9321 31.7436 33.6594 31.7436 33.6594C32.0391 35.8577 32.3367 38.1228 33.123 40.2211C34.0848 42.7906 36.0217 44.7866 37.3921 46.1981C38.2784 47.1117 36.8813 46.5893 34.3136 44.5688C31.7459 42.5483 27.1991 33.8261 27.1991 33.8261C27.1991 33.8261 28.0831 39.7921 31.2661 43.2996C33.8937 46.1959 35.5996 48.5365 33.3718 48.1697C33.3873 48.1897 33.4007 48.2053 33.414 48.2208C33.4406 48.2542 33.4651 48.2853 33.4917 48.3142C33.5073 48.3319 33.5228 48.3498 33.5384 48.3675C33.5606 48.392 33.5828 48.4164 33.605 48.4409C33.6205 48.4564 33.6361 48.4742 33.6517 48.4898C33.6761 48.5142 33.7027 48.5387 33.7272 48.5609C33.796 48.6231 33.8316 48.652 33.8649 48.6787C33.9315 48.7276 33.9537 48.7432 33.9759 48.7565C34.047 48.801 34.0692 48.8143 34.0915 48.8254C34.167 48.8676 34.1981 48.881 34.2269 48.8943C34.2492 48.9054 34.2714 48.9143 34.2936 48.9232C34.318 48.9343 34.3402 48.9432 34.3647 48.9521C34.3846 48.9588 34.4046 48.9677 34.4246 48.9743C34.4446 48.981 34.4668 48.9877 34.4868 48.9966C34.509 49.0032 34.5312 49.0099 34.5535 49.0188C34.8733 49.1121 35.1732 49.1744 35.5463 49.2744C35.6241 49.2944 35.684 49.3122 35.744 49.33C35.8506 49.3611 35.9128 49.3789 35.9728 49.3989C36.0927 49.4367 36.1727 49.4633 36.2549 49.49C36.3437 49.5211 36.4215 49.5478 36.5014 49.5767C36.5259 49.5856 36.5503 49.5945 36.577 49.6056C36.6414 49.6301 36.708 49.6545 36.7747 49.6812C36.8013 49.6923 36.8302 49.7034 36.8591 49.7145C36.9368 49.7456 37.019 49.779 37.1012 49.8145C37.2522 49.879 37.3566 49.9257 37.4632 49.9746C37.4899 49.9857 37.5165 49.999 37.5432 50.0124C37.6254 50.0502 37.7098 50.0902 37.7942 50.1324C37.8319 50.1502 37.8697 50.1702 37.9075 50.188C37.9896 50.2302 38.0763 50.2724 38.1629 50.3191C38.1984 50.3391 38.2362 50.3569 38.274 50.3769C38.3983 50.4414 38.5249 50.5103 38.6582 50.5836C39.6089 51.1104 40.4707 51.495 41.2548 51.7906C41.4236 51.855 41.5902 51.9151 41.7501 51.9706C41.8634 52.0107 41.9767 52.0484 42.0878 52.084C43.3028 52.4797 44.3134 52.673 45.1663 52.9042C45.3485 52.9531 45.5239 53.0042 45.6928 53.0598C45.5328 52.8264 45.3462 52.4352 45.0753 51.7417C43.9424 48.8476 42.9696 49.1988 40.4219 46.9472C37.8741 44.6955 38.385 44.8689 36.4592 41.408C34.5335 37.9471 35.0443 38.1183 34.5335 34.0151C34.1825 31.1966 33.5739 28.6426 33.3207 26.8755C34.9688 27.4401 36.7635 28.0113 37.8031 28.2781C37.9008 28.3181 38.0052 28.3581 38.0896 28.3959C38.6071 28.6381 38.8692 30.1763 39.0003 31.6545C39.0047 31.7056 39.0203 31.7678 39.0314 31.8256C39.0003 34.0395 39.1758 36.6846 40.413 39.392C43.1695 45.4268 42.6475 46.1136 47.4986 49.0544C52.3497 51.9951 51.3257 54.9736 51.0481 58.4322C51.0481 58.4322 51.5278 57.5787 51.9032 55.9916C52.0787 55.2537 52.232 54.3557 52.303 53.311C52.4519 53.3688 52.6207 53.4354 52.8095 53.511C53.4603 53.7689 54.3354 54.1178 55.2772 54.489C55.8814 54.7269 56.5144 54.9736 57.1341 55.2114C59.4553 56.1006 60.3038 57.3609 60.9546 57.8921C61.5921 58.4123 62.5805 58.9568 62.6138 58.9746C61.5076 57.1053 62.365 56.1005 63.4334 57.8743C63.9088 58.6656 64.4841 59.7726 65.0527 60.9062C67.2717 68.2102 66.7008 68.1725 66.8474 68.7793C67.3849 71.0021 68.8021 73.1292 68.922 73.1626C69.0397 73.1959 69.7994 72.4446 70.8167 71.5022C71.834 70.5597 73.8575 68.5192 73.8575 68.5192C73.5132 68.7926 71.0855 70.6953 70.077 70.5353C68.9975 70.3641 69.7305 69.415 71.9139 67.0166C74.0974 64.6182 73.4999 62.5511 74.3151 62.84C75.1302 63.129 75.3146 64.785 75.3146 64.785C75.3013 64.8628 75.2857 64.9361 75.2702 65.0117C75.3679 64.9761 75.4657 64.9405 75.5701 64.9116C76.0476 64.7805 76.5163 64.6471 76.9738 64.4782C77.8645 64.1448 78.6775 63.718 79.3949 63.2046C80.1124 62.6933 80.7388 62.1154 81.2208 61.4708C81.7205 60.804 82.0048 60.0771 82.3003 59.3547C82.8955 57.8943 83.2576 56.3962 84.6792 55.2114C84.7436 55.1581 84.8657 55.2381 84.8058 55.2915C83.4597 56.4851 83.4397 58.0677 83.0821 59.5348C83.3442 59.2947 83.6708 59.0302 84.0972 58.7279C85.9786 57.3987 88.7684 56.454 91.0273 55.5249C91.2339 55.4471 91.436 55.3582 91.6226 55.2737C92.5022 54.8714 94.599 54.369 95.6408 53.0776C96.6825 51.7861 98.1263 51.8528 99.5412 50.5903C100.956 49.3278 101.587 46.816 101.587 46.816C101.476 47.0383 99.5501 49.0077 97.4422 49.7367C96.9646 49.9012 96.678 49.6212 96.5048 49.1122C97.089 45.8513 102.815 37.4581 104.854 32.1257C106.898 26.7844 110.15 25.5085 110.15 25.5085C110.15 25.5085 111.409 24.4127 111.64 24.0326C111.551 24.1015 111.44 24.1637 111.28 24.2193L111.269 24.2282ZM19.5671 27.5312C19.6359 27.8224 19.7003 28.058 19.7559 28.2203C20.1135 29.6251 20.3556 31.0632 20.4377 32.4591C20.6177 35.4687 19.6426 34.9175 18.6475 33.6438C17.839 32.6058 17.3214 31.4366 17.0771 30.2208C16.9061 29.3628 16.6395 28.307 16.1975 26.9555C15.409 24.5371 14.8448 22.9145 14.4339 21.7009C14.3561 20.9029 14.2562 20.5517 14.1695 20.4005C14.3672 20.4383 14.756 20.5072 15.4623 20.6717C16.3086 20.8695 17.7612 22.8434 18.7297 25.0417C19.0451 25.8419 19.3227 26.6799 19.5648 27.5334L19.5671 27.5312ZM79.8192 57.7854C79.7748 57.8788 79.7281 57.9788 79.6793 58.0855C79.6326 58.1744 79.6082 58.2322 79.5926 58.2789C79.4993 58.4923 79.4016 58.7279 79.295 58.9902C78.8974 59.9771 78.5242 60.5861 78.1755 61.004C76.3852 62.6289 73.7798 61.6108 74.1485 60.8528C74.5194 60.0949 74.9837 59.6259 75.4523 59.3525C75.9632 59.0457 76.5207 58.6834 77.0494 58.2211C77.8779 57.5809 79.2128 55.7271 79.717 55.7449C80.1724 55.7605 80.2412 56.7829 79.8192 57.7876V57.7854ZM99.3791 37.2403C98.0086 40.2522 97.3844 41.5969 97.3844 41.5969L96.5337 43.3818C96.5426 43.2218 96.5337 43.1551 96.5003 43.2151C96.2227 43.7019 94.5013 46.2981 94.3769 49.33C94.2525 52.3641 94.217 52.7997 92.6622 53.3288C91.1073 53.8556 91.476 50.7748 92.1335 48.023C92.5444 46.3048 93.2774 44.6533 93.7683 43.6575C93.7861 43.6241 93.8039 43.5886 93.8216 43.5552C93.8905 43.4219 93.9549 43.2996 94.0171 43.184C94.077 43.0684 94.1348 42.9617 94.1903 42.8595C94.2725 42.7061 94.3503 42.5638 94.4258 42.4238C94.4769 42.3304 94.5279 42.2393 94.5813 42.146C94.6079 42.0993 94.6346 42.0526 94.6635 42.0059C94.719 41.9103 94.7767 41.8148 94.8367 41.7125C95.1143 41.2546 95.4698 40.6967 96.045 39.812C96.8758 38.5362 97.7731 36.0845 99.017 33.406C99.208 32.9948 99.4079 32.5769 99.6167 32.1568C99.7211 31.9479 99.8277 31.7367 99.9366 31.5278C100.156 31.1077 100.383 30.6876 100.623 30.2697C101.285 29.1183 102.04 28.0025 102.891 26.9733C103.268 28.5092 100.738 34.2418 99.3724 37.2425L99.3791 37.2403Z" fill="#21003A"/>
<path d="M128.064 13.7301C128.541 14.1591 129.308 14.6904 129.663 15.2172C130.634 16.6686 124.43 15.6484 121.636 17.4021C118.841 19.1559 112.684 18.7691 114.361 19.3337C115.634 19.7605 116.933 20.274 115.156 20.9964C114.999 21.2742 114.845 21.5543 114.672 21.8277C114.654 21.8566 114.626 21.881 114.597 21.901C113.857 23.5859 112.749 26.0487 111.358 28.9739C108.704 34.5575 109.768 34.3908 107.007 38.7097C105.876 40.4768 105.114 41.3881 104.477 42.1327C104.093 42.584 103.753 42.9752 103.406 43.4575C104.05 43.1685 104.601 42.9418 105.09 42.7529C105.143 42.7329 105.665 42.5484 106.456 42.2572C106.645 42.1927 106.825 42.1305 106.996 42.0727C107.42 41.9016 107.873 41.7326 108.357 41.5504C108.637 41.4437 108.928 41.3348 109.224 41.2214C111.449 40.3701 114.648 36.7892 114.648 36.7892C114.557 36.8514 110.903 39.3854 111.736 36.8292C112.578 34.2441 114.539 29.5807 114.661 29.3362C115.281 28.1048 115.987 26.7022 116.82 25.064C118.988 20.803 123.059 18.8314 127.329 17.7445C127.153 18.1201 126.962 18.5447 126.753 19.027C124.947 23.2014 124.485 22.4123 121.862 27.6358C121.216 28.9206 120.474 30.1142 119.679 31.2411C121.804 28.4871 123.006 27.7536 126.696 22.3389C129.821 17.7511 133.121 14.3747 134.09 12.252C133.184 12.6676 129.952 12.6076 128.695 12.7699C128.479 12.7988 127.184 12.9455 128.064 13.7323V13.7301Z" fill="#21003A"/>
<path d="M114.937 36.5335C115.856 35.7378 117.626 33.9062 117.933 33.5306C118.533 32.7948 119.117 32.0324 119.677 31.2389C120.472 30.1119 121.214 28.9183 121.86 27.6336C124.263 22.8501 124.854 23.1057 126.322 19.9761C121.409 22.0855 122.2 27.5313 114.937 36.5335Z" fill="#541989"/>
<path d="M104.477 42.1308C105.114 41.3862 105.876 40.4749 107.006 38.7078C109.767 34.3889 108.706 34.5556 111.358 28.972C111.969 27.6873 112.524 26.4914 113.019 25.4111C111.56 26.7203 109.896 28.4586 109.008 32.1928C108.246 35.3914 105.549 40.8061 104.477 42.1286V42.1308Z" fill="#541989"/>
<path d="M42.9984 47.2943C40.6928 45.7651 38.8781 43.8891 37.8452 41.0728C37.5498 40.2659 37.2166 38.8456 36.9678 37.1918C36.2415 32.3351 35.6218 29.4633 33.4072 27.4961C33.6982 29.2187 34.218 31.5215 34.5289 34.0177C35.0398 38.121 34.529 37.9498 36.4547 41.4107C38.3805 44.8715 37.8696 44.7004 40.4196 46.9498C42.9673 49.2015 43.9401 48.8503 45.0729 51.7443C45.3439 52.4379 45.5305 52.8291 45.6904 53.0625C46.1125 53.676 46.3546 53.178 47.4763 54.1005C47.7362 54.3183 47.9916 54.5562 48.287 54.8674C50.7059 57.4213 51.0435 58.4371 51.0435 58.4371C50.5038 54.7184 46.6478 53.0358 46.1791 51.0308C45.7104 49.0259 45.3062 48.8236 43.0006 47.2943H42.9984Z" fill="#541989"/>
<path d="M93.4175 32.7039C93.0555 32.9662 92.6579 33.2018 92.2492 33.4263C92.9355 33.1018 92.1715 38.4276 90.7055 40.6926C89.235 42.9643 87.9268 48.659 87.9268 48.659C87.9268 48.659 89.6615 44.638 91.554 42.0285C93.4464 39.4212 94.7214 32.9062 94.7547 31.6104C94.7547 31.6104 93.8929 32.3594 93.4198 32.7039H93.4175Z" fill="#541989"/>
<path d="M97.0758 39.5098C94.3904 43.9264 94.6347 47.514 94.6347 47.514C94.6347 47.514 94.8635 46.6827 96.5338 43.3952C96.5894 43.284 99.9767 36.1912 101.785 31.5967C100.745 32.3591 99.8589 33.8261 99.337 34.8219C98.9194 36.0156 98.3086 37.4826 97.0758 39.5098Z" fill="#541989"/>
<path d="M21.9906 28.0696C20.9622 26.1913 19.6006 25.0488 19.6006 25.0488C19.6006 25.0488 20.5335 27.9362 21.2709 31.0081C21.9373 33.7843 22.3948 36.7451 22.8013 37.1896C23.6609 38.1232 26.3552 40.4327 26.3552 40.4327C26.3552 40.4327 23.9186 37.2874 24.1651 34.9624C24.294 33.7443 23.2855 30.4324 21.9928 28.0696H21.9906Z" fill="#541989"/>
<path d="M68.356 64.9407C68.8202 65.1207 69.9574 62.1044 70.6482 60.0861C71.339 58.0678 71.6011 56.4385 71.6011 56.4385C72.383 53.7179 72.7228 51.1283 72.6939 53.729C72.654 57.2454 72.5274 58.1567 74.1488 57.5188C74.4665 57.2654 74.7885 57.012 75.1106 56.7675C76.5522 55.6695 77.0963 53.7201 77.665 52.4998C78.2425 51.0861 79.4997 49.4301 80.6192 47.3852C80.728 47.1629 80.8457 46.9362 80.9746 46.7094C81.4854 45.7047 81.9452 44.6111 82.2673 43.4086C82.6116 42.1261 82.8981 41.1681 83.1269 40.459C83.4312 39.1209 83.6666 38.0317 83.6733 37.9873C83.6822 37.9273 82.3895 38.5496 81.1301 40.0011C80.2616 41.0014 79.3797 42.7307 79.0554 43.5309C77.8827 46.4316 76.6366 49.3768 76.7321 48.501C76.892 47.0318 79.0954 38.6675 78.2047 38.9764C77.314 39.2832 74.5886 39.4877 72.4829 39.4699C70.6438 39.4543 70.4616 40.9747 70.4283 41.8994C70.4039 42.7529 70.3906 43.6932 70.3062 44.7223C70.1218 47.0273 70.395 48.6877 70.6238 50.0681C70.4861 49.6168 70.2551 48.91 69.8952 47.952C69.4155 46.6694 69.5376 42.5351 69.6887 39.8033C69.6709 39.7077 69.6576 39.6299 69.6554 39.5943C69.6287 39.2565 68.3382 40.0611 65.5373 39.2209C62.7363 38.3807 60.6773 37.7694 59.9954 37.5116C59.3157 37.2538 59.1447 39.3454 59.2224 42.9552C59.349 43.9043 59.4912 44.8445 59.6466 45.7425C59.7932 46.4849 60.7084 48.2032 61.6568 48.661C62.6164 49.1256 62.5431 41.1948 63.145 42.6129C63.747 44.031 65.8393 52.791 66.3369 55.6383C66.8344 58.4835 67.2409 61.991 67.1943 61.8065C67.372 62.5178 67.5852 63.3758 67.7051 63.8404C67.734 63.8915 67.7607 63.9382 67.7873 63.9782C67.7873 63.9782 67.894 64.7628 68.3582 64.9407H68.356Z" fill="#541989"/>
<path d="M53.5314 37.4183C53.3515 35.8468 51.4879 34.6621 49.0979 34.2753C46.7101 33.8863 43.034 32.6883 43.0273 32.686C43.436 34.711 43.9491 36.6515 45.0753 41.2615C46.2592 46.1071 48.0295 46.8985 49.9153 48.2321C50.4217 48.59 50.9348 48.9856 51.4457 49.5102C50.6949 48.4166 50.1507 38.6364 50.4039 37.0849C50.7327 35.06 52.2364 45.2958 53.2782 48.1655C54.3021 50.9839 55.3927 52.0486 55.1551 51.9686C55.4305 52.0886 55.7059 52.2065 55.9747 52.3087C56.3679 52.4599 56.7499 52.5932 57.1053 52.7088C56.3701 51.9086 55.5726 50.1926 55.2395 47.8765C54.8285 45.0158 53.7824 40.8281 53.5314 37.4206V37.4183Z" fill="#541989"/>
<path d="M133.759 11.4942C132.217 11.0897 73.9731 1.62064 60.6725 2.21857C56.3234 2.41417 3.68112 11.4676 3.68112 11.4676C-0.476958 11.9099 -0.479185 12.3833 0.760242 12.9346C1.99967 13.4858 5.14933 14.0237 6.0689 14.2327C6.56201 14.3438 5.53137 14.3505 5.45363 15.1685C5.38699 15.8753 7.15064 17.3935 8.3834 17.6735C10.6468 18.187 10.5713 17.947 14.6338 19.1628C18.6964 20.3809 20.5244 20.1475 21.022 20.3298C21.5173 20.512 19.9514 20.5898 19.0118 21.4123C18.0745 22.2347 17.3037 22.6014 24.7003 23.4461C32.0991 24.2907 32.6588 23.555 32.4634 24.9798C32.2679 26.4068 36.0928 26.8669 39.4179 27.5516C40.2575 27.7249 41.377 27.9028 41.377 27.9028C41.377 27.9028 40.6951 28.763 40.8906 29.0608C41.0061 29.2386 42.2588 29.6254 42.6875 29.6588C43.5027 29.721 40.3086 30.5656 41.7946 31.2769C44.58 32.6128 54.0667 33.5619 56.4878 33.6086C56.4878 33.6086 59.5042 35.1579 60.4949 35.7047C61.8987 36.4782 63.8822 37.3673 66.4588 38.0431C71.5053 39.3634 78.7398 38.4209 85.7476 36.7739C90.4877 35.6602 95.0411 33.5086 96.5338 32.2105C98.0264 30.9124 93.3997 30.0655 92.7111 29.9877C92.0225 29.9099 99.9233 29.9277 103.049 28.7296C106.174 27.5315 103.335 26.698 103.313 26.6736C103.291 26.6491 112.582 26.618 113.684 25.8156C114.785 25.0131 114.126 23.5639 114.126 23.5639C114.126 23.5639 115.505 22.8126 117.675 22.1969C119.845 21.5812 118.699 20.4898 118.699 20.4898C118.699 20.4898 119.823 20.4587 122.206 19.494C124.59 18.5293 124.718 18.087 127.104 17.9536C130.434 17.7669 132.773 17.3046 131.14 16.2621C129.507 15.2196 129.208 16.1376 129.208 15.4308C129.208 14.7239 131.102 14.5794 133.923 13.6792C136.744 12.7812 135.296 11.901 133.754 11.4942H133.759Z" fill="#C153EA"/>
<path d="M129.479 13.9033C132.267 13.7188 136.42 12.4119 133.759 11.4939C131.098 10.5758 122.493 9.68228 111.747 7.87517C101.001 6.06805 97.7647 5.58571 88.0803 3.99198C56.7015 -1.17819 47.5834 3.56076 31.7996 6.39924C18.1748 8.84874 2.84635 11.4227 1.81349 11.7494C-0.416587 12.4541 6.74011 13.4499 7.53974 13.8033C8.33937 14.159 7.17547 14.708 7.04887 15.1325C7.01111 15.2548 6.62017 15.7705 8.46154 16.3417C10.3185 16.9196 13.5059 17.0552 14.23 17.2819C15.2495 17.5998 12.1376 17.7109 15.0518 18.5334C16.6644 18.989 19.8385 19.3958 22.997 19.7181C20.9291 20.2938 18.8101 21.0762 19.0167 21.4119C19.3698 21.992 29.7606 23.0434 32.7681 23.3479C35.7756 23.6524 36.6863 24.1681 36.6863 24.1681C36.6863 24.1681 33.2523 24.0414 33.219 24.6371C33.1857 25.2328 37.1972 26.173 38.9563 26.502C42.7057 27.2044 47.5124 27.0688 47.5124 27.0688C47.5124 27.0688 42.277 28.0291 42.2992 28.338C42.3548 29.1516 44.8869 29.0271 44.8869 29.0271C44.8869 29.0271 42.9323 30.1474 42.9456 30.4675C42.9922 31.5211 51.9725 32.4413 55.3465 32.7036C58.7227 32.9681 62.9474 31.9345 62.9474 31.9345C62.9474 31.9345 59.9355 33.3082 59.7689 33.706C59.6001 34.1039 65.7151 37.4158 70.4684 37.5603C75.2196 37.7048 82.4318 36.529 85.7591 35.7532C89.0843 34.9775 95.2525 32.2435 93.3356 31.4032C91.4209 30.563 85.3793 29.485 85.3793 29.485C85.3793 29.485 101.519 28.6804 102.327 27.2733C102.627 26.751 98.9708 25.7285 98.9708 25.7285C98.9708 25.7285 111.183 25.4217 112.887 24.8683C114.59 24.3148 111.789 22.8922 113.999 22.4543C119.335 21.3941 117.571 20.6806 115.87 20.1071C114.168 19.5336 120.37 19.9871 123.135 18.3022C125.901 16.6174 132.167 17.6909 131.154 16.2572C130.141 14.8236 126.698 14.0834 129.486 13.9011L129.479 13.9033Z" fill="#E38DFF"/>
<path d="M88.0809 5.08569C97.7653 6.68164 101.002 7.16401 111.748 8.9689C114.335 9.40456 116.794 9.78465 119.082 10.127H125.684C133.209 10.736 80.2846 -1.23364 59.6408 0.104469C47.091 0.918005 11.0654 10.127 11.0654 10.127H16.8783C21.5539 9.3112 26.7937 8.3932 31.8047 7.49297C47.5885 4.65449 56.7066 -0.0844865 88.0854 5.08569H88.0809Z" fill="#FDE9FF"/>
<path d="M7.92967 11.1492C7.05452 11.865 13.6004 10.9803 19.7731 10.7869C21.6211 10.7291 36.9318 9.6444 35.5947 10.0645C35.3414 10.1445 23.5202 11.5071 22.765 11.6115C16.9899 12.4029 9.4645 14.1455 8.25173 16.2727C8.21175 16.3416 19.1534 16.1749 21.1702 15.9726C23.287 15.7592 16.7323 17.0996 18.4048 17.593C19.7864 17.9998 34.1131 18.3088 41.1166 18.0976C35.819 18.7822 26.4722 20.1804 26.3123 20.5449C26.0702 21.0939 35.1793 22.1631 40.1503 22.5654C45.1213 22.9655 55.1345 22.8855 55.1345 22.8855C55.1345 22.8855 43.3488 24.3325 40.0504 24.377C36.7519 24.4214 40.4568 25.9773 52.1537 25.7528C63.8505 25.5283 48.6553 27.5355 46.8317 27.8601C45.0081 28.1846 54.0461 28.0379 52.2358 28.1157C50.4256 28.1935 45.5878 29.2337 46.3963 29.9584C47.2049 30.683 54.7303 30.9875 59.2148 30.5652C63.6994 30.1428 68.2862 29.8183 69.0459 29.5071C69.8077 29.1937 62.5466 32.8568 63.4729 33.7882C64.3991 34.7195 69.63 35.1174 73.9325 35.2397C77.964 35.353 84.6497 34.1372 87.6839 32.4367C89.1743 31.6032 72.5487 27.8 73.5971 27.9934C74.6433 28.1868 91.2067 27.9801 94.8539 27.3266C98.5011 26.6731 90.1916 25.2061 86.0935 24.4348C81.9932 23.6635 102.324 24.3303 106.024 23.7279C109.725 23.1255 107.033 22.2075 104.252 21.9097C101.469 21.6118 109.718 22.252 111.557 21.6785C113.394 21.105 112.23 19.9381 108.166 19.1045C104.101 18.271 100.287 17.373 100.287 17.373C100.287 17.373 112.317 18.411 116.26 17.7731C120.202 17.1352 107.217 15.7104 97.1151 13.9077C86.6843 12.045 118.387 14.9013 123.354 15.3858C128.321 15.8682 122.53 13.0341 119.6 12.2362C116.67 11.4382 122.583 12.9852 128.296 12.4829C131.066 12.2384 127.452 10.9069 119.169 9.05536C116.859 8.71083 114.367 8.32409 111.748 7.88398C101.002 6.07686 97.7659 5.5945 88.0815 4.00077C56.7027 -1.16941 47.5847 3.56956 31.8008 6.40805C24.9551 7.63947 17.6807 8.89977 12.0033 9.89335C9.71106 10.4779 8.21176 10.9314 7.93189 11.1603L7.92967 11.1492Z" fill="#F0B3FF"/>
<path d="M76.2505 5.26801C76.9857 5.73924 78.7827 6.23936 81.2438 6.73726C78.5006 6.94175 76.0306 7.51744 80.3908 8.92224C87.5942 11.2428 108.824 12.6543 113.702 12.8232C117.285 12.9477 110.148 11.2072 103.642 9.72243C111.054 10.4248 117.478 10.796 119.1 10.5315C123.2 9.86247 68.8717 0.533495 76.2505 5.26801Z" fill="#FDCFFF"/>
<path d="M60.194 3.04075C49.6189 3.32082 22.9867 8.98001 18.8775 9.77354C12.6604 10.9761 36.7426 8.86886 58.2015 7.33959C78.3589 5.90145 78.0924 2.5673 60.194 3.04075Z" fill="#FDCFFF"/>
<path d="M91.0998 25.9844C85.7068 24.5507 73.1237 25.5932 74.9717 26.4045C76.8197 27.2181 94.2717 26.8269 91.0998 25.9844Z" fill="#FDCFFF"/>
<path d="M81.8723 31.5456C78.2473 29.8785 69.4225 32.966 71.0662 33.7128C72.7098 34.4597 86.3524 33.6039 81.8723 31.5456Z" fill="#FDCFFF"/>
<path d="M72.2186 24.7549C67.965 23.7635 52.9186 27.1644 55.0887 28.1246C57.2589 29.0849 79.7574 26.5087 72.2186 24.7549Z" fill="#FDCFFF"/>
<path d="M51.0021 8.69108C33.9789 10.5071 18.3483 12.9632 19.2035 13.4967C19.5278 13.699 25.9626 14.4703 34.2787 14.3792C47.9213 14.228 66.6304 12.8721 71.7303 11.1472C79.942 8.37098 68.0253 6.87507 51.0021 8.69108Z" fill="#FDCFFF"/>
<path d="M91.1547 15.8217C96.3323 15.8884 104.062 15.8484 100.773 14.9193C95.9747 13.5656 82.4987 9.44012 77.0124 11.1428C74.518 11.9163 76.6792 13.51 79.4401 14.9526C65.5043 14.5503 39.232 18.1445 44.1231 20.1206C49.6117 22.3367 91.9765 20.923 103.169 19.7738C111.625 18.9047 102.152 16.9865 91.1547 15.8239V15.8217Z" fill="#FDCFFF"/>
</svg>
