<svg width="134" height="80" viewBox="0 0 134 80" fill="none" xmlns="http://www.w3.org/2000/svg">
<path d="M129.247 16.5811C128.727 16.7033 126.624 17.2279 125.436 17.0834C124.105 16.9189 122.55 16.5144 121.029 16.2743C119.707 16.0676 118.408 15.9876 117.293 16.3055C116.258 16.6011 117.004 17.568 115.933 17.7125C115.842 17.7258 115.751 17.7325 115.66 17.7391C114.734 17.8081 113.765 17.6058 112.779 17.2901C110.136 16.4433 107.368 14.7784 104.95 15.323C105.034 15.3808 105.127 15.443 105.227 15.5119C106.518 16.2632 110.9 18.1437 111.253 19.4262C111.335 19.7219 111.267 20.1886 110.665 20.4709C110.14 20.7177 109.694 20.8955 109.299 21.0289C108.266 21.3756 107.613 21.3867 106.953 21.3423C106.469 21.3734 105.978 21.4067 105.496 21.4467C104.245 21.549 103.073 21.6935 102.34 21.9358C101.78 22.1202 101.227 22.3358 100.669 22.5381C99.7941 22.8537 98.91 23.1316 97.9794 23.1894C97.1153 23.2427 96.2624 23.0983 95.4206 22.8982C94.8631 22.7648 94.31 22.607 93.7591 22.4581C91.8289 21.9402 89.8543 21.5712 87.8596 21.34C86.4714 21.18 85.0742 21.0866 83.6749 21.0689C86.8401 22.2847 88.0107 23.5117 88.7481 24.7942C89.2235 25.6211 89.1946 26.6792 88.0618 26.3769C86.6846 26.0123 84.7078 26.2035 83.0685 26.4591C82.7575 26.508 82.4555 26.5569 82.1756 26.608C79.5235 27.1281 76.8736 27.8417 74.1771 27.9617C73.7484 27.9817 73.3308 28.0239 72.9154 28.0773C71.1785 28.2996 69.537 28.7886 67.8266 29.3042C67.4157 29.4287 66.9604 29.5221 66.4784 29.5977C64.4705 29.9088 61.9294 29.8377 59.6371 29.6621C58.7375 29.5932 57.8757 29.511 57.1028 29.4287C55.8967 29.4198 53.3267 29.0375 51.4232 28.1773C50.5902 27.8016 49.8861 27.3349 49.4774 26.7681C48.9843 26.0812 49.9105 25.3966 50.1016 25.1343C50.4769 24.6186 50.9522 25.4188 52.667 24.2608C51.6386 24.0941 49.8394 23.7495 47.8715 23.4517C47.5849 23.4095 47.2961 23.365 47.0029 23.325C45.7435 23.1494 44.4486 23.0049 43.2692 22.9471C42.1808 22.8938 41.1901 22.9138 40.4082 23.0516C39.4265 23.225 38.7068 23.6962 37.7073 23.674C37.6118 23.674 37.5251 23.6628 37.443 23.6517C35.7815 23.4228 37.0742 21.3956 36.9343 21.2934C35.5616 20.2887 30.1263 20.1375 27.6808 19.7819C27.5075 19.7574 27.3476 19.7308 27.2077 19.7019C25.9971 19.464 26.9345 17.9414 25.3552 17.9236C25.2108 17.9236 24.9065 17.9192 24.5378 17.917C23.6937 17.9103 22.5209 17.897 22.1966 17.8658C21.8257 17.8303 21.5525 17.7614 21.3548 17.668C20.0221 17.0368 22.27 15.2763 22.2677 14.9696C22.2655 14.345 19.8511 14.7562 17.7476 15.2007C17.0346 15.3519 16.3616 15.5053 15.8263 15.6253C15.3798 15.7253 15.0311 15.8009 14.8445 15.8276C11.9636 16.2588 10.7397 15.5208 8.84063 14.7251C8.0832 14.4072 7.21913 14.0805 6.09743 13.8137C5.43996 13.6581 4.75808 13.627 4.07395 13.6292C3.28765 13.6692 2.63457 13.6515 2.08594 13.6003C3.40089 15.8476 2.59905 19.284 7.98989 24.6053C14.3847 30.9202 12.6988 28.0439 18.1696 36.6683C21.8413 42.4564 23.0163 42.0119 25.1553 43.4033C25.2841 43.4344 25.4085 43.4611 25.5284 43.4878C25.4085 43.4633 25.2841 43.4344 25.1553 43.4033C26.2037 44.0835 27.4809 45.206 29.3977 47.7155C32.0321 51.1652 32.9117 53.0768 33.849 54.4905C34.9885 56.2065 36.2146 57.1867 40.7636 59.2895C47.4361 62.3725 50.1304 71.0124 50.3192 66.0979C50.6524 57.4268 41.7898 53.2924 41.6721 48.6357C41.6454 47.5755 41.5944 46.9798 41.5011 46.6041C41.6632 46.593 41.8276 46.5552 41.9964 46.4863C44.5264 49.5071 46.3744 51.4298 48.1558 52.3655C49.1931 55.5397 50.4569 58.307 52.7869 59.494C55.1125 60.6787 57.1272 62.0346 58.8508 63.5728C59.2995 63.9729 59.726 64.3841 60.1347 64.8064C61.8095 66.5424 63.1577 68.4896 64.195 70.6568C64.3527 70.9857 66.3806 73.6419 66.3806 73.6419C66.6605 74.1665 66.956 74.6178 67.2536 75.0179C68.4109 76.5782 69.5703 77.3607 69.7791 78.7766C70.0878 80.8749 70.4876 76.7561 71.5494 73.0774C71.5494 73.0774 72.8021 71.7104 74.2792 70.1789C76.0851 69.043 78.8638 67.5338 82.34 66.4002C88.6926 64.3263 100.545 59.0228 104.572 51.8343C105.609 49.9805 106.813 48.3646 108.112 46.9153C110.043 44.7637 113.283 42.1497 115.747 40.2781C117.972 38.5866 119.727 36.4505 120.871 34.0165C122.724 30.0822 125.569 24.1652 127.093 21.6579C128.983 18.546 129.889 17.5991 130.451 16.1387C130.127 16.3232 129.731 16.4788 129.249 16.5944L129.247 16.5811Z" fill="#7816B7"/>
<path d="M41.6743 48.6247C41.6476 47.5644 41.5966 46.9687 41.5033 46.5931C41.6654 46.582 41.8298 46.5442 41.9986 46.4753C44.5286 49.496 46.3766 51.4187 48.158 52.3545C46.6232 47.6556 45.5903 42.0653 42.3473 39.3846C36.9298 34.9057 37.3475 28.0729 37.443 23.6452C35.7815 23.4162 37.0742 21.389 36.9343 21.2868C35.5616 20.2821 30.1263 20.1309 27.6808 19.7753C27.5075 19.7508 27.3476 19.7242 27.2077 19.6953C25.9971 19.4574 26.9345 17.9348 25.3552 17.9171C25.2108 17.9171 24.9065 17.9148 24.5378 17.9104C23.6937 17.9037 22.5209 17.8904 22.1966 17.8593C21.8257 17.8237 21.5525 17.7548 21.3548 17.6614C20.0221 17.0302 22.27 15.2697 22.2677 14.963C22.2655 14.3384 19.8511 14.7496 17.7476 15.1942C17.0346 15.3453 16.3616 15.4987 15.8263 15.6187C15.3798 15.7187 15.0311 15.7943 14.8445 15.821C11.9636 16.2522 10.7397 15.5142 8.84063 14.7185C8.0832 14.4006 7.21913 14.0739 6.09743 13.8071C5.43996 13.6515 4.75808 13.6204 4.07395 13.6226C3.28765 13.6627 2.63457 13.6449 2.08594 13.5938C3.40089 15.841 2.59905 19.2774 7.98989 24.5987C14.3847 30.9136 12.6988 28.0374 18.1696 36.6617C21.7969 42.3809 22.9896 42.0164 25.0798 43.3478C25.1042 43.3634 25.2241 43.4412 25.2575 43.4634C26.2859 44.1503 27.543 45.2794 29.3977 47.7067C32.0321 51.1564 32.9117 53.068 33.849 54.4817C34.9885 56.1977 36.2146 57.1779 40.7636 59.2807C47.4361 62.3637 50.1304 71.0036 50.3192 66.089C50.6524 57.418 41.7898 53.2836 41.6721 48.6269L41.6743 48.6247Z" fill="#21003A"/>
<path d="M129.247 16.5808C128.728 16.7031 126.622 17.2277 125.436 17.0832C124.105 16.9187 122.553 16.5142 121.027 16.2763C119.705 16.0696 118.406 15.9896 117.291 16.3074C116.256 16.6031 117.002 17.57 115.931 17.7145C115.84 17.7278 115.749 17.7345 115.658 17.7411C114.732 17.81 113.763 17.6078 112.777 17.2921C110.134 16.4453 107.366 14.7804 104.947 15.325C105.032 15.3828 105.125 15.445 105.225 15.5139C106.516 16.2652 110.685 18.2079 111.038 19.4905C111.12 19.7861 111.265 20.1906 110.663 20.4729C110.138 20.7197 109.692 20.8975 109.297 21.0308C108.264 21.3776 107.611 21.3887 106.951 21.3442C106.467 21.3754 105.976 21.4087 105.494 21.4487C104.243 21.551 103.071 21.6955 102.338 21.9377C101.778 22.1222 101.225 22.3378 100.667 22.5401C99.792 22.8557 98.908 23.1336 97.9773 23.1914C97.1133 23.2447 96.2604 23.1002 95.4185 22.9002C94.861 22.7668 94.3079 22.609 93.757 22.4601C90.4808 21.5821 87.0801 21.1153 83.6728 21.0709C86.838 22.2867 88.0086 23.5137 88.7461 24.7962C89.2214 25.6231 89.1925 26.6811 88.0597 26.3788C87.7332 28.1348 86.1672 31.5824 86.1006 35.0855C86.0184 39.4621 82.0891 53.0699 81.3228 56.5063C80.6897 59.3426 76.6716 64.1749 74.1439 67.7936C73.6108 68.5582 73.1421 69.2695 72.7867 69.8963C72.2936 70.7654 71.554 72.357 71.3008 73.9863C71.3008 73.9863 73.5908 71.1278 75.9187 69.5629C78.151 68.0626 80.6365 66.949 82.3379 66.3933C88.6905 64.3194 100.543 59.0159 104.57 51.8274C105.607 49.9736 106.811 48.3576 108.11 46.9084C110.041 44.7568 113.281 42.1428 115.745 40.2712C117.97 38.5797 119.725 36.4436 120.869 34.0096C122.721 30.0753 125.567 24.1583 127.091 21.651C128.981 18.5391 129.887 17.5922 130.449 16.1318C130.122 16.3163 129.729 16.4719 129.247 16.5875V16.5808Z" fill="#21003A"/>
<path d="M28.8461 31.1581C28.4063 29.3043 27.8688 27.6439 27.3246 26.1658C27.278 26.0502 25.2967 21.1667 22.9355 19.9976C23.7241 21.3423 24.6126 23.2806 25.6077 26.6525C26.0186 28.0485 26.3117 29.3266 26.5783 30.5024C27.5223 34.6746 28.1443 37.5886 32.6066 40.087C33.3907 40.5271 34.0948 40.9828 34.7345 41.4385C34.2192 41.0717 30.5276 38.2399 28.8483 31.1581H28.8461Z" fill="#3A0060"/>
<path d="M9.25586 18.3325C11.0684 21.1821 10.613 23.0959 12.9431 26.7546C15.8839 31.3735 17.9652 34.3187 18.767 35.0211C19.5689 35.7235 16.8835 29.3508 15.8995 26.3901C15.5708 25.3965 14.5623 22.847 14.5623 22.8448C13.394 19.0349 10.8862 18.5415 9.25808 18.3325H9.25586Z" fill="#3A0060"/>
<path d="M66.2404 73.3529C65.4497 71.8169 64.2236 68.9962 64.0326 66.1444C63.6661 60.6875 59.85 56.9377 58.6506 55.3017C55.2899 50.7228 53.6062 47.2286 54.3948 40.6247C54.7724 37.4595 53.1376 33.583 51.6316 30.5933C50.9364 29.213 50.2722 28.0216 49.8435 27.1769C49.7036 27.0458 49.5792 26.9079 49.4748 26.7612C48.9817 26.0744 52.0203 24.6896 52.6644 24.2562C52.4423 24.2206 52.1869 24.1762 51.9004 24.1273C50.852 23.945 49.406 23.6805 47.8556 23.4449C47.5735 23.4026 47.2869 23.3604 47.0004 23.3204C45.741 23.1448 44.4461 23.0003 43.2666 22.9425L38.0134 22.6069C37.6825 22.5846 37.4004 22.8292 37.4004 23.1381V25.6076C38.5399 26.3322 40.1103 26.8302 41.8095 27.0035C41.5607 29.1819 41.8784 31.6936 42.8757 33.9475C45.1502 39.0932 45.1635 32.4493 45.781 30.211C46.0897 29.0907 48.7396 38.2308 48.2465 40.987C47.0693 47.5931 50.6943 55.9774 52.5312 57.56C53.9794 58.807 57.2957 61.6033 58.8505 63.5637C59.2969 63.9638 59.7256 64.3751 60.1343 64.7974C60.2987 64.9685 60.4564 65.1397 60.6097 65.3108C60.6541 65.3597 60.703 65.4087 60.7474 65.4576C61.5448 66.3533 62.26 67.3002 62.8953 68.3005C63.3728 69.0518 63.806 69.8342 64.1947 70.6455C64.3524 70.9745 66.3803 73.6285 66.3803 73.6307C66.3315 73.5418 66.2848 73.4484 66.2382 73.3551L66.2404 73.3529Z" fill="#541989"/>
<path d="M71.6385 32.2783C70.1925 32.4673 68.8331 32.7118 67.8291 33.0474C68.7953 38.0309 67.818 45.5505 69.2618 50.2761C70.0681 52.919 71.081 59.1628 71.021 61.23C70.9588 63.3816 71.8095 60.2964 71.8117 56.1976C71.814 53.5881 70.9988 50.4717 70.9233 48.3446C70.8011 44.8481 70.79 37.3374 71.6363 32.2783H71.6385Z" fill="#B00FF2"/>
<path d="M65.2369 57.6914C65.137 51.9989 64.1285 43.6346 63.942 43.2411C63.7554 42.8477 63.6932 54.7884 59.8128 51.0964C55.9324 47.4044 57.1651 41.0872 57.5316 37.7109C57.7204 35.9749 57.867 33.861 58.3534 32.1361C56.2566 31.8783 53.74 31.4515 51.6299 30.5913C53.1336 33.5809 54.7706 37.4575 54.393 40.6227C53.6045 47.2288 55.2882 50.7208 58.6489 55.2997C59.8483 56.9356 63.6643 60.6855 64.0308 66.1424C64.2352 69.1765 65.6145 72.1928 66.3808 73.6265C66.6607 74.151 66.9561 74.6023 67.2538 75.0024C68.411 76.5627 69.5705 77.3452 69.7793 78.7611C69.6971 75.8404 69.566 75.7225 67.4936 73.3064C65.4213 70.8902 65.3369 63.3817 65.2369 57.6892V57.6914Z" fill="#B00FF2"/>
<path d="M83.6194 30.5467C83.5728 34.092 82.9264 36.5748 82.9264 39.3889C82.9264 42.6875 80.2699 54.1348 78.4818 58.4669C77.0691 61.89 74.8479 65.7421 74.1416 67.787C76.6693 64.1684 80.6874 59.3361 81.3205 56.4976C82.0868 53.0612 86.0161 39.4533 86.0983 35.0767C86.1405 32.8872 86.7669 30.7178 87.3111 28.9707C86.1716 29.3552 85.9961 29.882 83.6172 30.5444L83.6194 30.5467Z" fill="#B00FF2"/>
<path d="M82.176 26.6035C79.5239 27.1236 76.874 27.8371 74.1775 27.9571C73.7488 27.9771 73.3312 28.0194 72.9159 28.0727C72.3561 28.9574 71.943 30.46 71.6387 32.276C71.7675 32.2604 71.8941 32.2427 72.0252 32.2293C72.2762 32.2004 74.9816 31.9426 75.7834 36.6726C76.3409 39.9512 76.4364 44.1345 76.2388 48.3822C75.9078 55.5151 74.1508 62.8103 74.5662 63.0881C75.4147 63.6549 77.7092 55.8308 78.3045 53.6258C78.3978 53.279 79.9526 36.4415 81.2542 32.585C81.7607 31.089 83.0867 30.6956 83.4754 30.5911C83.531 30.5756 83.5687 30.5622 83.6198 30.5489C83.642 28.9018 83.5176 27.4281 83.0667 26.459C82.7557 26.5079 82.4537 26.5568 82.1738 26.6079L82.176 26.6035Z" fill="#541989"/>
<path d="M66.4784 29.591C66.8012 29.5406 66.8012 29.5406 66.4784 29.591C64.4704 29.9022 61.9294 29.8311 59.6371 29.6555C59.0418 30.2467 58.6398 31.1247 58.3555 32.1361C60.1124 32.3517 61.5784 32.4495 62.2492 32.5806C64.968 33.1119 64.8614 42.3653 65.37 39.8869C65.792 37.8331 66.1163 33.8565 67.0048 33.3875C67.238 33.263 67.5223 33.1497 67.8333 33.0452C67.5623 31.6604 67.1425 30.469 66.4784 29.591Z" fill="#541989"/>
<path d="M64.0307 66.1443C63.6642 60.6873 59.8482 56.9375 58.6487 55.3016C55.2881 50.7226 53.6044 47.2284 54.3929 40.6246C54.7705 37.4593 53.1357 33.5828 51.6297 30.5932C50.9345 29.2128 50.2704 28.0214 49.8417 27.1768C49.7017 27.0456 49.5774 26.9078 49.473 26.7611C48.9799 26.0743 52.0185 24.6895 52.6626 24.2561C52.4405 24.2205 52.185 24.176 51.8985 24.1271C50.8501 23.9449 49.4041 23.6803 47.8537 23.4447C47.5716 23.4025 47.2851 23.3603 46.9986 23.3203C45.7392 23.1447 44.4442 23.0002 43.2647 22.9424C42.4918 23.9493 41.9942 25.3852 41.8076 27.0034C43.2114 27.1457 43.1714 27.3657 44.5752 27.0034C47.6782 26.201 50.5458 35.1943 50.3281 42.994C50.1971 47.6685 51.6453 50.6004 52.9447 52.7587C53.6843 54.5347 54.5884 55.7483 56.2987 57.4288C59.3617 60.4384 61.1831 63.3391 60.1347 64.795C60.2991 64.9662 60.4568 65.1373 60.61 65.3085C60.6544 65.3574 60.7033 65.4063 60.7478 65.4552C61.5452 66.351 62.2604 67.2979 62.8956 68.2981C63.3732 69.0494 63.8063 69.8318 64.1951 70.6432C64.3528 70.9721 66.3807 73.6261 66.3807 73.6283C66.3318 73.5394 66.2852 73.4461 66.2385 73.3527C65.4478 71.8168 64.2217 68.9961 64.0307 66.1443Z" fill="#3A0060"/>
<path d="M105.229 45.2835C99.9271 52.3008 93.1902 58.529 86.7243 60.205C83.1349 61.1363 79.3833 64.2749 76.8511 67.0445C74.8232 69.2628 73.5749 71.3166 73.817 71.2722C74.4678 70.6587 75.1897 70.0452 75.916 69.5562C78.1483 68.0558 80.6338 66.9422 82.3353 66.3865C86.7399 64.9484 93.7855 61.9565 99.0364 57.8644C102.515 53.241 105.04 47.8552 105.724 45.608C106.089 44.4077 106.12 44.1032 105.227 45.2835H105.229Z" fill="#3A0060"/>
<path d="M41.9966 46.4754C44.5265 49.4961 46.3723 51.4188 48.156 52.3546C46.6211 47.6557 45.5882 42.0654 42.3453 39.3847C37.8784 35.6905 37.3787 30.398 37.3942 26.1725C37.3987 25.2723 37.4254 24.4232 37.4409 23.6453C35.7795 23.4163 37.0722 21.3891 36.9322 21.2869C35.5595 20.2822 30.1242 20.131 27.6787 19.7754C30.3219 23.0807 29.7422 24.2565 33.9825 33.2988C38.436 42.7967 38.105 41.8276 41.9966 46.4754Z" fill="#0F001C"/>
<path d="M23.5202 15.2163C25.3705 14.4516 23.6757 14.3094 22.3785 14.4183C19.0978 14.6939 14.9087 14.7828 12.4032 14.8406C10.7439 14.8784 8.41166 13.7759 6.16825 13.3691C5.17316 13.1891 2.08789 13.5914 2.08789 13.5914L2.7254 15.214C2.86311 15.7231 5.58187 15.7608 6.517 17.2879C7.45212 18.8149 9.83101 24.1696 10.1709 24.6431C10.5107 25.1165 7.26108 16.7677 8.50273 16.9256C9.7466 17.0834 12.6852 17.4902 15.4373 18.0281C18.1894 18.566 22.7184 30.5001 22.7184 30.5001C22.8117 30.8024 22.9116 31.118 23.0293 31.467C23.0626 31.567 23.0982 31.6692 23.1359 31.7759C23.2448 32.0916 23.367 32.4294 23.5047 32.7962C23.6424 33.163 23.7956 33.5586 23.9689 33.992C24.8041 36.0837 26.4877 38.5354 27.4628 40.4425C27.5295 40.5737 27.5939 40.7026 27.6539 40.8293C27.7738 41.0827 27.8782 41.3228 27.9626 41.5495C28.0048 41.6628 28.0426 41.774 28.0737 41.8785C28.2669 42.5164 28.2624 43.0165 27.9559 43.3188C27.8537 43.4188 27.7161 43.4989 27.5428 43.5522C27.4562 43.5789 27.3584 43.6011 27.2518 43.6144C27.1452 43.6278 27.0275 43.6367 26.9009 43.6389C26.7742 43.6389 26.6366 43.6345 26.4877 43.6233C26.3012 43.6078 26.099 43.5811 25.8769 43.5433C25.6548 43.5055 25.4149 43.4566 25.1572 43.3944C26.2057 44.0746 27.4828 45.1971 29.3997 47.7066C32.034 51.1541 32.9136 53.0679 33.851 54.4816C34.9905 56.1976 36.2166 57.1778 40.7656 59.2806C47.4381 62.3636 50.1324 71.0035 50.3212 66.0889C50.6544 57.4179 41.7918 53.2835 41.674 48.6268C41.6474 47.5665 41.5963 46.9708 41.503 46.5952C39.9015 46.693 38.4089 44.079 34.795 41.485C34.1397 41.0138 33.4157 40.5426 32.6049 40.0913C28.1425 37.5929 27.5228 34.6789 26.5766 30.5067C26.31 29.3287 26.0169 28.0528 25.6059 26.6569C24.311 22.2647 23.1959 20.3042 22.2452 18.9194L21.6011 17.5546C21.6011 17.5546 22.4207 15.6741 23.518 15.2207L23.5202 15.2163Z" fill="#0F001C"/>
<path d="M129.907 16.3811C129.707 16.4566 129.489 16.5255 129.247 16.5833C129.23 16.5878 129.199 16.5944 129.179 16.5989C129.043 16.63 128.85 16.6767 128.599 16.7345C128.31 16.7989 127.961 16.8723 127.59 16.9345C126.851 17.0634 126.027 17.1568 125.434 17.0834C124.103 16.919 122.55 16.5144 121.024 16.2744C121.709 17.348 121.631 18.6861 121.184 20.2176C120.907 21.1734 120.674 22.1425 120.496 23.1205C120.396 23.6629 120.287 24.203 120.172 24.7431C119.976 25.6745 119.756 26.5992 119.667 27.5483C119.581 28.4796 119.574 29.4176 119.658 30.349C119.743 31.2736 119.956 32.185 120.272 33.0652C120.416 33.4653 120.569 33.8632 120.725 34.2611C120.767 34.1744 120.822 34.0944 120.865 34.0077C121.096 33.5164 121.342 32.9919 121.602 32.4495C123.408 28.6463 125.753 23.8429 127.086 21.649C128.268 19.7041 129.065 18.6038 129.634 17.6969C129.86 17.3346 130.051 17.0012 130.216 16.6589C130.298 16.4878 130.374 16.3122 130.445 16.1299C130.282 16.221 130.103 16.3077 129.903 16.3833L129.907 16.3811Z" fill="#3A0060"/>
<path d="M89.5341 52.6812C90.9268 52.7568 93.3811 51.2475 94.5384 50.5273C94.8471 50.334 95.1692 50.1406 95.5024 49.9428C103.552 45.1882 108.259 25.4166 111.604 20.4687C111.393 19.6685 111.089 19.2173 110.74 18.9795C110.891 19.1573 110.993 19.3262 111.037 19.4863C111.12 19.7819 111.264 20.1864 110.662 20.4687C110.138 20.7155 109.691 20.8933 109.296 21.0267C108.263 21.3734 107.61 21.3845 106.95 21.3401C106.466 21.3712 105.975 21.4045 105.493 21.4445C104.549 22.2848 103.263 23.9785 101.979 27.3971C99.4983 34.0032 95.8489 45.6728 96.342 44.068C96.5242 43.4811 96.6663 40.3515 97.5414 36.7284C98.8164 31.4493 100.704 24.9343 100.664 22.5337C99.7893 22.8493 98.9053 23.1272 97.9746 23.185C97.3793 23.2205 96.7907 23.1605 96.2087 23.0561C90.598 27.1304 87.0463 52.5434 89.5319 52.6768L89.5341 52.6812Z" fill="#3A0060"/>
<path d="M113.907 19.9305C113.932 20.4018 113.88 20.8819 113.86 21.3464C113.829 22.0355 113.883 22.6623 114.14 23.3136C114.285 23.6781 114.476 24.0271 114.693 24.3583C115.749 21.6443 116.557 19.3637 116.797 18.1923C116.801 18.1857 117.079 17.3632 117.243 16.3252C116.295 16.6386 116.981 17.5677 115.933 17.71C115.842 17.7233 115.751 17.73 115.66 17.7367C115.122 17.7767 114.569 17.7189 114.007 17.6055C114.116 18.1812 114.074 18.9681 113.909 19.9283L113.907 19.9305Z" fill="#3A0060"/>
<path d="M77.8131 2.41069C85.9805 3.32202 104.137 5.44922 104.137 5.44922C104.137 5.44922 84.7277 1.36821 74.8944 0.565785C69.8168 0.152348 63.5264 -1.1213 41.812 2.40402C19.8288 5.9738 5.80859 12.0598 5.80859 12.0598C5.80859 12.0598 58.0511 0.203467 77.8153 2.40846L77.8131 2.41069Z" fill="#FFF0FB"/>
<path d="M0.980087 14.1469C1.65311 14.3647 6.3865 15.7873 9.06082 16.6564C11.7329 17.5255 17.5991 16.543 20.8865 16.2985C24.1738 16.0518 17.5658 17.7033 20.1757 18.8369C20.8287 19.1192 24.9313 18.4546 25.3311 19.2504C25.8642 20.3106 34.1403 21.5954 35.5508 21.8666C36.9613 22.1378 32.1679 25.4697 38.0363 24.814C43.9047 24.1583 48.6425 25.3119 50.0352 24.8984C50.706 24.7006 48.3249 26.5611 49.3399 27.9725C50.435 29.4974 55.1883 30.5865 63.7222 30.5443C80.1635 30.462 88.6018 27.5902 90.4721 26.67C92.3423 25.7498 86.6094 22.3934 86.6094 22.3934C86.6094 22.3934 88.8172 22.4912 91.205 22.8557C93.9948 23.2803 97.1334 23.9715 98.9148 23.7826C107.002 22.9313 113.49 22.3578 112.067 20.2706C110.645 18.1834 109.668 17.81 109.668 17.81C109.668 17.81 115.445 19.4926 116.778 18.9192C118.11 18.3457 116.6 17.1987 118.022 17.281C119.443 17.3632 125.754 18.7436 128.064 18.1768C130.374 17.6077 131.064 17.1632 133.041 15.7562C135.016 14.3469 118.153 6.11376 79.2794 1.7749C53.5958 -1.09026 -2.26286 13.0955 0.980087 14.1469Z" fill="#AE3FEF"/>
<path d="M26.0621 17.2034C26.6862 17.11 27.9545 17.1522 28.3587 17.3323C28.763 17.5101 28.3032 17.8257 27.8346 18.2725C26.895 19.1705 35.1756 20.0819 37.5212 20.4886C39.8668 20.8976 37.1991 21.46 36.1174 22.7625C35.8864 23.0404 36.6061 23.5005 37.8788 23.625C40.0112 23.8339 43.6961 23.2649 47.0857 23.1737C51.1571 23.0648 53.6359 23.8428 52.4432 24.4274C51.1971 25.0409 49.9199 25.8144 49.9199 26.419C49.9199 27.5993 57.2499 28.3595 65.3639 28.4862C72.927 28.604 85.1036 26.8124 88.0001 25.4165C89.0507 24.9097 86.5318 23.2093 84.6638 21.8312C83.7931 21.1888 88.762 20.5998 95.1346 21.5089C101.509 22.418 108.933 20.8287 110.057 20.5531C111.18 20.2775 108.995 18.3548 107.8 16.6566C106.605 14.9584 111.696 17.0544 114.554 17.2367C117.413 17.4212 115.854 14.8872 116.14 14.8872C116.427 14.8872 122.953 17.0411 127.153 16.6543C130.014 16.3921 132.124 15.3451 132.011 14.2026C127.577 11.1974 110.718 5.26261 79.4418 1.77285C56.9411 -0.736662 11.1201 9.78819 2.32635 13.1957C0.975867 14.1448 9.121 15.4629 12.6061 15.3807C15.1049 15.3229 19.2785 15.2362 22.5481 14.9606C23.8409 14.8517 25.5289 14.9917 23.6853 15.7497C22.5925 16.1987 21.4509 16.681 20.7712 17.0522C20.6601 17.1144 20.5491 17.1811 20.4424 17.2478C19.3807 17.9702 23.1034 17.639 26.0621 17.1989V17.2034Z" fill="#E38DFF"/>
<path d="M26.7305 13.2132C31.3284 12.8332 27.5146 13.6756 26.7305 14.8825C25.9465 16.0895 33.092 15.8806 33.092 15.8806C33.092 15.8806 30.6975 16.5585 31.0663 17.5743C31.4328 18.5901 47.7697 19.377 47.7697 19.377C47.7697 19.377 41.5903 20.4751 41.8347 21.5487C41.928 21.9576 45.6129 21.5687 49.1002 21.5242C54.7687 21.4508 61.3234 21.5042 61.59 21.5487C62.0187 21.6198 56.519 23.0001 55.3439 24.4294C53.8913 26.1943 83.6798 25.134 83.0334 22.8045C82.0205 19.1525 70.5814 18.6768 70.5814 18.6768C70.5814 18.6768 88.7196 18.0633 94.7835 18.9102C100.847 19.7571 104.643 18.5146 103.848 17.2187C103.053 15.9206 98.7661 13.3822 98.7661 13.3822C98.7661 13.3822 107.524 14.1713 110.647 14.4535C113.77 14.7358 107.096 10.786 107.096 10.786C107.096 10.786 113.406 12.4464 122.713 13.3244C127.024 13.7312 128.335 12.9621 125.696 11.2439C117.462 8.17865 102.307 4.32436 79.4506 1.77261C59.331 -0.472391 20.5667 7.70742 6.29993 11.8996C5.5736 12.6642 7.13511 14.8292 26.7349 13.2132H26.7305Z" fill="#F0B3FF"/>
<path d="M76.5656 21.8311C74.6021 21.1843 70.6528 20.8375 67.5009 21.2554C64.2802 21.6822 61.8768 22.8892 61.8391 23.4049C61.7636 24.4251 81.299 23.3893 76.5656 21.8311Z" fill="#FDCFFF"/>
<path d="M100.507 5.51181C92.1377 3.88474 81.587 2.67554 77.8132 2.41103C74.7791 2.19765 102.337 9.19718 110.827 8.43477C111.491 8.37475 106.296 6.63431 100.507 5.50958V5.51181Z" fill="#FDCFFF"/>
<path d="M105.111 10.5998C104.195 10.1797 77.661 2.59111 71.3661 2.53554C65.0713 2.47997 41.6754 5.08952 41.8131 6.86552C41.8287 7.07668 42.6616 7.30784 44.1142 7.5479C45.7824 8.51258 87.221 15.7277 95.9992 15.97C100.759 16.1011 92.2942 13.4716 85.7573 10.9376C93.6447 11.4178 109.604 12.6647 105.111 10.5998Z" fill="#FDCFFF"/>
<path d="M36.9061 15.9697C33.7698 17.9257 68.1006 18.7237 74.1423 16.8521C80.1839 14.9806 48.1565 8.95683 36.9061 15.9697Z" fill="#FDCFFF"/>
<path d="M35.6353 7.42315C27.2347 7.01639 11.3066 10.4528 11.9973 11.5998C12.6881 12.7467 34.9667 11.5909 37.9187 10.0527C40.8729 8.51232 37.0013 7.48984 35.6331 7.42315H35.6353Z" fill="#FDCFFF"/>
</svg>
