<?xml version="1.0" encoding="UTF-8"?>
<svg id="Layer_1" xmlns="http://www.w3.org/2000/svg" version="1.1" viewBox="0 0 155 79">
  <!-- Generator: Adobe Illustrator 29.6.1, SVG Export Plug-In . SVG Version: 2.1.1 Build 9)  -->
  <defs>
    <style>
      .st0 {
        fill: #e38dff;
      }

      .st1 {
        fill: #fdcfff;
      }

      .st2 {
        fill: #b00ff2;
      }

      .st3 {
        fill: #3a0060;
      }

      .st4 {
        fill: #541989;
      }

      .st5 {
        fill: #c153ea;
      }

      .st6 {
        fill: #21003a;
      }

      .st7 {
        fill: #f0b3ff;
      }

      .st8 {
        fill: #7816b7;
      }

      .st9 {
        fill: #ebf3ff;
      }
    </style>
  </defs>
  <path class="st3" d="M151.9,18.1l-1.6-.5c.7.3.8.6-.2.8-2.9,1.1-6.6,1.8-9.3,3.2-1.4.7-4.1.7-5.5,1.4-1.4.8-5.4,1.8-6.9,2.5.6,1,4.5,1.5,5,2.1-3.6-.6-6.9,1.7-10.6,2-1.6.1-3.2-.2-4.9-.3-3.6-.4-9.8.7-13.3,1.6,2.7,1.1,10.3.6,14.2,2.4-.5.4-1.7,1.4-2.1,1.8.5.5,4.8.3,5.5.5,0,.6-3.2,1.2-3.8,1.2-4.7.6-9.1,0-13.8.6-.7,0,1.4,1.6.7,1.8-1.3.4-4.9.2-7.8,0-1.3,0-2.9-.3-4.1-.6-1-.2-1.7-.5-2-.6-.7-.3-.3-.3-.2-.8,0-.4,2.8-1.3.5-1.9-.6-.2-1-.8-1.6-.9-4.4-.6-12-.3-11.3-1.5.5-.5,1.1-1.3,1.6-1.8-1.7.2-4.4.2-8.7.1-.2.9-2.7,2.2-2.9,3.1-.4,2.1-.4,4.2-.6,6.4,0,2.1-.4,4.2-.7,6.3-.5,3.4-1,6.6-2.4,9.7.3.2.6.4.9.6,6.8,4.5,6.2,4.3,8.2,6.2.5.5,1.2,1.1,2.5,2.4,3.8,3.7,2.6,4.5,3.9,5.8s.6-.9.9-3.2v-.3c.8,2.1,2.7,1.9,3.7,3,1.3,1.3,3,3.1,3,3.1,0,.3.2.6.3.8,1.3,2.4,2.6,3.4,3,3.9h0c0-.2,0-.9.2-2,.2-.8,4.8-2.3,7-5.3s2.5-6.1,5.2-9.9c.5-.6,1-1.2,1.6-1.8,0,.8,0,1.7-.2,2.7,0,.4,0,.7-.2,1.1-.8,3.1.5,2.8,1.1,5.6.5,2.8,1.4,2.6,2.1-1.4.5-2.7,1.3-3.5,2.7-4.9.6-.6,1.2-1.3,2-2.2.2-.2,1-1.2,1.1-1.4.4-.5.8-.9,1.1-1.3.2,2.7,1.4,4.8,2.3,5.9.5.5.9.8,1.2.7,0,0,.2,0,.2-.2,1.2-2.1,3.4-3.6,5.1-5.3.8-.7,1.7-1.5,2.7-2.5,3.8-3.5,4-3.8,5-5.6.4-.8.9-1.8,1.9-3.5,2.2-3.6,2.5-3.8,3.2-5.8.3-1,.7-2.5,1.5-5.3,2.3-8.1,4.8-7.8,8.1-11.8,3.2-4.1,5.4-4,5.3-6.5h0l.2-.2Z"/>
  <path class="st6" d="M81.4,68.3c-1.4-7.1-5.4-33.6-7-32.3s3.7,28.3,1.9,24.8c-1.8-3.5-4.8-4.6-5.8-10.1s2.3-18.9,3.9-19.4h-4.7c-.3,1.2-.7,1.7-1,3-.4,2.1-.4,4.2-.6,6.4,0,2.1-.4,4.2-.7,6.3-.5,3.4-1,6.6-2.4,9.7.3.2.6.4.9.6,6.8,4.5,6.2,4.3,8.2,6.2.5.5,1.2,1.1,2.5,2.4,3.8,3.7,2.6,4.5,3.9,5.8s.6-.9.9-3.2v-.2Z"/>
  <path class="st8" d="M65.9,31.1c1.3.5,3.2,1.4,1.9,1.3-1.8,0-12.7,1.4-12.7,1.4,0,0,0,.2,1.2,1.2,0,0,.3.2.4.4.7,1.2-9.1,2.2-9.1,2.2,0,0,3.5,1.1,3.6,1.5,0,.4-1.6,1.5-9.8.5-5.4-.6-6.2-1-5.7-1.4,0,0,1.7-1.1,2.2-1.3.4-.2-.7-1.2-1.9-1.9,0,0-.3-.2-.4-.2-1.5-1-3.3-1.5-5.2-1.9-4.6-.8-10.5-2.3-10.5-3.3.2,0,.7-.3,1.4-.5-2.9-1.2-9.5-3.9-10.6-5.1-1.4-1.5-1-2.1-1.6-2.4s-8-3.6-8-3.6c0,1.5,3.2,10.7,6.9,15.9.7,1,1.4,1.8,2.1,2.4,4.8,4.1,5.4,1.8,9.1,7.5.2.3.4.6.6.9h0c.7,1.3,1.5,2.4,2.3,3.3,4.5,5.1,11.1,8.9,16.5,11.6.6.5,1.3,1.2,2.5,2.2,1.8,1.7,3,2.5,4,3,.5.3,1,.4,1.4.5.9.3,1.7.4,2.8,1.1,1.9,1.3,2.8,2.5,3.4,3.3.2.3.3.6.4.8,1.4,2.5,2.8,4.7,2.9,3.2,0-.4,0-.8,0-1.1.3-.8,1.5-1.5,1.7-4.3.2-2.3.9-3.2,1.6-4.3.2-.3,1.2-1.5,1.4-1.7,2.1-1.7,3.6-3.6,4.9-5.7.4-.7.8-1.4,1.1-2.1,0-.2,1.8-14.6,2.8-23.4-1.5,0-2.9-.1-3.9-.1h.2Z"/>
  <path class="st4" d="M67.8,32.4c-1.8,0-12.7,1.4-12.7,1.4,0,0,0,.2,1.2,1.2,0,0,.3.2.4.4.7,1.2-8.6,2.2-9.1,2.2.4,0,3.5,1.1,3.6,1.5,0,0,0,.3-.6.5.9.6,1.5,1.1,1.5,1.2-.3,2.6-.9,8.1.5,11.4,1.4,3.4,3.8,3.5,3.8,10.1s0,7.3,0,9.4v1c.3-.8,1.5-1.5,1.7-4.3.2-2.3.9-3.2,1.6-4.3.2-.3,1.2-1.5,1.4-1.7,2.1-1.7,3.6-3.6,4.9-5.7.4-.7.8-1.4,1.1-2.1,0-.3.3-.6.4-.9,1-2.2,1.3-10.9,2.6-16.7.4-1.9,1.7-5,1.7-5.7-2.2,0-4.4-.1-5.8-.2,1.3.5,3.2,1.4,1.9,1.3h0ZM55.2,53.3c-.6-.6-.4-.8-.7-4.9-.2-2,0-4.4-.2-6.3,0-.5,0-1,.4-1.4.6-.9,1.6-1.6,1.9-1.9,0,1.5-1.2,14.8-1.4,14.5h0ZM63.5,55.7c-1.3,2.2-4.1,1.6-3.2-6.2.2-2,.5-3.9.7-5.6.5-3.5,2.9-6.4,6.4-7.8.5-.2.9-.4,1.3-.5-.6.8-3.5,16.7-5.2,20.1h0Z"/>
  <path class="st4" d="M32.3,53.6c-6.1-6.3-1.9-6.4-5.8-11.4s-6.1-10.3-5.9-11c0-.2,1.8-1.3,2.5-1.8-1.5-.6-3.1-1.3-4.7-2-2-.9-4.1-1.9-5.8-2.8-2.7-1.4-2.3-2.8-2.6-3.2.8,4.6,4.8,10.6,5.7,13.4.6,1.9,1.8,5.8,3.6,9.1.2.3.4.7.6,1,.7,1.2,1.5,2.3,2.3,3.2,4.5,5.1,11.1,8.9,16.5,11.6-1.9-1.6-1.7-1.2-6.4-6h0Z"/>
  <path class="st3" d="M38.7,59.7c-1.9-1.6-1.7-1.2-6.4-6-6.1-6.3-1.9-6.4-5.8-11.4-3.8-4.8-6-9.9-5.9-10.9h0c0-.2,1.8-1.3,2.5-1.8-1.5-.6-3.1-1.3-4.7-2-.9-.4-1.8-.8-2.7-1.2-1.7-.8-3.5-1.6-5.1-2.3.3.7.6,1.5.9,2.2,3,1.9,6,4.1,6.4,5.8.7,2.8,4.1,8,6.4,11.1s1.2,8.4-2.1,5.1c.7.8,1.4,1.6,2.2,2.3,3.5,3.3,7.8,5.9,11.8,8,.8.4,1.7.9,2.4,1.2h0Z"/>
  <path class="st6" d="M15.7,34.8c-.9-2.8-5-8.9-5.7-13.4-.3-.4-3.8-2-6.5-2.9-.4-.1-.8-.3-1.2-.4-.5,0-.9-.2-1-.2-.9-.2,2.6,10.3,6.8,16.1.7,1,1.4,1.8,2.1,2.4,4.8,4.1,5.4,1.8,9.1,7.5h0c-1.7-3.3-3-7.2-3.6-9.1h0Z"/>
  <path class="st3" d="M9,26.8c-.3-.8-2.6-5.4-7.4-6.5,1,3.4,3.6,9.7,6.5,13.7,3,2.2,5,3.1,2.5-3.2-.6-1.5-1.1-2.8-1.6-3.9h0Z"/>
  <path class="st2" d="M38.5,57.7c-2.4-2.1-7.6-6.4-7.8-11.6-.2-5.2.1-7-.3-7.7-.4-.8-.2,5.2-1.5,4.3-.9-.6-4.4-5.8-5.1-8.6-1.2-.4-2.2-.7-2.8-1,.9,2.1,2.8,5.7,5.4,9.1,3.9,5-.3,5.1,5.8,11.4,4.7,4.9,4.5,4.4,6.4,6,.6.5,1.3,1.2,2.5,2.2,1.8,1.7,3,2.5,4,3-2.3-1.5-4.3-5.2-6.7-7.2h0Z"/>
  <path class="st3" d="M56.4,35s.3.2.4.4c.2.4-.6.7-1.9,1.1l2.4,1.3v1.6c-.2,2.4-.7,9.4-.9,13.5,0,1.1-.4,4-.9,3.7.6,1.2,1.1,2.9,1.1,5.7,0,4.9,0,7.3,0,9.4v1c.3-.8,1.5-1.5,1.7-4.3.2-2.3.9-3.2,1.6-4.3.2-.3,1.2-1.5,1.4-1.7,1-.8,1.9-1.7,2.7-2.6-1.5.8-3.1,1.4-3.7,0-1-2.5-2.9-3.4-1.2-13.7.5-3.1.7-5.4.9-7.1.3-2.6,0-2.9,2.1-3.3,2.1-.5,7.2-1,7.1-1.7,0-.2-1.6-.8-3.6-1.4-3.8.4-10.2,1.2-10.2,1.2,0,0,0,.2,1.2,1.2h0Z"/>
  <path class="st4" d="M37.9,36.9c.4-.2-.7-1.2-1.9-1.9,0,0-.3-.2-.4-.2-1.5-1-3.3-1.5-5.2-1.9-3.3-.6-7.3-1.5-9.3-2.4-.4.3-.7.5-.6.6.1,0,1.7.6,3.9,1.1-.7,0-.9.8-.6,1.8,2.1.6,4.7,1.3,6.7,1.7,2.2.5,2.2,4.7,2.9,6.5,1,2.7,2.5,4.4,3.5,7.6,2.5,7.6,4.4,9.9,7.6,12.1,1.9,1.3,2.2,2.7,2,3.5.9.3,1.7.4,2.8,1.1,1.9,1.3,2.8,2.5,3.4,3.3-1.1-2.2-2.1-4.3-2.1-4.3,0,0-6.9-3.5-8.2-9.1-1.4-5.5-6.8-17-6.8-17-.2-.2.2-.5.8-.8-.8-.2,1-1.7,1.5-1.9h0v.2Z"/>
  <path class="st2" d="M50.4,64.5c-1.5-1.8-3.1-1.1-6.7-8.7-3.6-7.6-4.5-14.4-1.9-14.9h-.2c-1-.3-1.9-.4-2.9-.5-.7,0-2.6-.3-3-.8,0,0,5.5,11.4,6.8,17,.9,3.6,4.2,6.4,6.3,7.9,1.3.9,2.3,2.1,3,3.4.3.6.7,1.3,1,2,0,.3.3.5.4.8-1-2-1.4-4.6-2.8-6.2Z"/>
  <path class="st2" d="M56.5,62.3c0-6.6-2.4-6.7-3.8-10.1-1.4-3.4-.9-8.8-.5-11.4-.3.5-2.9.4-3.4.4h-.3c1.5,1.4.6,4.3.6,9.1,0,5.9-.5,5.6,1.2,9.8,1.7,4.1-.2-3.9,1.4-4.4,1.6-.6,3.3,3.6,3.8,5.9.5,2.3.5,11,.8,12.3,0-.4,0-.8,0-1.1v-1c0-2.1,0-4.5,0-9.4h0Z"/>
  <path class="st4" d="M130.5,28.5c-.8.1-1.6.4-2.5.6-2.1,1.7-5.1,4.9-5.4,6.3.8,0,1.5.2,1.7.3,0,.6-5.3,1.8-5.9,1.9-3.3.4-6.4.2-9.5.3l3.1.7c-3.1-.2-4.5,9-9.1,15.1-4.6,6.1-3.8,9.6-6.5,15.7-1.5,3.4-1,4.4-.3,4.7,1-.7,1.9-1.5,2.6-2.5,2.2-3,2.5-6.1,5.2-9.9.5-.6,1-1.2,1.6-1.8,0,.8,0,1.7-.2,2.7,0,.4,0,.7-.2,1.1-.8,3.1.5,2.8,1.1,5.6.5,2.8,1.4,2.6,2.1-1.4.5-2.7,1.3-3.5,2.7-4.9s1.5-1.6,2.6-2.9c0,0,0,0,.2-.2h0c2.9-3.8,3.7-3.3,7.1-7.4,3.5-4.2,4.8-8.1,6.4-13.6,1.5-5,4.9-8.5,5.8-10.5-.9-.1-1.8,0-2.7,0h.1Z"/>
  <path class="st6" d="M150.5,19.4c-3.1,1.2-15.2,4.5-19.2,5.6l-.3.4c1.4.3,3.1.9,3.4,1.4.7.5-1.4,1.5-1.2,1.6-.1.3-.3.5-.5.8-1.3,2.1-4,5.3-5.4,9.7-1.6,5.4-2.9,9.4-6.4,13.6-2.8,3.3-3.8,3.6-5.6,5.6.2,2.1.9,3.9,1.7,5,.3.4.6.7.8,1-.2-1.1-.5-3.5,1.8-7.5,2.8-4.9,11.1-7.9,12.1-5.4,0,0,0,0,.1-.2.4-.8.9-1.8,1.9-3.5,1.9-3.2,2.4-3.7,3-5.2-.8,1-1.9,2.2-3.1,3.1-.6.4-1.2.8-1.8,1h-.3c-.1,0-.3,0-.4,0-1.7.2-5.1-2.3,2-11.8,6.8-9.1,10.9-10.2,15.3-12.5,1.8-1.7,3.1-2.3,3.3-3.6-.3.2-.8.4-1.3.5h0v.3Z"/>
  <path class="st4" d="M85.2,43.1v-.9c-.3-1.6-.9-3.1-2.1-4.3-.6-.6-1.3-1-2.2-1.3-.9-.2-1.8-.4-2.7-.5-.9-.2-1.8-.3-2.6-.6-.4,0-.7-.3-1-.5,0,1.7.2,3.8.6,5.8,0,.4,0,.8.2,1.2,0,.4.2.9.3,1.2,0,.2,5,24.7,7.2,25.3,1.7-.2,2.7-8.5,2.3-25.4v-.2.2Z"/>
  <path class="st8" d="M120.6,39.3c0,0-.5,0-.9.2-2,.4-3.7,1.7-4.4,3.4-1.3,3.2-3.3,7-4.9,9.4-.6,1-6.3,9.2-6.3,9.2,0,0,8.2-7.3,11-10,.6-.7,1.1-1.4,1.6-2.3,2.2-3.9,5-7.7,6.5-10.6-.8.3-1.7.4-2.5.6h0Z"/>
  <path class="st8" d="M127.1,33.4c-1.3,2.4-2.6,5.3-3.9,8.2,0,.2-2.4,7.7-5.7,10.9-3.2,3.2-7.3,6-7.8,8.8s2.9-.4,4.2-1.5c2.9-3.8,3.7-3.3,7.1-7.4,3.5-4.2,4.8-8.1,6.4-13.6,1.2-4,3.6-7,5-9.1-1.4.6-4.1,1.5-5.2,3.6h0Z"/>
  <path class="st8" d="M76.3,37c0,.3-.3,2,.2,5.1,1.1,7.7,4.7,20.3,4.8,20.5.4.4-1.9-19.3-2.8-22.6-.6-2-2.1-2.9-2.1-3.1h0Z"/>
  <path class="st8" d="M105.3,40c-1.3.4-4.9.2-7.8,0-1.3,0-2.9-.3-4.1-.6-1-.2-1.7-.5-2-.6-.7-.3-1.3-.6-1.3-1.1-.6,1.3-.8,3.6-.6,9.6v2.7c.3,8.1-.3,9.4-.8,14.6-.5,5.2-1.7,8-.4,10.5,1.3,2.4,2.6,3.4,3,3.9h0c.2-.3,0-3,.9-5.6.9-2.9,2.7-5.8,3.5-7.9,1.6-4.2,2.4-8.8,4.9-12.8,2.5-3.9,4.5-10.6,4.5-12.7h0c0,0,.3,0,.3,0Z"/>
  <path class="st2" d="M99.4,49.9c-2,4.7-3,5.6-4.5,11.6s-2,8-3.2,11.6,0,5.7,0,5.7h0c.2-.3,0-3,.9-5.6.9-2.9,2.7-5.8,3.5-7.9,1.6-4.2,2.4-8.8,4.9-12.8,2-3.1,3.7-8.1,4.3-10.9-2.6,1.6-4.5,5.2-5.8,8.3h-.1Z"/>
  <path class="st2" d="M95.6,48.3c-.6.3-4.7,10.8-4.3,6.8.5-4-.9-14.2-1.7-15.6-.2,1.5-.2,3.8,0,7.7v2.7c.3,8.1-.3,9.4-.8,14.6s-1.7,8-.4,10.5c0,0,0,.2.2.3.3-2.1,1.1-5.7,2.3-10.8,1.9-7.9,5.2-16.4,4.6-16.2h.2Z"/>
  <path class="st9" d="M117,4.7c-13.6-2.4-28.1-4.7-33.8-4.7h-3.3C59.5,0,24.7,10.2,24.3,10.3c0,0,49.3-7.8,58.1-7.5,13.6.5,67.7,10.6,67.7,10.6-1.4-.7-6.2-2.3-12.2-3.9-7.6-2-17-4.1-20.9-4.8h0Z"/>
  <path class="st5" d="M.2,17.4c-1.5,1.1,7.3,3.7,8.3,4.4,1,.7,0,1.2.9,2s11.8,5.8,12.3,5.9-2.8.4-2,1.9,8.2,2.5,11.7,3.6,5.1,3,5.6,3.2-2.9.8-1.6,2.1c1.3,1.3,11.1,2.1,12.9,2,7.6-.5,4.3-2.2,4.2-2.6,0-.4,5-.9,5.4-1.9s-.7-2.1-1.1-2.2c0,0,12.3-.9,12.6-1.4s-.2-1-.2-1l4.6-.2s-.7.7,2.7,1.8,12,1.1,13.6,1.2c1.6,0-1,1.3-.7,2s-.6,2.3,8.8,3.3,8.3-2.1,8-2.1,7.4,0,11.4-.3,8.3-1.4,7.9-2.6c-.4-1.2-4.2-2-4.1-2.1s1.6-1.3-1-1.9c-2.6-.7-7.8-.9-7.8-.9,0,0,1.2-.6,4.1-.6s3.5.3,6.1.5c0,0,3.6-1.1,6.6-1.6s8-1.1,6.2-2.4c-1.7-1.3-2.6-1.2-2.6-1.2,0,0,21-5.8,21.1-7.7.1-1.6-3.2-2.4-3.2-2.4,0,0,5.5-1.1-3.4-3.6S97.1,2.4,82.4,1.8C68.7,1.3,14.1,11.2,2,16.6c-.8.4-1.4.6-1.8.9h0Z"/>
  <path class="st0" d="M152.9,17c-.3-.2-.7-.4-1-.5-1.2-.5-5.9-1.7-5.9-1.7,0,0,6.6,0,4.8-1.1-.8-.3-1.8-.7-3.3-1.1-8.9-2.5-50.4-10.2-65.1-10.8-13.1-.5-63.2,8.3-78.2,13.8-.2,0-2.5,1-3.1,1.4h0c-.5.3,4.2,2.8,10.3,4,6.1,1.2-1.9.6-1,1.9s9.6,4.9,14.5,5.3c2.8.2-.3.8-2.5,1.3-.9.2-1.7.6-1.9.7,0,1.1,5.9,2.7,10.5,3.4,1.9.3,3.6.9,5.1,1.9,0,0,.2.2.4.2,1.2.8,2.3,1.8,1.8,2-.4.2-2.2,1.4-2.2,1.4-.4.4.4.8,5.8,1.5,8.1,1,9.8,0,9.7-.5,0-.4-3.6-1.6-3.6-1.6,0,0,9.8-1.1,9.1-2.3,0-.2-.3-.3-.4-.4-1.1-1-1.3-1.3-1.3-1.3,0,0,10.8-1.5,12.6-1.5s-.6-.9-1.9-1.4c2.4,0,7.7.3,10.6.3-1,.3-2,.8-1.7,1.2.3,1.4,13.2,2,16.2,2s.6.3-.9,1.7c0,0,0,0-.2.2-1.4,1.5,5.1,2.9,10.2,3.1,5.1,0,6.8-.4,4.7-2-2.1-1.6,5.8,0,14.3-.5,5.3-.3,6.1-1.3,5.2-2-.6-.3-1.8-.8-3.1-1.2-1.6-.4-3.1-.6-3.1-.6,0,0,2.8-.9,2-1.3-.8-.5-6.8-1.1-6.8-1.1-2.1-.3-3.9-1-3.9-1,0,0,2.2-1,9-.6s4.8,0,9.6-.7c3.6-.6,7.6-1.1,6.3-2.1-.4-.6-2.8-1.3-4.1-1.6,2.2-.6,16.8-4.9,20.2-6.3,2.1-.8,2.7-1.4,2.6-1.8,0,0,0-.2-.2-.2h-.1Z"/>
  <path class="st7" d="M5.1,15.6c-2.6,1.6,6.6,2.7,18.6,3.7,3.1.3-5.7.7-7.2,3.1s15.2,3,21,3.4-13.2,2.3-12.2,3.9c1,1.5,10.7,3.3,14.3,3.3s-3.4,2.8,1.4,3.2c4.3.4,9-.2,10.9-1s-5.9-3-5.9-3c0,0,9-1.1,13.9-1.4s-7-3.3-7-3.3c0,0,23.8,1,30.5,1.3,6.8.3-4.1,2-4,3.3,0,1.3,17.6,1.8,17.6,1.8,0,0-5.4,2.8-3.5,3.1,13.2,2.4,8.8-2.3,8.8-2.3,0,0,13.9,1.4,16,1.4s-8.1-2-8.1-2c0,0,5.4-.7,5.1-1-.2-.2-5.6-1.8-11.2-2.9-5.1-1-10.4-1.3-10.4-1.3,0,0,22.1-1.5,29.7-1.7,5.7-.2,4.3-1.5.6-2.6,1.4-.9,8.9-2.6,16.8-5.4,3.7-1.3,9.3-2.1-2.4-5-1.6-.4,8.8,0,6.8-2.2-12.3-2.9-49.1-9.6-62.7-10.2-12.9-.5-61,7.9-77.2,13.4,0,.2-.2.4-.2.4h0Z"/>
  <path class="st1" d="M51.7,28.2c-8.6-2.4-21.4.3-19.5,1.2,1.8,1,26.5.7,19.5-1.2Z"/>
  <path class="st1" d="M101.4,31.4c-8.1-2.9-19.2-.9-18.1,0,.8.6,14.6,1.2,19.1.9,1.9,0,1.6,0-1-.8h0Z"/>
  <path class="st1" d="M14.6,15.3c2.4.8,72-1.6,83.6-5.2,12.6-3.9-15-6.6-18.2-6.6C69,3.5,7.8,13,14.7,15.3h0Z"/>
  <path class="st1" d="M105.8,7.8c-3,.3-4,3.5-.7,4.7,5.5,2,17.9,2.1,29.1,3.4,10.2,1.1-15-9.3-28.5-8.1h0Z"/>
  <path class="st1" d="M104.6,16c-29.3-.4-79.1,1.8-73.2,5.4,5.9,3.7,67.1,5.7,80.1,3.1,12.9-2.6,24.2-8.2-6.9-8.6h0Z"/>
</svg>